<?xml version="1.0" standalone="no"?>
<!DOCTYPE svg PUBLIC "-//W3C//DTD SVG 20010904//EN"
 "http://www.w3.org/TR/2001/REC-SVG-20010904/DTD/svg10.dtd">
<svg version="1.0" xmlns="http://www.w3.org/2000/svg"
 width="1024.000000pt" height="1024.000000pt" viewBox="0 0 1024.000000 1024.000000"
 preserveAspectRatio="xMidYMid meet">

<g transform="translate(0.000000,1024.000000) scale(0.100000,-0.100000)"
fill="#000000" stroke="none">
<path d="M5290 8821 c263 -155 405 -354 456 -640 8 -48 18 -189 22 -316 7
-217 9 -232 32 -272 34 -61 84 -91 217 -130 217 -62 328 -133 414 -266 102
-157 97 -316 -14 -425 -39 -38 -108 -72 -146 -72 -38 0 -95 24 -119 48 -33 36
-62 99 -62 140 0 27 4 32 23 32 38 1 120 53 151 97 37 53 47 142 22 191 -18
35 -64 72 -116 93 -52 21 -231 18 -298 -5 -99 -34 -142 -104 -118 -196 22 -84
93 -156 177 -178 28 -7 33 -12 30 -33 -10 -68 -86 -156 -157 -180 -22 -7 -75
-13 -119 -13 -68 0 -89 4 -139 29 -70 35 -126 96 -156 170 -20 50 -21 57 -7
73 25 28 29 59 13 91 -32 61 -112 47 -142 -24 -19 -47 -18 -79 11 -222 55
-270 160 -516 266 -625 105 -108 225 -142 339 -99 138 52 176 124 227 431 l16
96 41 -21 c30 -14 60 -20 111 -20 89 0 148 27 223 102 30 30 51 46 47 36 -4
-10 -14 -39 -22 -65 -27 -81 -116 -235 -182 -316 -141 -169 -308 -276 -516
-329 -110 -28 -444 -25 -582 5 -285 62 -547 202 -718 384 -79 84 -126 157
-163 256 -21 55 -26 85 -26 167 -1 94 1 105 32 167 22 45 52 84 93 122 33 31
65 56 70 56 6 0 28 9 51 20 23 11 64 22 92 26 81 9 80 8 30 81 -92 134 -121
240 -111 413 9 167 68 281 240 467 156 168 207 265 207 391 0 198 -161 293
-415 246 -85 -16 -84 -15 -305 -93 -243 -86 -295 -94 -655 -97 -170 -2 -319
-5 -330 -7 -11 -2 -42 -7 -70 -12 -213 -32 -416 -138 -531 -276 -58 -70 -59
-69 -14 17 54 103 120 172 217 227 110 63 226 97 347 104 78 5 103 10 118 25
25 25 23 44 -8 75 l-26 26 -132 -6 c-188 -9 -353 -59 -480 -146 -352 -242
-449 -728 -216 -1084 143 -218 369 -337 637 -337 229 0 425 68 626 218 228
170 383 358 548 669 24 45 47 79 51 75 12 -12 -19 -155 -52 -236 -35 -90 -80
-169 -141 -254 -44 -58 -225 -245 -290 -298 l-37 -29 9 -94 c8 -78 32 -200 54
-272 6 -17 -121 -147 -224 -229 -126 -100 -321 -177 -511 -200 -46 -5 -177
-10 -290 -10 -230 0 -359 -15 -485 -56 -168 -55 -278 -125 -372 -239 -58 -71
-113 -150 -113 -163 0 -6 32 1 71 15 238 83 446 69 688 -45 106 -49 193 -108
386 -257 94 -73 196 -148 227 -168 199 -126 395 -187 602 -187 240 0 442 95
619 291 l58 64 -24 20 c-14 11 -62 42 -107 69 -160 97 -310 248 -370 371 -30
62 -53 145 -41 145 4 0 22 -20 39 -43 47 -66 203 -228 279 -289 147 -120 278
-194 458 -263 205 -78 295 -96 496 -102 228 -7 368 16 562 93 17 6 18 3 11
-32 -27 -146 -143 -424 -223 -536 l-41 -56 -117 39 c-147 50 -388 113 -511
134 -86 15 -95 15 -118 0 -60 -39 -46 -115 24 -135 20 -5 84 -22 142 -36 58
-14 165 -44 239 -66 612 -184 836 -345 819 -587 -11 -143 -96 -248 -225 -276
l-33 -7 17 39 c11 26 17 68 17 131 1 91 0 94 -27 118 -34 29 -60 31 -87 4 -16
-16 -20 -33 -20 -95 0 -83 -14 -128 -52 -163 -23 -21 -26 -21 -74 -7 -27 8
-83 35 -124 61 -238 147 -434 194 -803 194 -418 1 -651 54 -1004 232 -97 48
80 -162 210 -251 129 -88 277 -135 481 -153 195 -18 131 -32 -144 -33 -207 0
-236 2 -362 28 -173 35 -278 65 -437 126 -130 50 -258 108 -265 119 -2 4 -9
51 -16 105 -17 141 -75 328 -115 371 -33 35 -79 35 -102 0 -16 -26 -16 -30 6
-113 42 -155 53 -224 54 -361 3 -266 -74 -454 -245 -598 -78 -66 -148 -99
-245 -118 -249 -47 -476 23 -686 212 -67 60 -99 72 -133 49 -30 -19 -40 -57
-25 -93 24 -58 192 -204 286 -249 l37 -18 -4 -60 c-6 -71 -41 -145 -91 -193
-31 -31 -146 -86 -156 -76 -2 2 5 14 16 27 61 66 71 163 20 200 -27 21 -27 21
-53 1 -15 -10 -35 -43 -46 -71 -20 -54 -62 -99 -104 -109 -33 -8 -107 37 -144
87 -52 72 -60 141 -60 493 0 191 4 335 11 366 12 56 53 111 100 135 42 22 126
28 210 16 96 -15 123 -8 143 33 13 28 13 39 1 94 -8 34 -19 70 -25 79 -22 39
-79 203 -99 283 -41 171 -49 456 -17 610 49 233 137 419 278 581 26 30 48 60
48 66 0 6 -14 13 -30 17 -17 3 -82 31 -145 62 -303 149 -477 441 -463 774 6
138 34 229 103 343 50 82 52 92 29 125 -31 45 -157 18 -271 -58 -244 -164
-375 -461 -343 -778 37 -365 302 -713 645 -848 39 -15 71 -28 73 -30 2 -1 -8
-34 -22 -73 -56 -154 -69 -250 -68 -485 1 -237 26 -365 106 -553 14 -34 26
-64 26 -66 0 -3 -40 -6 -89 -9 -156 -7 -256 -74 -325 -218 l-31 -65 -2 -365
c-2 -201 1 -396 6 -434 36 -261 309 -446 577 -391 175 37 301 165 352 361 l17
65 60 -8 c104 -14 303 -8 370 12 86 25 208 90 266 143 27 24 51 43 52 41 1 -2
13 -26 27 -54 36 -71 133 -166 205 -200 221 -104 488 -15 602 200 41 80 52
122 60 235 3 52 7 96 8 98 2 2 36 -4 76 -13 213 -45 518 -41 739 9 94 22 277
88 358 130 82 42 212 1 466 -147 105 -62 160 -78 286 -84 205 -10 342 48 446
190 53 71 84 165 86 261 l2 71 65 -32 c372 -183 771 66 711 443 -22 140 -118
285 -244 370 -62 42 -214 110 -342 153 -121 40 -341 91 -394 91 -39 0 -43 10
-30 77 13 76 18 111 19 148 1 22 9 35 34 51 146 93 190 124 245 172 163 143
297 366 338 566 18 86 20 247 4 336 -26 143 -98 282 -210 407 l-53 59 2 135
c4 242 -28 398 -124 595 -161 333 -493 595 -850 669 -16 4 -77 9 -135 12
l-105 5 85 -51z m892 -1018 c37 -33 11 -83 -43 -83 -22 0 -32 7 -41 25 -26 57
37 101 84 58z m-651 -1309 c90 -15 89 -14 134 -84 44 -68 97 -116 115 -105 16
10 12 50 -10 107 -11 29 -20 54 -20 55 0 2 15 2 34 0 19 -1 32 -5 30 -8 -2 -3
11 -14 29 -24 96 -51 104 -180 15 -226 -110 -56 -233 15 -317 185 -38 78 -64
148 -43 117 5 -7 20 -15 33 -17z m546 -1018 c366 -77 579 -163 698 -281 77
-75 108 -138 113 -226 8 -142 -85 -253 -225 -269 -29 -3 -53 -4 -53 -1 1 4 9
31 20 61 27 77 27 179 -1 214 -13 17 -30 26 -48 26 -50 0 -62 -19 -71 -107
-13 -125 -43 -169 -110 -160 -64 8 -186 70 -204 104 -18 36 -117 131 -176 170
-57 38 -201 113 -217 113 -19 0 -16 11 13 54 35 51 119 223 135 274 14 49 20
50 126 28z m-2822 -1089 c68 -33 151 -67 345 -141 l35 -14 0 -108 c0 -102 -2
-112 -30 -163 -39 -70 -78 -109 -139 -137 -28 -13 -52 -22 -53 -20 -2 2 5 19
17 38 11 19 23 55 26 80 5 38 3 49 -15 67 -23 23 -73 28 -88 9 -5 -7 -15 -33
-22 -58 -17 -57 -69 -110 -109 -110 -73 0 -147 100 -158 217 -6 55 -3 71 20
122 14 32 38 105 53 160 14 56 29 100 32 99 3 -2 42 -20 86 -41z"/>
<path d="M5943 8808 c-24 -5 -43 -13 -43 -18 0 -5 17 -19 38 -31 227 -138 409
-357 510 -614 55 -139 72 -239 75 -435 l3 -165 47 -95 c60 -123 193 -298 282
-373 124 -106 262 -157 420 -157 458 0 704 494 489 983 -73 166 -178 301 -339
435 -129 108 -190 132 -233 92 -38 -36 -29 -73 30 -122 57 -47 140 -128 176
-172 30 -35 93 -135 96 -150 2 -6 12 -42 24 -80 30 -94 28 -99 -14 -30 -140
233 -308 376 -639 542 -88 44 -214 115 -280 158 -182 117 -235 147 -301 177
-115 51 -259 74 -341 55z"/>
<path d="M1837 7852 c-22 -24 -22 -75 1 -94 27 -25 335 -188 353 -188 31 0 62
35 62 69 0 47 -32 74 -189 156 -151 80 -196 91 -227 57z"/>
<path d="M4955 7817 c-73 -41 -108 -123 -86 -199 28 -93 128 -154 211 -129 98
29 154 127 118 206 -10 22 -16 25 -40 20 -38 -9 -68 2 -77 28 -11 27 3 55 32
67 21 8 21 8 -6 19 -45 18 -108 13 -152 -12z"/>
<path d="M1782 7253 c-11 -10 -23 -30 -26 -45 -12 -53 15 -68 440 -238 220
-88 410 -160 422 -160 33 0 62 35 62 73 0 62 35 45 -535 266 -115 45 -231 90
-257 101 -58 25 -80 25 -106 3z"/>
<path d="M8394 6746 c-32 -23 -36 -75 -8 -102 12 -13 35 -26 50 -30 47 -12
186 -84 261 -136 120 -83 239 -221 307 -356 31 -61 63 -81 101 -64 42 19 52
55 32 110 -36 96 -110 204 -212 307 -116 118 -178 161 -330 228 -124 56 -170
66 -201 43z"/>
<path d="M7683 6489 c-216 -114 -355 -251 -454 -449 -45 -90 -84 -205 -94
-272 -6 -42 -4 -50 18 -72 57 -56 101 -24 136 99 69 246 243 457 469 571 102
51 122 85 81 138 -29 37 -64 33 -156 -15z"/>
<path d="M8030 6059 c-208 -34 -362 -165 -432 -368 -33 -94 -32 -283 0 -389
51 -164 222 -450 406 -681 114 -143 119 -147 144 -129 30 20 162 186 245 306
194 282 285 483 293 650 12 278 -134 504 -378 586 -80 27 -200 38 -278 25z
m206 -347 c129 -66 176 -211 108 -332 -59 -106 -169 -150 -288 -116 -179 52
-232 254 -105 399 65 74 194 96 285 49z"/>
<path d="M1770 5746 c0 -2 7 -9 15 -16 13 -11 14 -10 9 4 -5 14 -24 23 -24 12z"/>
<path d="M1295 5655 l-25 -24 0 -290 0 -290 26 -20 c35 -27 65 -27 92 2 22 23
22 29 22 314 l0 292 -26 20 c-35 27 -59 26 -89 -4z"/>
<path d="M1755 5640 c3 -5 8 -10 11 -10 2 0 4 5 4 10 0 6 -5 10 -11 10 -5 0
-7 -4 -4 -10z"/>
<path d="M1750 5606 c0 -2 8 -10 18 -17 15 -13 16 -12 3 4 -13 16 -21 21 -21
13z"/>
<path d="M1745 5570 c-3 -5 -1 -10 4 -10 6 0 11 5 11 10 0 6 -2 10 -4 10 -3 0
-8 -4 -11 -10z"/>
<path d="M1770 5550 c-8 -5 -10 -10 -5 -10 6 0 17 5 25 10 8 5 11 10 5 10 -5
0 -17 -5 -25 -10z"/>
<path d="M1765 5469 c-11 -16 -1 -19 13 -3 7 8 8 14 3 14 -5 0 -13 -5 -16 -11z"/>
<path d="M1769 5408 c15 -21 31 -23 31 -6 0 6 -3 8 -7 5 -3 -4 -13 -1 -22 6
-14 11 -14 10 -2 -5z"/>
<path d="M1012 5330 c-21 -20 -22 -26 -22 -270 0 -237 1 -251 20 -270 30 -30
83 -27 104 6 15 22 17 54 14 270 l-3 245 -25 19 c-32 25 -61 25 -88 0z"/>
<path d="M1765 5330 c3 -5 8 -10 11 -10 2 0 4 5 4 10 0 6 -5 10 -11 10 -5 0
-7 -4 -4 -10z"/>
<path d="M1749 5306 c6 -7 8 -22 4 -32 -7 -18 -6 -18 11 -1 15 15 16 19 2 32
-18 19 -32 20 -17 1z"/>
<path d="M1775 5230 c10 -11 20 -18 23 -16 5 6 -23 36 -34 36 -4 0 1 -9 11
-20z"/>
<path d="M1796 5184 c-5 -14 -4 -15 9 -4 17 14 19 20 6 20 -5 0 -12 -7 -15
-16z"/>
<path d="M1831 5044 c0 -11 3 -14 6 -6 3 7 2 16 -1 19 -3 4 -6 -2 -5 -13z"/>
<path d="M1846 4945 c4 -8 10 -15 15 -15 4 0 6 7 3 15 -4 8 -10 15 -15 15 -4
0 -6 -7 -3 -15z"/>
<path d="M1880 4920 c-9 -6 -10 -10 -3 -10 6 0 15 5 18 10 8 12 4 12 -15 0z"/>
<path d="M1870 4890 c-8 -5 -10 -10 -5 -10 6 0 17 5 25 10 8 5 11 10 5 10 -5
0 -17 -5 -25 -10z"/>
<path d="M8852 4692 c-15 -15 -61 -67 -102 -115 -41 -49 -112 -118 -158 -154
-98 -77 -108 -93 -91 -134 22 -54 68 -63 127 -25 110 71 209 172 302 310 44
64 46 96 8 129 -29 24 -56 21 -86 -11z"/>
<path d="M7857 4270 c-46 -36 -33 -99 25 -120 18 -6 94 -14 168 -17 157 -7
271 8 302 39 26 26 21 75 -12 100 -23 17 -32 17 -110 7 -81 -11 -282 -7 -325
6 -13 4 -30 -1 -48 -15z"/>
<path d="M6735 4109 c-69 -7 -251 -42 -415 -80 -47 -11 -114 -26 -150 -34 -74
-15 -337 -73 -650 -145 -518 -117 -760 -172 -975 -219 -126 -28 -432 -96 -680
-151 -247 -56 -592 -132 -765 -171 -173 -38 -340 -76 -370 -84 -30 -8 -120
-29 -200 -46 -322 -70 -461 -144 -530 -282 l-30 -60 0 -256 c0 -276 7 -325 53
-404 61 -103 145 -169 587 -467 102 -69 300 -202 440 -297 951 -641 974 -656
1095 -687 140 -35 460 -49 618 -25 78 11 458 91 547 114 48 13 226 56 415 100
33 8 128 31 210 51 83 19 182 42 220 50 39 9 86 19 105 23 19 5 105 25 190 45
85 20 211 50 280 66 69 17 134 32 145 35 11 2 99 22 195 45 96 23 267 61 380
86 113 25 221 49 240 54 19 5 80 19 135 30 55 12 111 25 125 30 14 5 41 11 60
14 19 3 46 8 60 11 14 3 43 10 65 15 22 6 137 32 255 60 118 28 265 62 325 76
410 95 481 119 563 190 52 44 90 108 112 188 14 52 16 102 13 331 -4 302 -8
323 -74 412 -47 63 -114 111 -424 305 -132 83 -481 305 -775 493 -726 464
-717 458 -785 492 -152 77 -390 113 -610 92z m-42 -202 c160 -103 377 -242
394 -252 10 -5 49 -31 88 -57 38 -25 187 -120 330 -211 268 -170 717 -460
1167 -754 297 -194 311 -202 359 -203 75 -1 141 28 198 87 l54 56 -6 -37 c-8
-49 -41 -92 -96 -127 -68 -44 -121 -58 -671 -179 -96 -21 -256 -57 -355 -80
-99 -23 -274 -64 -390 -90 -115 -26 -295 -69 -400 -94 -104 -25 -354 -84 -555
-131 -201 -47 -437 -103 -525 -124 -88 -22 -250 -60 -360 -86 -110 -26 -240
-57 -290 -70 -49 -13 -153 -38 -230 -55 -77 -17 -147 -33 -155 -35 -14 -4 -15
-39 -12 -275 2 -215 0 -271 -10 -274 -7 -2 -28 -7 -45 -10 l-33 -5 0 267 c0
216 -3 272 -14 288 -15 21 -65 55 -486 327 -140 90 -367 238 -505 329 -137 91
-353 232 -478 314 -493 322 -976 644 -982 654 -3 5 2 10 12 10 10 0 106 21
213 46 107 25 247 56 310 69 63 13 165 35 227 50 61 14 151 34 200 44 48 11
261 58 473 106 212 48 423 95 470 105 76 16 387 86 620 140 47 10 155 35 240
54 85 19 247 55 360 81 427 96 775 174 788 174 7 1 49 -23 95 -52z m1325 -533
c349 -221 342 -216 322 -255 -24 -44 -64 -27 -326 139 -334 212 -323 205 -330
225 -9 27 14 47 53 47 27 0 86 -33 281 -156z m-5463 -1066 c209 -140 497 -333
640 -429 746 -500 825 -547 980 -590 69 -20 105 -23 267 -23 103 -1 184 -4
180 -8 -4 -4 -41 -12 -82 -19 -73 -11 -342 -7 -417 7 l-33 6 -2 -166 -3 -166
-40 20 c-22 11 -162 102 -312 202 -150 101 -529 355 -843 565 -587 394 -666
448 -712 491 l-28 26 0 185 c0 150 2 182 13 169 6 -9 183 -131 392 -270z
m1000 -33 c76 -20 156 -65 175 -98 11 -19 12 -33 5 -54 -16 -43 -64 -69 -156
-83 -231 -36 -470 62 -414 170 28 53 102 78 235 79 56 1 120 -5 155 -14z
m4704 -399 c28 -15 51 -53 51 -84 0 -38 -38 -80 -87 -95 -53 -17 -260 -67
-508 -122 -88 -19 -176 -40 -196 -45 -20 -6 -46 -10 -58 -10 -31 0 -81 52 -81
85 0 35 25 82 53 96 24 14 738 186 775 188 13 1 35 -5 51 -13z"/>
<path d="M5913 3707 c-29 -6 -53 -14 -53 -18 0 -5 11 -22 24 -37 83 -94 415
-497 412 -499 -2 -2 -55 -13 -117 -24 -63 -11 -136 -24 -164 -29 -27 -5 -115
-21 -195 -35 -80 -14 -157 -28 -171 -31 -29 -6 -30 -4 -147 216 -56 106 -148
274 -165 301 -10 17 -19 19 -57 14 -25 -4 -48 -10 -52 -14 -4 -4 51 -121 123
-260 72 -139 128 -258 126 -265 -3 -6 -15 -12 -29 -13 -39 -4 -807 -140 -876
-156 l-64 -15 -23 27 c-55 62 -70 79 -120 141 -29 36 -83 120 -121 188 -58
107 -70 123 -88 118 -12 -3 -30 -6 -41 -6 -48 -1 -50 -14 -11 -88 20 -39 36
-77 36 -85 0 -10 -23 -18 -77 -26 -43 -7 -213 -38 -378 -68 -165 -31 -334 -62
-375 -69 -82 -15 -120 -28 -120 -43 0 -5 14 -19 30 -31 40 -29 2 -34 780 115
41 8 100 17 131 21 l56 6 96 -108 c53 -59 95 -109 93 -111 -3 -4 -204 -43
-471 -93 -266 -49 -294 -55 -308 -69 -15 -15 6 -35 54 -51 38 -13 59 -10 307
38 147 29 318 62 380 73 l113 22 55 -54 c30 -29 54 -56 54 -59 0 -3 -82 -20
-183 -38 -100 -19 -249 -47 -332 -64 -82 -16 -154 -31 -160 -32 -16 -3 -35
-17 -35 -25 0 -5 20 -19 44 -32 l44 -23 163 32 c90 18 247 49 349 69 l185 36
90 -52 c50 -29 159 -87 242 -129 84 -42 153 -80 153 -84 0 -4 -17 -15 -37 -24
-68 -30 -493 -269 -493 -276 0 -10 75 -48 93 -48 8 0 133 65 278 145 145 80
274 148 287 151 23 6 52 -4 198 -72 43 -20 170 -76 281 -125 187 -82 396 -183
434 -210 17 -13 94 -5 119 11 12 9 9 15 -20 40 -19 16 -61 44 -92 62 -32 18
-58 36 -58 39 0 6 228 96 455 180 77 28 216 80 308 116 l169 65 121 -120 c133
-130 152 -144 182 -131 11 4 32 8 47 8 15 1 29 5 32 9 2 4 -44 59 -104 122
-59 63 -107 116 -106 117 0 1 84 13 186 27 192 27 295 43 765 121 335 55 325
53 325 64 0 4 -18 21 -39 36 -48 33 -5 37 -566 -56 l-69 -12 -211 216 c-115
119 -221 221 -235 226 -29 10 -80 -11 -80 -33 0 -7 24 -37 53 -67 148 -151
337 -354 337 -361 0 -4 -10 -8 -22 -8 -13 0 -92 -11 -178 -24 -85 -14 -199
-31 -253 -39 l-98 -13 -77 80 c-201 210 -354 389 -341 396 8 5 122 27 254 50
132 23 267 47 300 55 33 7 85 16 115 20 74 9 290 52 297 58 2 3 -15 20 -38 37
-50 36 -29 37 -304 -15 -99 -19 -247 -46 -330 -60 -82 -14 -196 -35 -253 -45
-57 -11 -109 -20 -116 -20 -15 0 -98 101 -94 115 1 6 45 18 98 27 52 9 163 28
245 43 243 42 453 86 473 99 18 11 3 33 -31 50 -28 13 -42 13 -112 0 -44 -8
-159 -28 -255 -44 -96 -17 -209 -37 -250 -44 -41 -8 -115 -22 -164 -31 -78
-15 -91 -15 -100 -3 -34 45 -460 517 -469 520 -7 2 -36 0 -64 -5z m508 -699
l52 -63 -49 -7 c-74 -9 -341 -55 -496 -84 l-137 -26 -56 56 c-56 55 -62 76
-24 76 11 0 104 16 207 35 295 55 395 73 424 74 22 1 38 -11 79 -61z m-819
-145 c43 -43 78 -81 78 -85 0 -4 -39 -40 -87 -80 -172 -143 -318 -271 -348
-305 l-30 -33 -197 99 c-108 55 -214 111 -235 125 -58 37 -200 184 -182 189
15 5 182 35 624 112 227 40 271 48 295 54 2 0 40 -34 82 -76z m1031 -100 c53
-58 95 -108 94 -110 -2 -1 -41 -10 -88 -18 -198 -37 -458 -86 -503 -95 l-48
-10 -97 89 c-53 49 -104 98 -114 109 -18 20 -18 20 15 27 73 16 604 113 624
114 14 1 51 -33 117 -106z m-780 -161 l98 -98 -108 -23 c-321 -70 -353 -83
-302 -123 28 -24 32 -23 334 38 468 95 813 162 871 168 l61 7 69 -71 c38 -39
70 -77 72 -83 3 -12 -32 -28 -247 -109 l-104 -40 -81 80 c-44 44 -91 85 -103
91 -26 13 -83 -4 -83 -26 0 -8 32 -51 70 -95 71 -82 80 -98 57 -98 -7 0 -114
-40 -237 -90 -124 -49 -228 -90 -231 -90 -9 0 -400 166 -546 232 -76 34 -110
55 -105 62 7 13 75 75 197 182 166 145 210 183 215 183 3 1 49 -43 103 -97z"/>
<path d="M5802 3388 c-21 -21 -13 -43 48 -131 78 -112 110 -129 161 -88 l23
19 -26 39 c-14 22 -51 69 -83 106 -44 53 -62 67 -84 67 -15 0 -32 -5 -39 -12z"/>
<path d="M4170 2382 c-13 -10 -19 -23 -15 -33 5 -15 215 -194 306 -262 43 -32
79 -34 105 -6 18 20 18 21 -37 72 -30 29 -90 81 -133 117 -169 141 -182 147
-226 112z"/>
<path d="M5311 1944 c-18 -13 -22 -24 -19 -50 l4 -33 -57 6 c-70 7 -105 -1
-119 -27 -15 -29 -4 -56 28 -68 51 -19 244 -45 295 -39 59 7 91 26 118 70 25
40 18 74 -22 108 -55 48 -180 66 -228 33z"/>
<path d="M2217 2409 c-26 -15 -25 -149 1 -172 28 -25 62 -22 64 6 2 34 -3 120
-8 140 -7 24 -36 37 -57 26z"/>
<path d="M2359 2276 c-8 -17 -9 -43 -3 -83 8 -49 13 -60 37 -71 15 -7 32 -10
37 -7 14 9 12 125 -3 155 -17 35 -54 38 -68 6z"/>
<path d="M2520 2181 c-14 -27 -12 -111 3 -141 9 -18 21 -25 42 -25 l30 0 3 72
c2 62 0 75 -18 93 -25 25 -46 26 -60 1z"/>
<path d="M2684 2064 c-22 -21 -25 -31 -19 -62 8 -45 27 -76 60 -98 23 -15 27
-15 49 0 33 21 41 51 25 98 -12 37 -59 88 -80 88 -6 0 -21 -11 -35 -26z"/>
<path d="M3472 1548 c-7 -7 -12 -39 -12 -74 0 -70 26 -118 58 -107 27 10 32
24 32 94 0 51 -4 70 -18 82 -22 20 -43 22 -60 5z"/>
<path d="M3636 1451 c-25 -28 -22 -141 5 -170 12 -13 30 -21 42 -19 20 3 22
10 25 75 3 76 -6 106 -37 122 -14 8 -22 6 -35 -8z"/>
<path d="M3790 1331 c-5 -11 -10 -44 -10 -75 0 -44 5 -60 24 -83 20 -23 28
-26 43 -17 24 15 30 109 9 158 -17 41 -49 49 -66 17z"/>
<path d="M3952 1248 c-15 -15 -16 -152 -2 -179 13 -23 56 -25 68 -3 14 25 2
156 -16 177 -18 20 -33 22 -50 5z"/>
<path d="M8677 3639 c-30 -23 -37 -73 -14 -101 6 -9 68 -51 137 -93 69 -43
161 -101 205 -129 45 -28 106 -65 137 -81 49 -25 59 -28 82 -17 43 19 51 65
21 113 -9 14 -89 65 -450 287 -70 43 -87 46 -118 21z"/>
</g>
</svg>
