<?xml version="1.0" standalone="no"?>
<!DOCTYPE svg PUBLIC "-//W3C//DTD SVG 20010904//EN"
 "http://www.w3.org/TR/2001/REC-SVG-20010904/DTD/svg10.dtd">
<svg version="1.0" xmlns="http://www.w3.org/2000/svg"
 width="1024.000000pt" height="1024.000000pt" viewBox="0 0 1024.000000 1024.000000"
 preserveAspectRatio="xMidYMid meet">

<g transform="translate(0.000000,1024.000000) scale(0.100000,-0.100000)"
fill="#000000" stroke="none">
<path d="M3065 8323 c-57 -8 -139 -35 -204 -68 -203 -102 -341 -273 -397 -491
l-24 -97 0 -634 c0 -583 -1 -637 -17 -666 -16 -29 -18 -69 -16 -422 1 -325 5
-470 13 -470 1 0 2 -15 3 -33 1 -17 -2 -32 -6 -32 -5 0 -5 -5 -1 -12 11 -17
12 -220 1 -242 -6 -13 -6 -16 2 -12 8 5 9 -4 5 -31 -3 -21 -5 -42 -5 -48 0 -5
2 -44 5 -85 2 -41 5 -313 5 -604 1 -291 3 -527 5 -525 3 2 14 28 26 58 25 64
118 211 163 258 l31 33 4 917 4 917 54 4 54 4 0 -116 c0 -64 3 -116 8 -116 4
0 39 18 77 41 39 23 141 81 228 131 86 49 157 92 157 96 0 15 -146 177 -187
208 -73 55 -143 76 -275 82 l-118 4 0 71 0 70 133 -6 c254 -9 334 -56 549
-317 l37 -45 78 42 c157 83 290 108 417 79 87 -21 143 -51 236 -129 l75 -63 6
-79 c3 -44 10 -91 14 -105 7 -24 7 -24 -11 -9 -267 227 -305 249 -427 249 -88
0 -151 -19 -246 -72 l-61 -35 137 -164 c272 -328 293 -358 293 -429 0 -22 3
-40 7 -40 3 0 99 35 212 79 113 43 224 84 246 91 22 7 61 24 88 37 39 19 56
22 96 17 86 -11 190 19 282 82 44 30 97 63 119 74 l39 20 -4 -82 -4 -82 -73
-28 c-40 -16 -136 -50 -213 -77 -180 -63 -460 -165 -645 -234 l-145 -55 0
-104 0 -103 100 -1 c156 -3 250 -47 337 -158 79 -101 82 -114 88 -436 l5 -285
293 -3 292 -2 0 495 0 494 31 16 c17 9 32 15 33 13 26 -35 94 -178 86 -183 -7
-4 -10 -198 -10 -566 l0 -560 -67 3 -68 3 -3 73 -3 72 -289 0 -289 0 -3 -72
-3 -73 -67 -3 -67 -3 -3 408 c-3 390 -4 410 -24 454 -28 60 -78 115 -128 142
-32 16 -64 22 -143 25 l-103 4 0 -364 0 -363 51 -70 c66 -90 113 -187 142
-298 l23 -87 551 -3 c303 -1 553 -4 556 -7 2 -3 0 -33 -6 -67 l-11 -63 -543 0
-543 0 -4 -22 c-3 -13 -8 -56 -11 -95 l-6 -73 564 0 565 0 6 -31 c12 -62 72
-165 133 -230 105 -110 224 -155 349 -129 32 7 64 14 70 17 6 2 19 -16 28 -41
23 -60 83 -125 147 -161 49 -27 63 -30 144 -30 80 0 97 3 148 30 67 33 144
112 175 177 18 40 27 47 89 71 82 32 171 100 219 167 20 28 37 50 39 50 2 0
30 -7 62 -16 32 -8 96 -15 141 -16 l84 0 -57 -50 c-139 -124 -154 -314 -33
-424 22 -20 59 -44 82 -55 72 -33 235 -22 315 21 24 12 16 40 71 -250 56 -300
63 -315 165 -362 43 -20 66 -23 170 -23 113 0 123 2 180 30 84 42 109 81 100
158 l-6 57 60 0 c33 0 63 -4 66 -10 3 -5 8 -31 12 -58 9 -77 -40 -152 -128
-197 -91 -48 45 -46 -2891 -47 l-2748 -1 0 -102 0 -102 325 -5 c179 -3 1426
-3 2772 -1 2686 4 2536 1 2672 64 117 54 186 126 222 232 l18 52 1 -70 c0
-149 -106 -267 -295 -328 -150 -49 -36 -47 -2970 -47 -2734 0 -2743 0 -2748
-20 -7 -28 -70 -28 -90 0 -11 17 -32 22 -113 30 -160 15 -294 68 -380 152 -68
64 -104 172 -85 248 8 30 9 31 10 9 2 -44 51 -127 104 -175 96 -86 250 -144
384 -144 l73 0 0 99 0 98 -73 12 c-93 15 -183 57 -225 106 -44 50 -54 78 -46
137 7 50 23 68 63 68 11 0 56 11 100 25 104 33 173 92 196 168 31 103 88 363
92 418 4 54 3 58 -32 93 -26 27 -55 42 -110 58 -41 12 -75 27 -75 33 1 22 39
93 69 127 17 19 56 46 87 59 54 24 55 25 50 59 -4 19 -9 61 -13 93 -3 31 -9
57 -13 57 -3 0 -31 -7 -61 -16 -144 -43 -286 -152 -335 -259 -14 -31 -38 -100
-53 -153 -16 -53 -60 -207 -100 -342 -140 -476 -151 -516 -166 -585 -20 -97
-20 -319 1 -404 17 -69 55 -153 82 -184 14 -16 14 -19 2 -27 -12 -8 -10 -10 9
-10 13 0 21 -3 18 -7 -4 -3 1 -16 10 -27 18 -21 18 -21 -3 -4 -24 21 -41 24
-26 5 6 -7 9 -23 5 -35 -5 -23 12 -32 19 -10 3 9 6 9 12 0 4 -7 2 -12 -3 -12
-6 0 -11 -5 -11 -11 0 -6 6 -9 12 -6 54 22 54 22 38 2 -14 -17 -13 -18 14 -11
27 7 28 6 15 -10 -11 -14 -11 -18 -1 -22 7 -2 19 -10 26 -18 25 -25 30 -15 6
11 -18 19 -20 25 -8 25 9 0 19 -7 22 -16 5 -13 9 -14 20 -5 11 9 16 9 22 0 4
-8 3 -9 -4 -5 -7 4 -12 1 -12 -7 0 -22 12 -28 28 -14 13 10 14 8 8 -11 -5 -13
-3 -22 3 -22 6 0 11 7 11 15 0 8 8 15 18 15 13 0 14 -2 3 -9 -11 -7 -11 -10 0
-17 7 -4 14 -3 17 4 2 7 8 10 13 7 20 -13 217 -15 1729 -14 872 0 1592 0 1600
0 15 -1 117 -1 135 0 6 0 568 0 1250 0 1266 0 1364 1 1384 13 6 4 15 5 20 1 5
-3 17 2 26 11 14 15 17 14 37 -7 18 -21 20 -22 14 -4 -3 11 -1 27 4 35 8 12
10 10 10 -10 1 -24 2 -24 10 -4 10 25 30 41 30 25 0 -6 -5 -11 -11 -11 -5 0
-7 -5 -3 -11 5 -8 9 -7 14 1 5 7 16 10 25 6 16 -6 16 -5 2 18 -9 13 -13 26
-10 30 11 11 43 6 43 -6 1 -8 6 -6 14 5 8 10 13 33 11 50 -2 18 -1 26 2 20 7
-20 22 -15 16 5 -2 10 12 46 32 81 74 126 102 253 91 416 -8 123 -13 145 -116
525 -45 168 -104 388 -131 489 -27 101 -61 207 -76 235 -43 80 -136 166 -231
211 -77 38 -81 42 -82 73 0 46 -28 175 -52 245 -11 33 -16 62 -12 66 5 4 34
18 64 31 76 31 133 72 211 149 175 174 259 396 246 649 -9 187 -73 334 -190
437 -102 90 -245 138 -302 101 -32 -21 -32 -48 -1 -147 66 -205 52 -404 -42
-584 -45 -85 -131 -178 -206 -224 l-57 -34 -30 29 c-52 49 -110 122 -114 143
-2 12 -6 25 -9 30 -3 4 -1 22 4 40 5 17 5 31 0 31 -5 0 -5 13 0 29 4 16 6 31
4 34 -8 8 -9 347 0 347 5 0 4 6 -3 13 -8 10 -7 17 2 26 7 7 8 14 2 19 -12 8
-15 53 -3 46 4 -3 8 -1 8 5 0 5 -4 12 -8 15 -10 6 -9 36 1 53 4 6 3 15 -3 18
-8 5 -8 11 0 20 8 9 8 15 0 20 -6 3 -7 12 -3 18 8 13 11 197 3 197 -3 0 -6 9
-6 20 0 11 3 20 6 20 3 0 4 92 2 204 l-3 203 50 7 c27 3 80 22 118 41 259 130
326 437 152 705 l-41 63 29 23 c46 39 144 81 216 93 37 7 72 9 77 6 10 -6 50
29 50 44 0 26 -34 41 -94 41 -102 0 -226 -46 -301 -111 l-35 -31 -41 37 c-56
50 -180 129 -245 155 l-52 22 -5 396 c-4 443 -7 460 -76 606 -77 164 -194 283
-356 361 -165 80 -30 75 -1987 74 -959 -1 -1756 -4 -1773 -6z m1092 -256 c16
-60 89 -139 161 -174 l57 -28 528 -3 c359 -2 545 0 582 8 99 21 187 103 217
202 l11 38 309 0 308 0 0 -341 c0 -319 1 -340 18 -335 9 2 161 48 337 101 176
53 328 98 338 101 16 5 18 -1 15 -67 l-3 -73 -125 -41 c-69 -22 -167 -53 -219
-69 l-93 -29 3 -194 4 -195 -62 -23 c-35 -12 -63 -22 -63 -21 0 0 -3 87 -6
191 -3 105 -8 192 -10 194 -2 2 -34 -5 -71 -16 -38 -12 -160 -49 -273 -83
-113 -34 -209 -66 -214 -70 -5 -5 25 -86 68 -183 42 -95 76 -179 76 -185 0 -8
-21 -12 -60 -12 -33 0 -63 -1 -67 -1 -5 -1 -42 74 -84 167 -48 105 -82 169
-90 168 -30 -3 -826 -257 -862 -276 -47 -24 -26 -37 -272 168 -105 88 -225
187 -268 222 l-77 62 -33 -36 c-144 -164 -200 -263 -200 -352 -1 -129 33 -180
220 -337 l131 -109 -29 -41 c-64 -87 -52 -83 -111 -34 -250 206 -301 265 -333
383 -27 99 -18 233 22 317 34 72 94 156 172 242 60 65 61 62 -22 125 -101 78
-201 110 -282 92 -48 -11 -74 -27 -630 -395 -258 -172 -480 -317 -493 -324
l-23 -12 3 82 3 82 162 111 c89 61 273 182 408 270 135 87 255 166 268 177 22
18 13 18 -411 19 l-433 0 3 68 3 67 468 3 467 2 0 220 0 220 273 0 273 0 11
-43z m-1116 -88 c27 -14 38 -48 27 -81 -17 -48 -89 -50 -110 -3 -26 58 28 114
83 84z m247 -6 c31 -28 35 -56 11 -86 -37 -48 -109 -26 -109 35 0 32 31 68 59
68 10 0 28 -8 39 -17z m-51 -1098 c15 -19 33 -35 38 -35 6 0 26 16 44 35 37
40 64 42 69 6 3 -16 -7 -34 -29 -57 l-33 -34 33 -34 c60 -62 17 -105 -45 -45
l-34 33 -33 -32 c-67 -65 -116 -27 -51 39 l38 39 -32 33 c-40 42 -43 87 -6 87
7 0 26 -16 41 -35z m3820 -14 c333 -86 600 -320 634 -556 17 -125 -17 -231
-102 -310 -89 -83 -195 -116 -312 -95 -81 15 -142 48 -198 107 -65 67 -93 121
-129 248 -51 175 -106 257 -215 313 -67 35 -188 38 -250 6 -60 -31 -56 -52 16
-94 133 -76 258 -217 340 -385 75 -155 94 -244 94 -455 0 -163 -2 -181 -28
-270 -55 -183 -107 -283 -215 -412 -128 -153 -261 -238 -454 -289 -111 -30
-325 -32 -443 -5 -151 34 -346 145 -447 255 -110 119 -212 306 -250 456 -19
76 -22 116 -22 260 1 185 13 264 60 383 50 125 113 221 213 321 106 105 107
106 26 156 -45 28 -55 30 -149 30 -95 0 -106 -2 -171 -34 -109 -53 -207 -158
-273 -292 -29 -58 -52 -111 -52 -118 0 -7 -18 -49 -39 -94 -97 -202 -246 -284
-338 -184 -35 39 -63 119 -63 182 0 105 52 224 158 360 197 255 433 404 689
435 179 22 353 -34 451 -145 l40 -46 53 21 c29 12 82 28 117 36 79 18 285 20
370 4 l61 -12 51 55 c75 82 210 147 376 182 97 20 295 13 401 -14z m106 -1612
c-8 -7 -197 -69 -212 -69 -5 0 0 24 11 53 39 100 37 98 123 127 l80 27 3 -65
c2 -36 -1 -68 -5 -73z m843 -165 c52 -29 128 -113 160 -175 62 -124 82 -309
48 -462 -33 -150 -146 -325 -273 -420 -53 -40 -187 -106 -194 -96 -25 31 -147
200 -147 203 0 2 22 18 50 36 83 53 192 178 238 272 58 117 73 183 79 338 4
114 2 148 -15 220 -11 47 -24 93 -28 104 -6 16 -4 17 17 11 13 -4 43 -18 65
-31z m-1012 -383 c114 -148 193 -243 460 -561 186 -220 235 -294 277 -418 31
-91 33 -106 33 -232 0 -122 -2 -142 -27 -215 -16 -43 -49 -110 -74 -147 -51
-78 -178 -210 -244 -255 -42 -29 -142 -83 -154 -83 -3 0 -5 16 -5 35 0 42 20
94 43 114 26 21 22 59 -8 67 -57 14 -114 -66 -123 -174 l-5 -63 -31 7 c-44 9
-46 11 -46 48 0 51 28 132 57 167 31 36 23 62 -19 67 -31 4 -77 -47 -97 -105
-30 -91 -34 -98 -42 -77 -14 35 -9 118 10 159 24 53 108 128 136 121 11 -2 39
-11 63 -18 49 -14 75 -4 80 31 5 30 -10 46 -58 60 -49 15 -135 99 -164 161
-17 37 -21 64 -21 150 0 99 2 110 32 171 31 62 79 115 147 162 28 19 34 45 14
65 -44 44 -181 -56 -241 -175 -32 -61 -57 -157 -57 -213 0 -30 -4 -41 -12 -38
-7 3 -37 13 -65 22 -29 10 -53 20 -53 23 0 2 15 32 34 66 72 131 138 381 121
458 -7 32 -46 49 -69 30 -7 -6 -19 -53 -26 -104 -31 -229 -135 -427 -372 -704
-94 -111 -111 -139 -138 -224 -20 -68 -75 -150 -111 -170 -18 -9 -26 -6 -56
23 -45 43 -79 101 -94 161 -9 37 -17 49 -35 53 -32 8 -54 -12 -54 -47 0 -48
37 -138 80 -195 46 -61 41 -65 -47 -39 -117 35 -186 180 -162 339 17 106 56
182 182 347 145 192 211 308 256 454 28 89 27 113 -3 127 -38 17 -54 4 -72
-59 -32 -110 -127 -303 -150 -303 -6 0 -42 26 -80 58 -63 52 -108 111 -189
244 -16 25 -27 33 -49 33 -16 0 -34 -7 -40 -17 -16 -26 56 -165 131 -253 l60
-71 -74 -63 c-67 -56 -76 -61 -91 -48 -48 42 -125 60 -150 35 -25 -25 -13 -47
41 -74 28 -14 67 -38 86 -51 73 -56 118 -173 72 -188 -11 -3 -49 -1 -85 6 -78
13 -96 8 -96 -25 0 -32 39 -53 114 -62 52 -6 56 -9 50 -28 -24 -75 -34 -81
-113 -66 -34 6 -72 23 -103 46 -61 43 -92 43 -96 -2 -3 -26 3 -37 37 -63 57
-45 117 -69 184 -73 31 -1 57 -6 57 -9 0 -14 -90 -31 -133 -25 -138 19 -236
113 -292 281 -21 62 -26 96 -26 171 1 136 22 211 107 385 125 255 156 349 169
514 11 137 1 129 102 85 116 -51 184 -68 307 -76 244 -16 497 64 683 216 32
27 87 87 123 134 51 68 67 83 78 74 7 -7 64 -77 126 -157z m-1031 -1098 c3 -5
-10 -27 -28 -50 l-32 -42 -25 38 -25 39 25 25 c24 24 27 25 53 11 15 -7 30
-17 32 -21z m1998 -435 c34 -66 32 -68 -86 -68 -87 0 -103 2 -99 14 3 8 17 16
31 18 36 4 54 35 31 52 -15 11 -16 18 -7 47 6 19 13 40 15 48 6 19 89 -61 115
-111z m-5742 -262 c10 -11 8 -29 -8 -83 -11 -37 -29 -108 -41 -158 -23 -99
-40 -125 -82 -125 -23 0 -28 4 -28 24 0 33 79 306 96 334 16 25 46 29 63 8z
m5730 -144 c34 -25 36 -37 12 -61 -30 -30 -137 -30 -175 0 -34 27 -33 45 7 70
39 24 117 20 156 -9z m406 -1311 c3 -5 1 -12 -4 -15 -5 -3 -11 1 -15 9 -6 16
9 21 19 6z"/>
<path d="M3730 7852 l0 -189 98 0 c160 0 263 -46 447 -200 201 -168 333 -270
341 -265 11 8 252 284 273 313 7 10 18 19 24 19 13 0 97 -69 97 -79 0 -5 -65
-87 -145 -182 l-145 -174 52 -48 c100 -90 59 -92 390 16 161 53 347 112 413
132 66 21 124 41 129 45 5 5 -13 57 -42 122 -28 62 -60 138 -72 168 -12 30
-38 92 -57 138 l-35 82 -548 0 c-328 0 -569 4 -601 10 -123 23 -238 111 -292
223 l-28 57 -149 0 -150 0 0 -188z"/>
<path d="M5815 8031 c-3 -6 -12 -28 -20 -51 -21 -61 -71 -127 -118 -157 -23
-15 -44 -28 -46 -30 -2 -1 26 -69 62 -150 37 -82 86 -195 110 -253 24 -58 48
-104 53 -104 5 1 82 23 172 49 l162 48 0 329 0 328 -184 0 c-105 0 -187 -4
-191 -9z"/>
<path d="M5484 6090 c-42 -13 -78 -53 -69 -79 9 -28 39 -35 74 -17 38 20 56
20 92 -1 34 -20 62 -10 67 24 3 23 -49 73 -76 73 -9 0 -26 2 -37 4 -11 3 -34
1 -51 -4z"/>
<path d="M6351 6087 c-45 -16 -80 -61 -65 -85 16 -24 41 -27 79 -6 32 17 36
17 76 1 41 -16 44 -16 62 2 52 52 -63 119 -152 88z"/>
<path d="M5473 5820 c-74 -45 -84 -148 -20 -207 65 -59 143 -53 194 14 51 67
29 156 -48 195 -44 23 -86 23 -126 -2z"/>
<path d="M6332 5820 c-70 -43 -80 -145 -21 -206 56 -57 127 -58 184 -1 42 42
52 95 28 145 -37 75 -123 103 -191 62z"/>
<path d="M5867 5599 c-49 -26 -77 -72 -77 -128 0 -38 5 -49 44 -87 24 -25 53
-44 65 -44 33 0 30 -78 -4 -119 -34 -40 -103 -66 -152 -56 -70 13 -133 101
-133 186 0 26 -27 59 -48 59 -42 0 -55 -88 -25 -175 28 -85 136 -165 219 -165
18 0 22 -7 27 -55 11 -108 79 -195 164 -211 51 -10 113 13 153 55 38 40 70
121 70 176 0 32 1 33 50 40 112 15 192 109 206 241 5 49 3 64 -11 77 -9 9 -23
17 -30 17 -22 0 -45 -30 -45 -58 0 -48 -20 -102 -51 -137 -85 -96 -249 -44
-266 84 -5 35 -3 39 26 51 17 7 45 28 61 47 58 66 29 173 -56 209 -49 21 -141
17 -187 -7z m147 -49 c14 -5 26 -15 26 -23 0 -9 -20 -13 -75 -13 -41 0 -75 4
-75 8 0 14 45 38 72 38 14 0 38 -4 52 -10z m66 -494 c1 -90 -46 -166 -102
-166 -56 0 -109 81 -108 165 1 23 9 35 35 52 l35 22 0 -75 c0 -83 11 -114 40
-114 26 0 44 67 37 141 l-5 57 34 -22 c28 -18 33 -27 34 -60z"/>
<path d="M7782 7568 c-7 -7 -12 -39 -12 -75 l0 -62 -71 -3 c-75 -3 -99 -17
-86 -52 5 -13 21 -16 82 -16 l75 0 0 -56 c0 -67 13 -94 44 -94 30 0 36 16 36
91 l0 59 68 0 c70 0 92 10 92 41 0 23 -20 29 -96 29 l-64 0 0 63 c0 64 -11 87
-40 87 -9 0 -21 -5 -28 -12z"/>
<path d="M8472 6627 c-12 -14 -18 -219 -8 -236 9 -15 49 -14 64 1 15 15 16
201 2 229 -12 22 -42 25 -58 6z"/>
<path d="M1847 6374 c-4 -4 -7 -38 -7 -76 l0 -68 -62 0 c-71 0 -104 -19 -87
-51 8 -16 21 -19 79 -19 l70 0 0 -69 c0 -75 13 -98 50 -86 17 5 20 15 20 68 0
34 4 67 8 74 4 7 36 13 72 15 60 3 65 5 68 27 5 32 -12 41 -85 41 l-62 0 -3
73 c-3 69 -4 72 -28 75 -14 2 -29 0 -33 -4z"/>
<path d="M8375 6220 c-48 -65 -107 -106 -207 -141 -43 -15 -99 -40 -124 -54
-76 -45 -210 -247 -187 -283 5 -9 21 -17 34 -17 24 0 45 25 112 130 35 55 100
104 174 130 137 50 208 96 265 175 36 49 42 75 23 94 -28 27 -52 18 -90 -34z"/>
<path d="M3290 5936 c-19 -13 -127 -75 -240 -138 -113 -64 -222 -125 -242
-138 l-38 -22 0 -154 0 -154 434 0 c238 0 461 3 495 7 l62 6 -6 51 c-7 55 -22
78 -130 201 -34 39 -115 136 -179 218 -65 81 -118 147 -119 146 -1 0 -18 -11
-37 -23z"/>
<path d="M7700 5562 c-36 -37 -92 -83 -125 -103 -61 -36 -76 -59 -55 -84 19
-22 50 -18 108 15 60 35 188 152 197 182 8 23 -20 58 -44 58 -9 -1 -45 -31
-81 -68z"/>
<path d="M2770 4744 c0 -245 3 -444 8 -442 4 2 40 20 80 41 79 41 215 82 303
92 l57 6 4 142 c3 134 5 146 35 209 76 162 211 238 426 238 l67 0 0 80 0 80
-490 0 -490 0 0 -446z"/>
<path d="M3526 4865 c-56 -20 -107 -65 -136 -121 -22 -43 -25 -63 -28 -180
l-4 -131 50 -7 c95 -12 305 -100 327 -136 20 -32 25 27 25 296 l0 294 -97 0
c-57 -1 -114 -7 -137 -15z"/>
<path d="M3155 4294 c-122 -20 -255 -75 -345 -142 -69 -52 -165 -170 -208
-255 -54 -110 -67 -174 -67 -337 0 -124 3 -156 23 -220 54 -170 154 -326 420
-650 126 -154 261 -300 275 -299 21 1 313 345 465 548 194 257 260 432 249
660 -9 203 -70 343 -212 486 -137 138 -288 205 -470 210 -55 2 -113 1 -130 -1z
m212 -480 c151 -73 209 -261 122 -395 -123 -192 -400 -177 -495 26 -57 121 -9
287 103 356 87 54 178 58 270 13z"/>
<path d="M8342 3888 c-7 -7 -12 -40 -12 -80 l0 -68 -70 0 c-60 0 -71 -3 -80
-21 -19 -35 3 -49 81 -49 l69 0 0 -63 c0 -52 4 -67 20 -82 19 -17 22 -18 37
-2 11 11 18 39 21 82 l4 65 64 0 c50 0 65 4 73 18 6 11 6 24 0 35 -8 14 -24
17 -79 17 l-70 0 0 68 c0 65 -10 92 -35 92 -6 0 -16 -5 -23 -12z"/>
<path d="M1695 3838 c-2 -13 -6 -45 -7 -73 l-3 -50 -67 -3 c-56 -2 -70 -6 -79
-23 -18 -35 5 -49 82 -49 l69 0 0 -64 c0 -61 14 -96 39 -96 24 0 41 40 41 98
l0 62 59 0 c41 0 65 5 75 16 35 34 8 54 -71 54 l-63 0 0 56 c0 68 -13 94 -45
94 -17 0 -26 -7 -30 -22z"/>
<path d="M2405 3248 c-24 -13 -85 -69 -85 -78 0 -4 34 -24 75 -44 145 -72 153
-105 91 -386 -55 -255 -76 -311 -134 -361 -44 -39 -139 -85 -209 -100 -53 -12
-58 -18 -53 -64 2 -27 56 -82 105 -108 54 -29 183 -31 235 -3 85 45 104 79
135 240 12 66 39 207 59 312 l37 190 -68 110 c-37 60 -88 153 -113 207 -25 53
-47 97 -50 97 -3 -1 -14 -6 -25 -12z"/>
<path d="M4024 3195 c-7 -19 -14 -37 -14 -40 0 -3 253 -4 561 -3 530 3 562 4
573 21 9 15 7 22 -13 38 -22 18 -44 19 -558 19 l-534 0 -15 -35z"/>
<path d="M4216 2892 c-20 -23 -12 -50 18 -57 11 -3 225 -4 475 -3 420 3 455 4
465 21 8 12 8 22 0 35 -10 16 -46 17 -476 20 -443 2 -466 1 -482 -16z"/>
<path d="M5975 2603 c-474 -14 -879 -85 -962 -169 -134 -132 168 -227 842
-265 439 -24 1044 24 1279 102 288 96 126 241 -329 293 -242 28 -617 46 -830
39z"/>
<path d="M4016 2584 c-20 -20 -20 -27 2 -47 16 -15 54 -17 326 -17 313 0 346
4 346 38 0 41 -12 42 -341 42 -275 0 -320 -2 -333 -16z"/>
<path d="M3025 2373 c-97 -13 -185 -64 -185 -108 0 -87 255 -143 539 -117 234
21 334 87 252 166 -52 50 -223 85 -251 51 -27 -32 -8 -49 73 -66 83 -18 92
-22 83 -37 -11 -19 -210 -43 -233 -29 -6 4 -14 3 -17 -2 -15 -24 -326 13 -326
39 0 5 35 16 78 26 91 20 99 25 84 59 -12 26 -23 28 -97 18z"/>
<path d="M4119 2291 c-20 -16 -22 -23 -13 -38 10 -17 33 -18 289 -21 196 -2
282 1 291 9 23 19 16 49 -12 59 -14 6 -138 10 -279 10 -235 0 -254 -1 -276
-19z"/>
<path d="M1687 1543 c-4 -3 -7 -11 -7 -17 0 -6 5 -5 12 2 6 6 9 14 7 17 -3 3
-9 2 -12 -2z"/>
<path d="M8401 1531 c-19 -12 -4 -51 19 -51 10 0 22 5 26 12 4 7 3 8 -4 4 -8
-5 -12 0 -12 13 0 24 -11 33 -29 22z m19 -27 c0 -8 -5 -12 -10 -9 -6 4 -8 11
-5 16 9 14 15 11 15 -7z"/>
<path d="M8446 1527 c3 -10 9 -15 12 -12 3 3 0 11 -7 18 -10 9 -11 8 -5 -6z"/>
<path d="M1710 1520 c0 -5 5 -10 10 -10 6 0 10 5 10 10 0 6 -4 10 -10 10 -5 0
-10 -4 -10 -10z"/>
<path d="M1730 1490 c0 -5 5 -10 10 -10 6 0 10 5 10 10 0 6 -4 10 -10 10 -5 0
-10 -4 -10 -10z"/>
<path d="M8380 1460 c0 -5 5 -10 11 -10 5 0 7 5 4 10 -3 6 -8 10 -11 10 -2 0
-4 -4 -4 -10z"/>
<path d="M1720 1445 c0 -8 5 -15 10 -15 6 0 10 7 10 15 0 8 -4 15 -10 15 -5 0
-10 -7 -10 -15z"/>
<path d="M8386 1427 c3 -10 9 -15 12 -12 3 3 0 11 -7 18 -10 9 -11 8 -5 -6z"/>
<path d="M1792 1409 c2 -7 10 -15 17 -17 8 -3 12 1 9 9 -2 7 -10 15 -17 17 -8
3 -12 -1 -9 -9z"/>
<path d="M8321 1403 c7 -12 15 -20 18 -17 3 2 -3 12 -13 22 -17 16 -18 16 -5
-5z"/>
<path d="M1510 1381 c-16 -31 -12 -51 14 -62 30 -14 72 -5 80 17 4 9 -1 27 -9
40 -20 30 -70 33 -85 5z"/>
<path d="M8516 1384 c-30 -30 -13 -74 29 -74 26 0 65 27 65 45 0 21 -29 45
-55 45 -13 0 -31 -7 -39 -16z"/>
<path d="M1825 1370 c3 -5 10 -10 16 -10 5 0 9 5 9 10 0 6 -7 10 -16 10 -8 0
-12 -4 -9 -10z"/>
<path d="M1780 1359 c0 -5 5 -7 10 -4 6 3 10 8 10 11 0 2 -4 4 -10 4 -5 0 -10
-5 -10 -11z"/>
<path d="M1860 1350 c0 -5 5 -10 11 -10 5 0 7 5 4 10 -3 6 -8 10 -11 10 -2 0
-4 -4 -4 -10z"/>
<path d="M1915 1340 c-3 -5 -1 -10 4 -10 6 0 11 5 11 10 0 6 -2 10 -4 10 -3 0
-8 -4 -11 -10z"/>
</g>
</svg>
