<?xml version="1.0" standalone="no"?>
<!DOCTYPE svg PUBLIC "-//W3C//DTD SVG 20010904//EN"
 "http://www.w3.org/TR/2001/REC-SVG-20010904/DTD/svg10.dtd">
<svg version="1.0" xmlns="http://www.w3.org/2000/svg"
 width="1024.000000pt" height="1024.000000pt" viewBox="0 0 1024.000000 1024.000000"
 preserveAspectRatio="xMidYMid meet">

<g transform="translate(0.000000,1024.000000) scale(0.100000,-0.100000)"
fill="#000000" stroke="none">
<path d="M7658 8630 c-112 -20 -229 -113 -287 -227 -91 -181 -51 -456 105
-724 59 -101 93 -139 125 -139 67 0 334 225 435 366 123 173 145 350 61 509
-87 164 -258 248 -439 215z m192 -239 c117 -70 121 -233 7 -325 -31 -25 -49
-31 -102 -34 -56 -4 -70 -1 -109 22 -160 93 -127 312 54 367 40 11 101 -1 150
-30z"/>
<path d="M7688 8315 c-35 -20 -48 -44 -48 -93 0 -103 145 -134 194 -41 48 88
-57 184 -146 134z"/>
<path d="M4447 7972 c-14 -15 -16 -64 -19 -379 l-3 -361 -53 -104 c-30 -60
-104 -174 -177 -273 -330 -448 -496 -723 -568 -941 -63 -193 -76 -426 -31
-580 14 -49 29 -93 35 -98 5 -6 9 -14 9 -18 0 -5 -154 -7 -342 -6 l-343 3 -3
116 -3 116 48 12 c65 17 120 50 177 109 56 58 83 100 107 167 31 87 33 154 9
242 -38 138 -104 222 -220 277 -60 29 -73 31 -171 31 -101 0 -108 -1 -181 -38
-151 -74 -231 -210 -230 -390 1 -118 32 -195 110 -279 55 -59 112 -94 190
-117 l57 -17 -2 -65 c-1 -35 -2 -88 -2 -116 l-1 -53 -64 0 c-73 0 -89 -12 -84
-62 l3 -33 506 -5 506 -5 42 -38 c66 -60 138 -102 323 -188 246 -114 365 -179
507 -276 106 -72 213 -153 231 -174 3 -3 57 -47 120 -98 129 -103 256 -172
363 -196 54 -12 119 -15 305 -13 252 3 277 0 414 -52 216 -81 444 -351 564
-667 26 -71 77 -254 71 -259 -9 -9 -1457 -364 -1484 -364 -30 0 -127 24 -538
130 -720 186 -952 241 -995 236 -25 -4 -349 -82 -720 -175 -371 -93 -677 -167
-680 -164 -3 3 -5 920 -5 2040 l0 2035 610 153 c336 84 653 165 705 179 122
33 155 33 303 -5 190 -49 259 -44 355 28 36 27 82 109 82 147 0 19 -7 26 -32
31 -18 4 -132 32 -253 62 -349 86 -276 92 -1005 -87 -338 -84 -671 -166 -740
-182 -69 -16 -145 -37 -169 -45 -56 -20 -124 -82 -151 -138 l-21 -44 0 -2204
c-1 -2160 0 -2206 19 -2249 40 -90 119 -135 220 -126 31 3 125 22 207 43 83
20 366 90 630 155 606 150 623 153 705 145 36 -4 171 -34 300 -67 129 -32 379
-95 555 -139 176 -44 367 -92 425 -107 167 -43 237 -38 510 30 124 31 275 69
335 83 61 14 209 50 330 80 579 141 552 138 711 103 66 -14 254 -60 419 -102
828 -209 876 -220 965 -220 95 -1 128 11 179 66 66 70 62 -95 59 2323 l-3
2190 -22 41 c-53 98 -101 130 -243 158 -47 9 -146 32 -220 51 -165 42 -163 43
-154 -84 11 -163 24 -177 200 -220 l119 -29 3 -2056 2 -2056 -27 6 c-37 8
-496 124 -693 175 -227 59 -494 131 -498 134 -2 2 -12 41 -22 87 -43 192 -143
449 -231 596 -196 326 -439 519 -749 594 -70 17 -109 20 -220 17 -74 -2 -180
-3 -235 -3 -165 1 -245 36 -443 198 -258 211 -447 329 -764 478 -287 135 -341
175 -401 297 -31 64 -32 70 -32 196 0 108 4 142 23 204 30 93 101 254 155 346
61 105 247 384 335 502 73 99 78 104 107 99 17 -4 73 -9 126 -12 82 -6 108 -3
166 15 39 11 82 30 97 42 l27 22 -69 33 c-49 24 -87 52 -129 97 -106 114 -134
201 -133 426 0 85 2 156 4 159 3 2 121 -12 263 -33 355 -52 354 -52 369 -30
17 23 7 42 -58 114 -26 30 -48 60 -48 66 0 7 27 35 60 64 63 55 70 70 45 91
-9 7 -133 30 -278 51 -387 57 -350 46 -359 99 -11 66 -64 93 -101 52z m-1379
-1854 c21 -21 14 -66 -14 -84 -24 -16 -27 -16 -52 3 -34 25 -39 49 -16 74 19
21 64 25 82 7z m-247 -277 c35 -35 39 -44 39 -90 0 -48 -1 -51 -19 -41 -28 15
-111 112 -111 130 0 20 19 40 38 40 8 0 32 -17 53 -39z m247 -22 c3 -19 -84
-119 -104 -119 -33 0 -6 106 33 129 25 15 67 9 71 -10z"/>
<path d="M6635 7529 c-16 -5 -340 -86 -720 -181 l-690 -172 -125 0 c-178 0
-275 31 -370 120 -26 24 -53 44 -60 44 -21 0 -5 -76 34 -154 69 -139 180 -245
314 -297 47 -19 76 -23 162 -23 92 1 126 6 280 47 96 25 292 75 435 112 143
36 389 100 546 141 157 41 294 74 305 74 10 0 128 -25 261 -56 272 -64 282
-64 321 4 38 67 75 184 62 192 -14 9 -464 125 -542 141 -78 15 -179 19 -213 8z"/>
<path d="M7491 7314 c-16 -20 -21 -41 -21 -86 0 -64 9 -88 48 -130 33 -36 105
-39 146 -7 42 33 69 95 63 142 -7 48 -16 55 -122 84 -100 27 -90 28 -114 -3z"/>
<path d="M7453 6920 c-156 -18 -215 -77 -229 -228 l-7 -72 -84 0 c-92 0 -128
-12 -162 -56 -18 -23 -21 -40 -21 -135 l0 -109 59 0 c59 0 60 0 71 35 57 171
293 164 341 -10 9 -32 13 -35 49 -35 26 0 40 5 40 13 0 7 11 36 25 63 31 63
81 94 152 94 82 0 155 -57 170 -132 6 -30 45 -45 84 -33 19 6 20 12 15 53 -18
125 -70 361 -88 397 -44 88 -116 134 -239 154 -69 12 -83 12 -176 1z m57 -220
l0 -80 -85 0 -85 0 0 35 c0 45 23 100 47 114 10 6 42 11 71 11 l52 0 0 -80z
m140 0 c0 -73 -2 -80 -20 -80 -18 0 -20 7 -20 80 0 73 2 80 20 80 18 0 20 -7
20 -80z"/>
<path d="M6062 6794 c-30 -21 -29 -59 4 -81 24 -15 29 -15 53 -2 32 18 39 54
15 80 -21 23 -42 24 -72 3z"/>
<path d="M6282 6787 c-27 -29 -28 -41 -2 -67 25 -25 62 -26 83 -2 22 24 21 55
-1 75 -26 23 -55 21 -80 -6z"/>
<path d="M3294 6727 c-11 -5 -29 -19 -41 -30 -19 -17 -30 -19 -87 -13 -73 8
-114 -6 -143 -50 -14 -22 -14 -27 -2 -35 8 -6 159 -9 381 -7 387 3 413 6 375
45 -10 10 -28 34 -40 53 -19 29 -29 35 -63 38 -32 2 -48 -3 -72 -22 -26 -23
-39 -26 -103 -26 -60 0 -77 4 -95 21 -28 26 -85 40 -110 26z"/>
<path d="M5013 6529 c-65 -11 -153 -50 -204 -90 -44 -35 -115 -131 -148 -200
-20 -43 -27 -48 -94 -73 -163 -60 -297 -193 -382 -380 -47 -102 -98 -288 -82
-298 14 -9 1357 -11 1357 -2 0 4 -48 55 -107 113 -143 142 -181 161 -346 172
-169 11 -238 36 -296 106 -36 44 -38 56 -11 83 28 28 39 26 100 -20 67 -50
122 -67 240 -74 175 -10 233 -39 394 -197 173 -169 192 -181 281 -187 42 -2
75 0 79 6 3 5 -16 38 -42 73 -101 134 -137 221 -181 436 -58 280 -172 444
-355 511 -66 25 -137 32 -203 21z m219 -199 c51 -25 69 -40 126 -103 43 -48
55 -90 30 -115 -23 -23 -50 -12 -111 46 -80 76 -105 92 -141 92 -60 0 -88 63
-43 95 28 20 80 15 139 -15z"/>
<path d="M5760 6474 c-23 -20 -30 -34 -28 -53 3 -25 5 -26 86 -29 81 -3 82 -3
82 22 0 13 -12 38 -26 55 -33 39 -71 41 -114 5z"/>
<path d="M6058 6477 c-24 -20 -32 -41 -29 -74 1 -9 25 -13 84 -13 46 0 86 3
89 6 11 10 -11 69 -33 87 -29 23 -78 21 -111 -6z"/>
<path d="M6359 6471 c-17 -18 -29 -40 -29 -56 l0 -26 88 3 87 3 -2 30 c-3 38
-44 75 -84 75 -20 0 -40 -10 -60 -29z"/>
<path d="M7181 6399 c-44 -23 -81 -78 -81 -124 0 -34 37 -103 65 -121 129 -85
282 56 211 195 -34 65 -120 88 -195 50z m107 -91 c7 -7 12 -24 12 -38 0 -48
-45 -67 -82 -33 -36 32 -17 83 32 83 14 0 31 -5 38 -12z"/>
<path d="M7625 6401 c-50 -23 -78 -70 -79 -132 -1 -38 5 -54 30 -85 89 -111
256 -51 256 91 0 61 -25 103 -75 126 -53 23 -81 23 -132 0z m103 -93 c28 -28
0 -88 -43 -88 -28 0 -45 18 -45 50 0 14 5 31 12 38 7 7 24 12 38 12 14 0 31
-5 38 -12z"/>
<path d="M5904 6172 c-6 -4 -16 -17 -23 -30 -10 -19 -10 -28 3 -46 30 -47 98
-35 104 18 6 47 -46 83 -84 58z"/>
<path d="M6141 6154 c-12 -15 -21 -31 -21 -36 0 -15 48 -58 65 -58 20 0 65 44
65 64 0 22 -40 56 -66 56 -12 0 -32 -12 -43 -26z"/>
<path d="M6670 6050 c-138 -17 -274 -79 -375 -172 -86 -79 -136 -148 -236
-324 -146 -257 -217 -304 -484 -318 -185 -11 -257 -26 -361 -79 -94 -48 -209
-156 -187 -178 5 -5 177 -5 398 0 381 8 392 9 456 33 37 13 88 37 115 53 74
42 192 169 248 266 136 236 164 278 213 326 68 67 123 98 203 117 157 37 311
2 449 -103 61 -46 76 -50 91 -22 17 33 12 161 -9 207 -59 130 -305 221 -521
194z"/>
<path d="M7595 5913 c-60 -6 -145 -37 -180 -65 -70 -58 -70 -60 -70 -383 0
-281 1 -291 23 -340 39 -85 106 -143 197 -170 40 -12 40 -12 45 -71 l5 -59 52
-3 52 -3 3 67 3 67 42 14 c58 20 141 97 169 158 23 49 24 57 24 349 0 285 -1
300 -21 332 -27 45 -63 69 -130 88 -55 16 -152 25 -214 19z m1 -141 c23 -15
34 -52 34 -111 0 -72 -13 -78 -59 -28 -25 26 -31 40 -31 79 0 34 5 50 18 57
21 12 24 13 38 3z m258 -58 c22 -21 21 -25 -22 -80 -21 -27 -51 -75 -66 -106
-28 -60 -45 -73 -47 -38 0 11 -2 39 -3 63 -2 54 17 104 56 145 35 35 58 40 82
16z m-290 -175 c14 -11 33 -34 41 -49 18 -34 20 -80 4 -80 -20 0 -109 81 -115
105 -12 48 24 60 70 24z m287 -165 c17 -21 -5 -63 -74 -133 l-52 -54 -3 46
c-4 58 21 113 62 138 38 23 50 24 67 3z m-271 -64 c35 -35 40 -46 40 -86 l0
-45 -28 20 c-44 31 -102 99 -102 119 0 46 40 42 90 -8z"/>
<path d="M6829 5293 c-6 -15 -16 -57 -24 -93 -8 -36 -52 -220 -98 -410 -102
-415 -117 -481 -117 -497 0 -10 37 -13 150 -13 83 0 150 -1 150 -2 6 -33 10
-245 6 -263 -6 -23 -11 -25 -69 -25 -68 0 -87 -10 -87 -47 0 -44 40 -53 250
-53 113 0 199 4 211 10 21 12 25 41 9 71 -10 17 -22 19 -110 19 l-100 0 0 145
0 145 135 0 c74 0 135 2 135 5 0 3 -15 74 -34 158 -19 84 -49 215 -66 292 -53
240 -131 568 -136 577 -3 4 -48 8 -100 8 -94 0 -95 0 -105 -27z m39 -645 c11
-13 25 -34 30 -48 10 -28 4 -100 -8 -100 -5 0 -29 23 -54 51 -43 48 -59 93
-39 112 14 14 50 6 71 -15z m252 -157 c0 -25 -44 -77 -81 -96 -38 -20 -39 -19
-39 15 0 42 53 100 91 100 22 0 29 -5 29 -19z"/>
<path d="M6426 5259 c-50 -40 -23 -119 42 -121 69 -2 100 74 48 119 -33 28
-56 29 -90 2z"/>
<path d="M4636 5221 c-41 -46 18 -107 64 -66 25 23 25 40 0 65 -25 25 -42 25
-64 1z"/>
<path d="M4928 5229 c-21 -12 -24 -59 -6 -77 7 -7 21 -12 33 -12 43 0 61 53
29 84 -18 18 -32 20 -56 5z"/>
<path d="M2448 5199 c-23 -13 -25 -74 -2 -83 9 -3 40 -6 69 -6 40 0 56 4 63
16 10 18 5 51 -11 72 -11 14 -95 16 -119 1z"/>
<path d="M5742 4754 c-43 -30 -16 -94 40 -94 28 0 58 28 58 53 0 22 -35 57
-58 57 -10 0 -28 -7 -40 -16z"/>
<path d="M5983 4744 c-15 -24 -15 -29 -2 -53 18 -32 63 -40 90 -15 24 22 24
49 -1 74 -28 28 -66 26 -87 -6z"/>
<path d="M6254 4762 c-6 -4 -16 -17 -23 -30 -10 -19 -10 -28 4 -48 28 -43 105
-24 105 27 0 39 -55 72 -86 51z"/>
<path d="M3542 4728 c-7 -7 -12 -21 -12 -33 0 -46 57 -62 84 -24 31 45 -33 96
-72 57z"/>
<path d="M3295 4696 c-30 -45 16 -91 61 -61 28 18 31 46 8 69 -22 23 -51 20
-69 -8z"/>
<path d="M3770 4706 c-15 -19 -9 -56 11 -69 27 -17 69 0 69 27 0 46 -53 74
-80 42z"/>
<path d="M4245 4562 c-9 -6 -92 -99 -247 -276 -15 -17 -27 -36 -28 -43 0 -22
38 -34 97 -29 32 2 66 1 76 -3 22 -8 24 -6 -141 -199 -69 -81 -112 -139 -110
-150 3 -15 19 -17 126 -20 69 -1 122 -7 120 -12 -2 -5 -64 -87 -139 -182 -74
-95 -139 -179 -143 -185 -4 -7 -2 -22 4 -33 10 -19 20 -20 180 -20 l170 0 0
-79 c0 -96 11 -128 45 -137 46 -12 60 14 63 121 l4 95 169 0 169 0 6 26 c5 18
1 33 -12 50 -11 13 -74 93 -141 177 -67 84 -123 160 -125 168 -2 11 10 14 52
14 168 2 200 5 200 20 0 9 -61 86 -135 173 -74 86 -134 161 -132 166 2 5 35 8
74 7 72 -2 113 9 113 32 0 7 -26 42 -58 78 -31 37 -92 107 -136 158 -74 86
-96 101 -121 83z"/>
<path d="M3500 4445 c-15 -18 -5 -64 15 -72 28 -10 64 6 71 32 8 33 -11 55
-46 55 -15 0 -33 -7 -40 -15z"/>
<path d="M3748 4434 c-16 -34 0 -58 40 -62 26 -3 34 2 43 21 16 36 -3 67 -42
67 -22 0 -32 -6 -41 -26z"/>
<path d="M7580 4380 c-66 -22 -113 -71 -129 -135 -18 -72 -14 -243 8 -290 21
-48 76 -98 125 -116 l36 -13 0 -128 0 -128 -60 0 c-54 0 -62 -3 -71 -24 -8
-17 -8 -29 0 -45 11 -20 18 -21 226 -21 205 0 214 1 228 21 19 26 11 58 -17
64 -11 3 -59 6 -106 7 l-85 3 -3 122 -3 123 53 23 c29 13 70 42 90 65 44 49
52 89 46 234 -6 158 -46 216 -167 244 -73 18 -104 17 -171 -6z m21 -340 c14
-8 19 -21 19 -50 0 -47 -13 -51 -52 -13 -32 31 -35 48 -10 62 21 13 20 13 43
1z m207 -2 c17 -17 15 -22 -14 -57 -35 -42 -64 -42 -64 1 0 53 47 87 78 56z"/>
<path d="M2925 4369 c-117 -19 -203 -67 -289 -159 -99 -108 -141 -234 -126
-385 19 -190 107 -317 279 -403 74 -37 76 -37 195 -37 119 0 122 1 198 37 143
68 261 215 288 357 50 270 -118 525 -387 585 -78 17 -84 18 -158 5z m203 -194
c77 -39 128 -92 165 -172 32 -71 30 -179 -6 -254 -35 -72 -108 -146 -177 -178
-195 -90 -435 66 -448 291 -11 188 140 346 334 348 51 0 74 -6 132 -35z"/>
<path d="M2960 4111 c-5 -11 -10 -47 -10 -80 0 -34 -4 -61 -8 -61 -5 0 -21 14
-37 30 -32 33 -56 38 -75 15 -10 -12 -7 -20 14 -46 41 -49 35 -59 -34 -59 -56
0 -60 -2 -66 -25 -4 -14 -3 -29 1 -33 3 -4 36 -9 71 -12 l64 -5 -25 -37 c-48
-71 -20 -96 47 -43 l43 35 5 -72 c5 -78 23 -103 58 -82 13 8 18 27 20 77 l3
67 39 -26 c62 -41 92 -14 50 46 -17 25 -18 29 -4 34 9 3 31 6 49 6 51 0 65 9
65 41 l0 29 -70 0 c-38 0 -70 2 -70 5 0 3 12 23 26 45 43 65 11 95 -48 45 -16
-14 -34 -25 -39 -25 -5 0 -9 28 -9 63 0 62 -11 87 -37 87 -7 0 -17 -9 -23 -19z"/>
<path d="M4909 3917 c-47 -36 -43 -94 8 -120 46 -24 93 5 93 58 0 56 -61 93
-101 62z"/>
<path d="M5631 3739 c-67 -13 -165 -63 -216 -110 -52 -48 -125 -163 -125 -197
0 -17 6 -22 28 -22 15 0 37 -3 49 -6 18 -5 25 1 41 33 73 140 237 220 400 194
31 -5 59 -7 62 -4 2 2 -7 25 -20 50 -37 69 -97 86 -219 62z"/>
<path d="M7214 3571 c-29 -5 -44 -21 -44 -46 0 -38 21 -46 117 -43 l88 3 0 40
0 40 -71 5 c-39 3 -80 3 -90 1z"/>
<path d="M4900 3328 c-37 -25 -57 -65 -47 -92 5 -13 23 -16 95 -16 49 0 91 3
94 6 10 9 -15 73 -36 93 -35 32 -67 35 -106 9z"/>
<path d="M5813 3335 c-38 -16 -53 -36 -60 -79 l-6 -36 97 0 96 0 0 29 c0 36
-41 87 -74 93 -13 3 -37 0 -53 -7z"/>
<path d="M6100 3332 c-20 -10 -38 -29 -47 -50 -23 -56 -15 -62 86 -62 49 0 92
3 94 8 6 9 -18 81 -30 93 -22 22 -70 27 -103 11z"/>
<path d="M5194 3325 c-26 -17 -48 -69 -40 -90 8 -22 186 -22 186 0 0 29 -28
83 -48 94 -29 15 -74 14 -98 -4z"/>
<path d="M5485 3318 c-15 -14 -28 -38 -32 -60 l-6 -38 98 0 98 0 -6 38 c-8 47
-46 82 -92 82 -21 0 -44 -9 -60 -22z"/>
<path d="M2473 3310 c-67 -27 -52 -132 22 -146 74 -14 118 88 59 135 -29 23
-46 25 -81 11z"/>
</g>
</svg>
