<?xml version="1.0" standalone="no"?>
<!DOCTYPE svg PUBLIC "-//W3C//DTD SVG 20010904//EN"
 "http://www.w3.org/TR/2001/REC-SVG-20010904/DTD/svg10.dtd">
<svg version="1.0" xmlns="http://www.w3.org/2000/svg"
 width="1024.000000pt" height="1024.000000pt" viewBox="0 0 1024.000000 1024.000000"
 preserveAspectRatio="xMidYMid meet">

<g transform="translate(0.000000,1024.000000) scale(0.100000,-0.100000)"
fill="#000000" stroke="none">
<path d="M2935 8480 c-89 -16 -107 -21 -164 -45 -122 -51 -193 -104 -267 -200
l-30 -39 -66 12 c-119 22 -208 10 -326 -45 -87 -41 -190 -150 -241 -255 -71
-146 -71 -149 -71 -648 0 -333 4 -478 15 -574 23 -198 92 -383 199 -535 l56
-79 0 -420 0 -421 -32 -23 c-99 -70 -457 -370 -581 -487 -189 -179 -301 -367
-367 -616 -47 -178 -51 -264 -45 -1037 4 -456 3 -708 -4 -712 -15 -10 -208
312 -271 452 l-29 62 54 61 c61 69 85 128 84 208 -1 62 -18 132 -35 138 -18 6
-103 -57 -126 -95 -20 -32 -23 -50 -23 -129 1 -51 -2 -93 -7 -93 -4 0 -88 164
-187 365 -112 225 -186 365 -195 365 -31 0 -46 -13 -46 -39 0 -15 89 -203 200
-425 110 -219 200 -400 200 -402 0 -14 -35 1 -63 26 -71 62 -161 84 -247 60
-20 -5 -44 -16 -54 -23 -17 -12 -15 -17 23 -65 84 -106 166 -131 305 -93 43
12 80 20 81 19 1 -2 30 -55 65 -118 69 -127 158 -269 233 -372 l49 -68 -8
-340 -7 -340 -503 0 -504 0 0 -45 0 -45 1900 0 1900 0 0 409 0 409 58 6 c280
33 566 130 817 279 139 82 193 120 330 233 167 137 595 589 595 628 0 21 -31
56 -49 56 -10 0 -79 -69 -163 -162 -411 -459 -677 -662 -1076 -824 -222 -90
-450 -133 -703 -134 -80 0 -170 4 -200 10 -187 33 -241 46 -348 80 -145 47
-252 98 -388 183 -105 65 -223 156 -220 169 4 13 645 678 654 678 3 0 27 -16
54 -35 26 -19 79 -50 118 -69 265 -134 522 -161 808 -85 190 50 328 128 537
304 59 49 1000 969 1158 1132 60 61 102 152 183 396 93 282 168 493 203 568
60 132 144 219 265 273 97 42 152 48 437 44 235 -3 269 -5 300 -22 38 -20 100
-75 100 -88 0 -4 -138 -8 -307 -8 -319 0 -342 -3 -367 -42 -8 -13 -8 -23 0
-35 9 -14 37 -16 246 -17 217 -1 238 -3 257 -20 24 -21 27 -55 9 -77 -35 -42
-47 -44 -242 -49 -178 -5 -194 -7 -241 -30 -27 -14 -73 -49 -102 -78 -74 -76
-98 -144 -123 -344 -36 -296 -78 -395 -227 -539 -133 -129 -209 -181 -423
-292 -288 -150 -366 -226 -386 -374 -17 -131 106 -334 244 -401 17 -9 32 -20
32 -25 0 -18 125 -138 196 -187 140 -97 341 -175 552 -216 41 -8 77 -16 79
-17 1 -2 -11 -77 -27 -168 -16 -90 -44 -243 -61 -339 -37 -209 -50 -282 -83
-460 -14 -74 -44 -236 -66 -360 -22 -124 -42 -235 -45 -248 l-5 -22 -636 0
c-419 0 -642 -4 -655 -10 -21 -12 -25 -50 -7 -68 9 -9 619 -12 2685 -12 l2673
0 0 45 0 45 -337 2 -338 3 -60 93 c-88 136 -183 291 -322 525 l-123 207 32 58
c17 31 39 68 48 82 10 14 45 80 79 148 34 67 64 122 65 122 2 0 21 -6 42 -14
104 -36 183 -30 266 23 46 30 103 102 96 123 -6 16 -85 38 -136 38 -52 0 -99
-19 -162 -65 -46 -34 -70 -43 -70 -27 0 4 90 187 200 406 110 220 200 407 200
417 0 9 -7 22 -15 29 -36 30 -52 5 -236 -363 -99 -199 -185 -366 -190 -372
-21 -21 -34 17 -34 103 0 72 -4 94 -23 127 -23 40 -98 105 -121 105 -38 0 -54
-158 -25 -242 14 -42 95 -136 138 -160 9 -5 16 -17 16 -27 0 -21 -120 -261
-174 -349 -22 -34 -43 -59 -47 -55 -22 23 -217 379 -319 583 -193 385 -304
668 -409 1040 -20 73 -61 244 -61 257 0 4 15 -16 32 -42 39 -59 124 -145 177
-180 218 -145 474 -43 563 224 37 110 33 326 -9 481 -67 247 -187 511 -339
743 -90 137 -172 215 -287 272 -168 83 -328 86 -523 8 l-61 -24 -76 26 c-64
21 -94 25 -194 25 l-118 0 -28 45 c-39 61 -85 99 -154 126 -55 22 -73 23 -349
27 -324 4 -359 0 -489 -63 -136 -66 -226 -163 -294 -319 -52 -117 -139 -361
-216 -601 -31 -99 -68 -203 -82 -232 -20 -43 -120 -146 -576 -596 -304 -299
-582 -571 -618 -606 l-67 -62 -34 43 c-46 57 -293 372 -448 573 -229 295 -423
523 -605 715 l-135 142 2 191 3 192 106 7 c125 7 208 28 304 76 129 64 217
136 309 252 101 127 143 210 194 380 l26 85 6 758 c5 718 6 759 23 769 65 36
151 142 198 243 28 59 61 182 52 197 -2 4 -31 -6 -66 -22 -74 -35 -220 -80
-258 -80 l-28 0 39 83 c46 95 70 182 70 248 l0 48 -82 -30 c-119 -44 -250 -56
-440 -41 -84 6 -164 14 -178 16 -293 55 -525 75 -635 56z m1159 -295 c5 -15
-43 -84 -97 -139 -90 -90 -222 -160 -358 -192 -89 -20 -132 -14 -127 18 3 18
16 24 91 39 153 31 283 105 400 228 60 62 80 73 91 46z m-1234 -519 c273 -81
422 -106 629 -106 241 0 442 34 589 101 l62 28 0 -700 c0 -612 -2 -709 -16
-772 -54 -235 -181 -426 -371 -558 -141 -97 -283 -135 -477 -126 -243 11 -431
101 -569 272 -52 65 -88 78 -113 40 -12 -18 -5 -35 67 -161 44 -78 112 -180
150 -228 82 -101 223 -227 315 -281 l64 -38 0 -233 0 -233 -27 -15 c-16 -7
-62 -23 -105 -35 -253 -71 -587 31 -783 240 -70 74 -133 160 -135 184 -1 11
-2 221 -1 466 l1 447 30 12 c16 7 48 32 71 57 35 38 49 46 95 53 30 5 59 12
64 15 16 10 11 40 -10 63 -22 23 -35 27 -113 36 -67 8 -116 36 -175 100 -85
94 -105 172 -72 287 25 87 126 169 209 169 52 0 115 -36 162 -91 22 -27 49
-49 59 -49 31 0 137 136 185 235 72 151 101 313 92 515 -6 107 -27 239 -53
329 -6 22 -5 23 22 19 16 -3 85 -22 154 -42z m5445 -1920 c94 -51 144 -95 209
-179 263 -344 462 -911 402 -1147 -23 -88 -57 -137 -113 -162 -89 -39 -188 3
-269 115 -68 93 -242 401 -414 733 -57 109 -89 154 -110 154 -29 0 -37 -33
-43 -187 -4 -87 -18 -246 -32 -353 -69 -529 -75 -674 -39 -1050 38 -403 140
-823 308 -1262 99 -260 308 -679 420 -844 14 -21 26 -42 26 -46 0 -5 -281 -8
-625 -8 l-625 0 0 274 c0 254 -1 275 -19 297 -16 20 -23 22 -47 14 l-29 -10
-5 -285 -5 -285 -506 -3 -506 -2 29 152 c41 215 56 297 78 423 10 61 26 146
35 190 9 44 18 96 21 115 3 19 19 109 35 200 17 91 41 226 54 301 14 75 28
154 33 175 l8 39 169 6 c131 5 188 11 250 28 90 25 105 34 105 66 0 44 -23 50
-103 27 -115 -35 -321 -46 -495 -27 -79 8 -147 17 -151 19 -4 3 -20 7 -35 10
-103 19 -301 101 -393 164 -67 46 -153 120 -153 132 0 5 15 11 33 15 17 4 59
22 93 40 55 30 62 31 87 19 14 -8 68 -25 119 -39 235 -63 540 -10 802 140 127
72 288 205 299 246 6 22 -23 59 -47 59 -8 0 -46 -29 -84 -64 -214 -196 -499
-316 -749 -316 -93 0 -194 18 -257 44 l-37 16 24 32 c86 119 80 263 -15 343
-18 16 -56 39 -85 52 -55 26 -181 55 -222 52 -15 0 -35 -1 -46 0 -25 1 -7 12
160 101 291 153 486 330 574 521 37 79 65 203 85 376 17 150 37 208 94 266 77
79 84 81 302 87 155 4 201 9 225 22 67 36 101 102 91 173 l-7 45 208 0 c207 0
251 -6 225 -32 -18 -18 -15 -46 8 -58 17 -9 36 -3 108 32 149 72 218 89 357
85 118 -3 122 -3 190 -41z m-6432 -1060 c103 -31 226 -90 317 -154 62 -43 911
-877 931 -915 9 -15 -41 -70 -324 -360 -377 -386 -485 -499 -504 -527 -50 -72
-124 58 -75 131 9 15 132 145 272 290 140 145 305 315 366 378 l112 115 -351
359 c-429 437 -521 515 -696 588 -80 33 -231 69 -294 69 -40 0 -54 16 -43 46
10 25 175 13 289 -20z m1767 -423 c80 -213 164 -550 205 -820 20 -135 20 -143
-8 -143 -22 0 -25 6 -35 78 -43 286 -97 515 -182 779 -46 139 -49 163 -21 163
15 0 25 -15 41 -57z m2018 -200 c3 -19 -6 -27 -50 -46 -63 -29 -90 -56 -117
-120 -24 -55 -41 -54 -41 4 0 71 49 142 120 173 48 22 84 17 88 -11z m-4275
-290 c142 -208 366 -478 575 -694 102 -106 121 -139 81 -139 -54 0 -428 413
-620 685 -80 114 -104 158 -96 179 10 26 26 19 60 -31z"/>
<path d="M3293 7200 c-86 -12 -153 -69 -128 -109 9 -16 47 -13 84 5 37 18 128
22 159 5 31 -16 50 -14 62 9 31 58 -63 105 -177 90z"/>
<path d="M3830 7193 c-66 -25 -95 -86 -46 -99 13 -3 33 -1 44 5 39 21 127 17
181 -9 49 -22 53 -23 69 -7 15 16 15 20 2 45 -27 46 -85 72 -165 71 -38 0 -77
-3 -85 -6z"/>
<path d="M3286 6838 c-12 -17 -16 -48 -16 -124 0 -111 11 -134 62 -134 46 0
57 26 60 137 3 87 0 104 -16 122 -25 28 -70 27 -90 -1z"/>
<path d="M3852 6844 c-20 -14 -22 -23 -22 -124 0 -121 8 -140 60 -140 46 0 61
39 58 155 -3 82 -6 99 -22 111 -25 18 -46 18 -74 -2z"/>
<path d="M3794 6290 c-12 -5 -24 -19 -27 -32 -8 -31 -58 -82 -101 -102 -19 -9
-59 -16 -90 -16 -86 0 -153 41 -187 115 -12 25 -20 30 -48 30 -48 0 -60 -23
-37 -73 67 -148 270 -212 423 -133 38 19 86 65 116 111 24 34 22 87 -2 100
-22 11 -19 11 -47 0z"/>
<path d="M7042 4737 c-6 -7 -14 -28 -17 -47 -8 -44 -26 -72 -67 -103 -73 -54
-148 -42 -219 34 -46 50 -66 58 -87 37 -27 -27 -2 -96 49 -136 70 -55 174 -74
253 -45 96 33 166 122 166 209 0 38 -4 53 -16 58 -25 10 -51 7 -62 -7z"/>
<path d="M7487 7065 c-20 -7 -48 -20 -61 -29 -24 -15 -28 -14 -73 10 -68 36
-119 31 -150 -15 -28 -42 -29 -91 -3 -146 22 -45 105 -137 162 -179 l37 -28
28 20 c52 38 141 137 166 185 44 82 15 176 -59 192 -6 2 -27 -3 -47 -10z"/>
</g>
</svg>
