<?xml version="1.0" encoding="utf-8"?>
<!-- Generator: Adobe Illustrator 27.9.0, SVG Export Plug-In . SVG Version: 6.00 Build 0)  -->
<svg version="1.1" id="Layer_1" xmlns="http://www.w3.org/2000/svg" xmlns:xlink="http://www.w3.org/1999/xlink" x="0px" y="0px"
	 viewBox="0 0 1300 1300" style="enable-background:new 0 0 1300 1300;" xml:space="preserve">
<style type="text/css">
	.st0{fill:#FFFFFF;}
	.st1{fill:#337357;}
	.st2{fill:#FF4500;}
	.st3{fill:#231F20;stroke:#231F20;stroke-width:5;stroke-miterlimit:10;}
	.st4{fill:#231F20;}
	.st5{fill:#836FFF;}
	.st6{fill:#D7E4C0;}
	.st7{fill:#FFBF00;}
</style>
<rect x="-1327.81" y="2.76" class="st0" width="1300" height="1300"/>
<rect x="0" class="st0" width="1300" height="1300"/>
<circle class="st1" cx="-3456.68" cy="916.42" r="101.67"/>
<rect x="-4298.29" y="-96.25" class="st2" width="1300" height="1300"/>
<rect x="-2951.41" y="-96.49" class="st2" width="1300" height="1300"/>
<path class="st0" d="M-3831.37,575.2c-0.25,2.54-0.7,5.04-1.34,7.44c-2.43,9.06-6.6,17.81-12.38,26.04l0.02,0.02l-0.83,1.15
	l-0.78,1.07l-0.03-0.02c-3.44,4.61-7.33,8.91-11.59,12.82l0.02,0.03l-0.99,0.88l-1.06,0.95l-0.02-0.02
	c-15.29,13.21-33.12,20.19-50.55,20.19c-7.27,0-14.46-1.21-21.37-3.68c-7.07-2.53-13.61-6.28-19.44-11.17
	c-0.62-0.52-1.24-1.05-1.84-1.6c-19.25-17.47-25.22-47.55-14.85-74.86c8.49-22.35,26.17-39.88,47.42-47.14l0-0.03l1-0.33l1.7-0.55
	l0,0.07c5.34-1.58,10.82-2.49,16.34-2.72l-0.02-0.07l1.79-0.03l1.05-0.02l0.01,0.04c11.36,0.03,22.43,2.87,32.88,8.56
	c5.11,2.78,9.75,6.16,13.79,10.04c0.99,0.95,2.03,2.06,3.15,3.3l0.02,0l0.6,0.68l1.37,1.56l-0.06,0.02
	c6.01,7.26,10.7,15.97,13.44,24.92l0.05-0.04l0.55,2.01c0,0,0,0.01,0,0.01l0.24,0.87l-0.03,0.02
	C-3831.37,562.37-3830.76,568.96-3831.37,575.2z M-3905.27,602.83c6.36,0.8,12.11-1.74,16.24-7.15
	c8.37-10.98,14.84-32.07,2.99-44.58c-3.99-4.21-9.04-6.03-14.6-5.23c-7.89,1.12-16.18,7.37-20.62,15.54l-0.01,0.02
	c-1.08,1.98-1.86,3.96-2.34,5.87c-1.63,6.58-1.8,12.63-0.5,18c0.27,1.11,0.66,2.25,1.22,3.59l0.01,0.01
	C-3919.71,596.42-3912.8,601.88-3905.27,602.83z"/>
<path class="st0" d="M-3676.56,575.2c-0.25,2.54-0.7,5.04-1.34,7.44c-2.43,9.06-6.6,17.81-12.38,26.04l0.02,0.02l-0.83,1.15
	l-0.78,1.07l-0.03-0.02c-3.44,4.61-7.33,8.91-11.59,12.82l0.02,0.03l-0.99,0.88l-1.06,0.95l-0.02-0.02
	c-15.29,13.21-33.12,20.19-50.55,20.19c-7.27,0-14.46-1.21-21.37-3.68c-7.07-2.53-13.61-6.28-19.44-11.17
	c-0.62-0.52-1.24-1.05-1.84-1.6c-19.25-17.47-25.22-47.55-14.85-74.86c8.49-22.35,26.17-39.88,47.42-47.14l0-0.03l1-0.33l1.7-0.55
	l0,0.07c5.34-1.58,10.82-2.49,16.34-2.72l-0.02-0.07l1.79-0.03l1.05-0.02l0.01,0.04c11.36,0.03,22.43,2.87,32.88,8.56
	c5.11,2.78,9.75,6.16,13.79,10.04c0.99,0.95,2.03,2.06,3.15,3.3l0.02,0l0.6,0.68l1.37,1.56l-0.06,0.02
	c6.01,7.26,10.7,15.97,13.44,24.92l0.05-0.04l0.55,2.01c0,0,0,0.01,0,0.01l0.24,0.87l-0.03,0.02
	C-3676.56,562.37-3675.94,568.96-3676.56,575.2z M-3750.46,602.83c6.36,0.8,12.11-1.74,16.24-7.15
	c8.37-10.98,14.84-32.07,2.99-44.58c-3.99-4.21-9.04-6.03-14.6-5.23c-7.89,1.12-16.18,7.37-20.62,15.54l-0.01,0.02
	c-1.08,1.98-1.86,3.96-2.34,5.87c-1.63,6.58-1.8,12.63-0.5,18c0.27,1.11,0.66,2.25,1.22,3.59l0.01,0.01
	C-3764.9,596.42-3757.98,601.88-3750.46,602.83z"/>
<path class="st0" d="M-3551.94,488.32c-3.05,11.36-15.25,13.92-25.97,11.41c-1.83-0.43-3.79-0.98-5.81-1.55
	c-10.44-2.96-22.28-6.3-28,4.62c-2.75,5.25-1.74,11.06,2.58,14.81c1.11,0.96,2.4,1.75,3.83,2.33c4.69,1.91,10.42,1.55,15.96,1.21
	c1.74-0.11,3.45-0.21,5.08-0.25c8.15-0.18,18.16,0.39,22.88,6.16c2.65,3.25,3.35,7.79,2.07,13.5c-1.26,5.62-4.62,10.44-9.23,13.36
	l-0.01,0.04l-0.48,0.29c0,0-0.01,0.01-0.01,0.01l-2.83,1.67l0.08-0.33c-1.07,0.43-2.16,0.78-3.27,1.01
	c-2.45,0.51-4.94,0.68-7.47,0.68c-0.94,0-1.9-0.06-2.85-0.1l0.03,0.05l-2.55-0.14c-0.01,0-0.02,0-0.03,0l-0.68-0.04l-0.07,0
	c-9.8-0.54-17.54-0.97-21.33,10.95c-2.44,7.67-2.12,15.9-1.82,23.87c0.07,1.93,0.15,3.86,0.18,5.78c0.05,2.38,0.04,4.76,0.02,7.14
	l0.01,0.01l-0.01,1.11c0,0.01,0,0.02,0,0.02l-0.01,1.66c-0.05,5.8-0.09,11.79,0.29,17.67l0.08,1.17l-0.03,0
	c0.46,7.22-2.08,13.93-7.02,18.42c-3.81,3.46-8.63,5.28-13.88,5.28c-1.31,0-2.65-0.12-4.01-0.34c-22.14-3.74-21.01-26.9-20.27-42.23
	c0.49-10.22,0.61-20.86,0.34-31.63c-0.14-5.67-0.64-11.39-1.06-15.75c-0.23-2.39-0.48-4.78-0.72-7.17c-0.3-2.9-0.58-5.81-0.85-8.71
	l-0.02,0.01l-0.19-2.14l-0.08-0.87l0.01,0c-1.08-12.67-1.49-26.2,2.28-39.65c5.68-20.22,20.1-35.51,38.57-40.88
	c3.58-1.04,7.42-1.83,11.37-2.41l0-0.04l1.25-0.17l1.48-0.2l0,0.03c10.19-1.19,20.56-0.68,29.56,1.47l0.01-0.04l1.48,0.39l1.19,0.31
	l0,0.02c1.6,0.45,3.1,0.91,4.48,1.42C-3554.49,466.3-3548.72,476.31-3551.94,488.32z"/>
<path class="st0" d="M-3432.92,601.27c0,13.94-5.26,24.97-15.65,32.81c-10.27,7.75-25.51,11.67-45.3,11.67
	c-7.73,0-14.87-0.56-21.24-1.67c-2.57-0.45-5.08-1.03-7.49-1.7l-0.02,0.02l-0.78-0.23c-0.01,0-0.01,0-0.02-0.01l-2.21-0.64
	l0.04-0.04c-5.33-1.76-9.79-4.03-13.29-6.76l-0.02,0.13l-1.86-1.72l-0.55-0.51l0.01-0.05c-1.31-1.29-2.47-2.63-3.37-4.04
	c-3.65-5.66-3.46-12.62,0.49-18.16c3.96-5.55,10.53-7.99,17.13-6.36c3.6,0.89,7.25,2.14,10.78,3.35
	c10.87,3.73,21.14,7.25,31.86,1.99c1.36-0.67,2.65-1.53,3.74-2.49l0.01-0.01c2.11-1.85,3.31-3.96,3.39-5.93
	c0.06-1.58-0.61-3.12-1.95-4.59l-0.66-0.62c-0.01,0-0.01-0.01-0.02-0.01l-0.01,0c-4.59-4.29-12.22-5.48-18.96-6.53
	c-1.61-0.25-3.17-0.49-4.62-0.77c-14.27-2.69-24.98-7.36-32.76-14.25c-4.14-3.67-7.17-8.3-9.07-13.71l-0.05-0.02l-0.18-0.55
	c0,0,0,0,0-0.01l-1.01-3.05l0.17,0.08c-0.85-3.46-1.29-7.17-1.29-11.08c0-0.03,0-0.06,0-0.09l-0.08,0.07l0.21-3.12v0l0.04-0.6
	l0.03-0.03c1.79-22.1,20.01-37.05,48.95-40.14l0.02-0.02l0.55-0.05l3.4-0.34l-0.12,0.14c2.8-0.19,5.62-0.25,8.45-0.19l-0.12-0.13
	l3.4,0.18c0.02,0,0.04,0,0.05,0l0.5,0.03l0.01,0.01c6.29,0.38,12.48,1.35,17.92,2.86c7.92,2.18,21.14,8.8,25.11,18.11
	c1.76,4.1,1.53,8.25-0.66,12.33c-2.7,5.02-7.21,7.34-13.69,7.15v0.06l-1.49-0.11l-1.26-0.11v-0.06c-3.5-0.43-7.05-1.37-10.22-2.24
	c-1.03-0.28-2.02-0.55-2.96-0.79c-1.11-0.28-2.8-0.6-4.65-0.89c-10.81-1.65-24.82-1.84-28.77,3.06c-1.27,1.57-1.39,3.64-0.36,6.32
	c2.81,7.36,14.49,9.31,22.21,10.6c1.02,0.17,1.98,0.33,2.87,0.49c11.48,2.1,24.53,5.53,34.31,15.06
	C-3436.65,580.56-3432.91,589.95-3432.92,601.27z"/>
<path class="st0" d="M-3329.29,621.75l0.07-0.01l-0.01,1.6l-0.01,1.18l-0.1,0.01c-0.26,3.9-1.58,7.64-3.91,10.61
	c-6.56,8.39-18.28,9.99-26.53,10.47c-1.49,0.09-3.18,0.15-5.01,0.15c-10.45,0-25.59-1.9-36.38-11.33l-3.11-2.71l0.37,0.03
	c-1.31-1.42-2.5-2.92-3.52-4.51c-0.46-0.72-0.9-1.49-1.33-2.31l-0.07,0.27l-1.52-3.73c0-0.01-0.01-0.02-0.01-0.02l-0.18-0.43
	l0.01-0.04c-3.6-9.17-3.63-19.23-3.64-28.97c-0.01-9.1-0.01-18.19,0-27.28l0-14.88c0-3.68,0.01-7.37,0.02-11.05
	c0.02-5.73,0.04-11.45,0.01-17.18c-0.02-4.94-0.08-9.88-0.2-14.81l-0.08-3.09l0.01,0.01c-0.28-10.07-0.38-23.39,9.88-29.77
	c4.81-2.98,10.73-3.99,16.34-2.83l0.04-0.01l0.38,0.08c0,0,0.01,0,0.01,0l4.73,1.08l-0.74,0.25c0.97,0.42,1.92,0.87,2.79,1.42
	c1.92,1.21,3.5,2.62,4.82,4.23l0.06-1.12l2.33,4.76l0.16,0.32l0,0.07c1.86,4.01,2.42,8.54,2.98,13.33l0.08,0.71
	c1.31,11.15,9.05,12.02,18.02,13.03c4.8,0.54,9.78,1.1,13.97,3.33c6.33,3.37,10.48,12.42,9.25,20.16
	c-1.76,11.1-11.38,11.96-18.92,12.25v0l-2,0.07c-3.26,0.11-6.35,0.21-8.98,0.81c-5.31,1.21-8.82,4.56-10.73,10.24l0,0.01
	c-2.74,8.15-1.64,19.49-0.75,28.6c0.31,3.17,0.6,6.17,0.69,8.66c0.19,5.36,1.97,9.47,5.28,12.21c4.61,3.81,11.2,4.18,15.89,3.8
	c1.18-0.09,2.38-0.22,3.58-0.42c4.43-0.74,8.3,0.17,11.18,2.62C-3331.31,613.95-3329.62,617.59-3329.29,621.75z"/>
<path class="st0" d="M-3189,631.11l-1.83,2.43c0,0.01-0.01,0.01-0.01,0.02l-0.37,0.47l-0.06,0.01c-6.01,7.26-16.51,11.8-23.84,13.49
	c-7.66,1.76-15.44,2.63-23.1,2.63c-17.16,0-33.69-4.33-46.81-12.59c-14.76-9.3-24.58-23.19-28.39-40.19
	c-0.64-2.83-1.13-5.96-1.52-9.23l-0.05,0.03l-0.2-1.95l-0.1-0.96l0.02-0.01c-0.5-5.43-0.53-10.89-0.09-16.26l-0.02-0.01l0.09-0.96
	l0.18-1.95l0.06,0.03c0.87-7.51,2.59-14.41,5.2-20.46c4.35-10.06,11.07-18.5,19.95-25.12l0-0.03l0.48-0.35l2.54-1.86l-0.01,0.11
	c6.08-4.02,12.85-7.04,20.2-9.01l-0.08-0.05l2.98-0.67l0.6-0.13l0.02,0.02c12.9-2.8,26.33-2.24,38.87,1.69
	c25.63,8.01,37.55,26.15,34.49,52.47c-2.61,22.38-32.2,26.4-43.33,27.92c-2.59,0.35-5.23,0.61-7.88,0.86
	c-6.65,0.64-13.52,1.31-19.73,3.63c-2.37,0.88-4.05,2.33-4.85,4.17c-0.74,1.7-0.71,3.68,0.09,5.72l0,0.01
	c0.6,1.52,1.55,2.91,2.83,4.14c2.31,2.22,5.29,3.95,8.87,5.17c13.09,4.44,31.35,0.68,42.78-4.69c0.77-0.36,1.63-0.66,2.5-0.95
	l0.02-0.05l0.58-0.18l2.96-0.91l-0.11,0.24c5.73-0.98,12.45,0.1,15.77,6.1c3.27,5.9,3.28,11.82,0.09,17.26L-3189,631.11z
	 M-3229.6,543.76c-3.96-2.12-9.18-3.24-14.6-3.2c-8.13,0.09-15.86,2.79-21.22,7.4c-2.96,2.55-4.4,5.93-3.93,9.27
	c0.44,3.18,2.63,5.9,5.99,7.45c8.83,4.08,23.88,0.29,31.84-3.26c1.62-0.72,3.2-1.73,4.58-2.94l0.01-0.01
	c2.39-2.08,3.76-4.41,3.87-6.56c0.08-1.65-0.58-3.25-1.97-4.74C-3226.24,545.88-3227.74,544.76-3229.6,543.76L-3229.6,543.76z"/>
<path class="st0" d="M-3073.56,523.29l-0.26,1.57l-0.2,1.17l-0.08,0c-0.58,2.38-1.65,4.58-3.25,6.53
	c-5.51,6.73-12.92,6.74-20.07,6.74c-3.86,0-7.85,0.01-11.44,1.11c-13.4,4.1-13.68,20.72-13.88,32.85l-0.02,1.26
	c-0.1,5.61,0.21,11.33,0.51,16.86c0.33,6.05,0.67,12.31,0.48,18.51l-0.06,2.14c-0.22,8.28-0.47,17.67-5.1,24.81
	c-0.91,1.4-1.96,2.67-3.14,3.79c-3.54,3.35-8.41,5.13-13.81,5.13c-1.29,0-2.61-0.13-3.94-0.33l-0.02,0.04l-0.9-0.17
	c-0.01,0-0.01,0-0.02,0l-2.02-0.38l0.08-0.12c-1.86-0.48-3.65-1.08-5.27-1.89c-9.16-4.59-10.77-13.13-10.97-21.8l-0.01,0l-0.03-1.7
	c-0.13-8.01-0.54-16.19-0.93-24.09c-0.33-6.65-0.66-13.52-0.84-20.31l-0.01,0l-0.02-0.73l-0.06-2.59l0.04,0.02
	c-0.07-3.97-0.06-7.87,0.04-11.68l-0.04,0.02l0.09-2.59l0.02-0.73l0.01,0c0.19-5.57,0.51-10.21,1-14.47
	c2.26-19.86,17.39-29.6,29.68-34.27c23.07-8.77,41.54-9.16,54.97-1.21l0.02-0.03l1.2,0.74c0.03,0.02,0.06,0.05,0.09,0.07l1.05,0.67
	l-0.06,0.07c4.82,3.63,7.47,9.26,7.06,15L-3073.56,523.29z"/>
<path class="st0" d="M-3954.36,488.01c-17.54-14.18-73.18,11.37-73.92,35.91c-0.07,2.42,0.46,2.46,1.66,8.07
	c1.47,6.87,8.17,38.09-7.56,53.33c-1.25,1.21-5.52,5.11-12.15,6.81c-16.17,4.16-36.03-7.39-36.44-17.48
	c-0.39-9.49,16.59-13.28,18.4-29.02c0.55-4.82-0.4-8.32-0.88-9.74c-2.31-6.88-9.37-15.63-19.95-15.58
	c-10.58-0.05-17.64,8.7-19.95,15.58c-0.48,1.42-1.43,4.92-0.88,9.74c1.81,15.74,18.79,19.53,18.4,29.02
	c-0.41,10.09-20.27,21.64-36.44,17.48c-6.63-1.71-10.9-5.6-12.15-6.81c-15.73-15.24-9.03-46.47-7.56-53.33
	c1.2-5.61,1.74-5.65,1.66-8.07c-0.74-24.54-56.38-50.09-73.92-35.91c-6.51,5.26-8.83,16.84-5.39,20.04
	c3.15,2.93,8.6-3.52,15.87-2.02c11.62,2.4,17.31,22.96,28.11,63.54c0.7,2.63,1.36,5.22,2.96,11.19
	c5.23,19.49,7.89,29.37,10.29,36.18c5.03,14.24,7.77,21.31,13.87,26.02c5.16,3.98,11.79,6,18.6,6c5.95,0,12.04-1.54,17.42-4.64
	c5.34-3.08,9.45-7.81,12.58-14.4c0.5-1.08,1-2.16,1.5-3.23l-0.13,0.04c1.41-3.54,2.51-7.22,3.48-10.84l0.01,0.02l0.61-2.39
	c0.2-0.79,0.4-1.57,0.6-2.36c0.91-4.31,2.43-10.63,4.9-18.17c3.12-9.51,4.47-10.93,5.56-10.92c1.09-0.01,2.45,1.4,5.56,10.92
	c2.47,7.54,3.99,13.86,4.9,18.17c0.2,0.79,0.4,1.57,0.6,2.36l0.61,2.39l0.01-0.02c0.96,3.62,2.07,7.3,3.48,10.84l-0.13-0.04
	c0.5,1.08,1,2.16,1.5,3.23c3.13,6.59,7.24,11.32,12.58,14.4c5.38,3.11,11.47,4.64,17.42,4.64c6.81,0,13.44-2.02,18.6-6
	c6.09-4.7,8.84-11.78,13.87-26.02c2.4-6.81,5.07-16.69,10.29-36.18c1.6-5.97,2.26-8.56,2.96-11.19
	c10.8-40.57,16.49-61.13,28.11-63.54c7.26-1.5,12.72,4.94,15.87,2.02C-3945.54,504.85-3947.85,493.27-3954.36,488.01z
	 M-4085.21,549.03c-5.6,0-10.15-4.54-10.15-10.15c0-5.6,4.54-10.15,10.15-10.15s10.15,4.54,10.15,10.15
	C-4075.06,544.48-4079.6,549.03-4085.21,549.03z"/>
<path d="M-3290.88-628.9c-4.54-4.13-12.08-6.32-19.08-4.69c-3.93,0.92-6.67,2.85-7.93,3.86c-0.86,0.69-6.72,5.53-7.23,12.79
	c-0.28,3.9,1.14,6.88,1.66,8.07c5.3,12.1,6.18,40.02-7.56,53.33c-1.25,1.21-5.52,5.11-12.15,6.81
	c-16.17,4.16-36.03-7.39-36.44-17.48c-0.39-9.49,16.59-13.28,18.4-29.02c0.55-4.81-0.4-8.31-0.88-9.74
	c-2.28-6.8-9.22-15.52-19.74-15.58c-10.58-0.05-17.64,8.7-19.95,15.58c-0.48,1.42-1.43,4.92-0.88,9.74
	c1.81,15.74,18.79,19.53,18.4,29.02c-0.41,10.09-20.27,21.64-36.44,17.48c-6.63-1.71-10.9-5.6-12.15-6.81
	c-13.74-13.31-12.86-41.24-7.56-53.33c0.52-1.19,1.94-4.17,1.66-8.07c-0.52-7.25-6.38-12.1-7.23-12.79c-1.26-1.01-4-2.94-7.93-3.86
	c-6.99-1.63-14.53,0.55-19.08,4.69c-5.76,5.24-8.63,14.24-7.89,24.7c0.77,10.84,3.84,22.06,6.8,32.91c0.9,3.28,1.56,5.97,2.96,11.19
	c5.23,19.49,7.89,29.37,10.29,36.18c5.03,14.24,7.77,21.31,13.87,26.02c5.16,3.98,11.79,6,18.6,6c5.95,0,12.04-1.54,17.42-4.64
	c5.34-3.08,9.45-7.81,12.58-14.4c0.5-1.08,1-2.16,1.5-3.23l-0.13,0.04c1.41-3.54,2.51-7.22,3.48-10.84l0.01,0.02l0.61-2.39
	c0.2-0.79,0.4-1.57,0.6-2.36c0.91-4.31,2.43-10.63,4.9-18.17c3.12-9.51,4.47-10.93,5.56-10.92c1.29,0.01,2.54,2.01,5.35,10.92
	c2.39,7.55,3.94,13.85,4.9,18.17c0.18,0.7,0.36,1.4,0.54,2.11c0.23,0.88,0.45,1.76,0.68,2.64c0.45,1.74,0.98,3.55,1.58,5.43
	c0.61,1.9,1.25,3.7,1.9,5.39l-0.13-0.04l1.21,2.64c1.13,2.68,4.63,9.97,12.88,15c1.63,0.99,8.17,4.64,17.42,4.64
	c6.81,0,13.44-2.02,18.6-6c6.09-4.7,8.84-11.78,13.87-26.02c2.4-6.81,5.07-16.69,10.29-36.18c1.4-5.22,2.07-7.9,2.96-11.19
	c2.96-10.85,6.03-22.07,6.8-32.91C-3282.24-614.66-3285.12-623.67-3290.88-628.9z M-3381.83-591.84c-5.6,0-10.15-4.54-10.15-10.15
	s4.54-10.15,10.15-10.15s10.15,4.54,10.15,10.15S-3376.22-591.84-3381.83-591.84z"/>
<path d="M-3290.77-819.69c-4.54-4.13-12.08-6.32-19.08-4.69c-3.93,0.92-6.67,2.85-7.93,3.86c-5.52,4.41-6.8,10.63-7.23,12.79
	c-1.49,7.47,1.26,12.41,3.74,20.52c2.61,8.53,7.2,23.56,2.66,36.61c-0.63,1.81-5.36,14.77-17.63,19.24
	c-14.58,5.32-31.73-3.38-38.96-15.7c-2.81-4.8-3.74-9.47-4.07-12.58c4.47-8.05,8.95-16.1,13.42-24.15
	c1.32-1.86,3.66-5.78,3.53-10.86c-0.22-8.55-7.43-18.49-18.49-18.49s-18.27,9.94-18.49,18.49c-0.13,5.08,2.21,9,3.53,10.86
	c4.43,8.01,8.86,16.03,13.29,24.04c-0.29,3.14-1.16,7.86-3.94,12.69c-7.16,12.43-24.39,21.02-38.96,15.7
	c-12.27-4.48-16.99-17.43-17.63-19.24c-4.54-13.05,0.05-28.08,2.66-36.61c2.48-8.1,5.23-13.05,3.74-20.52
	c-0.43-2.16-1.72-8.38-7.23-12.79c-1.26-1.01-4-2.94-7.93-3.86c-6.99-1.63-14.53,0.55-19.08,4.69c-5.76,5.24-8.63,14.24-7.89,24.7
	c0.77,10.84,3.84,22.06,6.8,32.91c0.9,3.28,1.56,5.97,2.96,11.19c5.23,19.49,7.89,29.37,10.29,36.18
	c5.03,14.24,7.77,21.31,13.87,26.02c5.16,3.98,11.79,6,18.6,6c9.25,0,15.79-3.65,17.42-4.64c8.24-5.02,11.75-12.32,12.88-15
	c0.36-0.87,0.71-1.73,1.07-2.6c0.65-1.69,1.29-3.49,1.9-5.39c0.61-1.88,1.13-3.7,1.58-5.43c0.23-0.88,0.45-1.76,0.68-2.64
	c0.31-1.19,0.53-2.07,0.54-2.11c0.36-1.4,2.89-9.25,9.36-28.7c6.47,19.44,9,27.29,9.36,28.7c0.01,0.03,0.23,0.91,0.54,2.11
	c0.23,0.88,0.45,1.76,0.68,2.64c0.45,1.74,0.98,3.55,1.58,5.43c0.61,1.9,1.25,3.7,1.9,5.39c0.36,0.87,0.71,1.74,1.07,2.6
	c1.13,2.68,4.63,9.97,12.88,15c1.63,0.99,8.17,4.64,17.42,4.64c6.81,0,13.44-2.02,18.6-6c6.09-4.7,8.84-11.78,13.87-26.02
	c2.4-6.81,5.07-16.69,10.29-36.18c1.4-5.22,2.07-7.9,2.96-11.19c2.96-10.85,6.03-22.07,6.8-32.91
	C-3282.13-805.45-3285.01-814.45-3290.77-819.69z M-3391.2-794.52c0-5.73,4.65-10.38,10.38-10.38c5.73,0,10.38,4.65,10.38,10.38
	s-4.65,10.38-10.38,10.38C-3386.55-784.14-3391.2-788.79-3391.2-794.52z"/>
<path class="st3" d="M-3533.55-761.28c-10.58-8.68-37.34,1.24-39.76,12.2c-1.08,4.89,2.89,7.4,6.09,18.74
	c0.42,1.47,3.27,11.99,1.07,22.48c-2.21,10.53-10.63,27.23-25.24,29.04c-12.95,1.61-23.75-9.32-27.86-13.49
	c-2.9-2.94-4.35-4.4-4.89-6.67c-2.43-10.26,15.04-16.67,14.68-28.71c-0.23-7.9-8.11-16.97-16.93-17.08v-0.01
	c-0.03,0-0.06,0.01-0.08,0.01c-0.03,0-0.06-0.01-0.08-0.01v0.01c-8.82,0.12-16.69,9.18-16.93,17.08
	c-0.36,12.05,17.12,18.45,14.68,28.71c-0.54,2.26-1.99,3.73-4.89,6.67c-4.11,4.16-14.92,15.1-27.86,13.49
	c-14.61-1.82-23.02-18.51-25.24-29.04c-2.21-10.49,0.65-21.01,1.07-22.48c3.2-11.35,7.17-13.86,6.09-18.74
	c-2.42-10.97-29.18-20.89-39.76-12.2c-7.81,6.41-2.57,18.06,15.47,87.47c5.45,20.96,8.08,33.84,20.15,41.22
	c2.82,1.73,13.4,7.58,24.25,4.17c21.39-6.74,22.15-42.74,32.88-42.78c10.74-0.03,11.71,36.07,33.25,42.78
	c10.92,3.4,21.51-2.49,24.25-4.17c12.06-7.38,14.7-20.26,20.15-41.22C-3530.98-743.22-3525.74-754.87-3533.55-761.28z
	 M-3626.48-717.96c-5.26-0.05-9.51-4.32-9.51-9.59s4.25-9.55,9.51-9.59c5.26,0.05,9.51,4.32,9.51,9.59S-3621.22-718-3626.48-717.96z
	"/>
<path class="st4" d="M-3335.34-449.36c-17.44-14.79-70.17,10.23-70.3,29.9c-0.04,5.14,2.78,6.99,6.09,18.74
	c0.42,1.47,3.27,11.99,1.07,22.48c-2.21,10.53-10.63,27.23-25.24,29.04c-12.95,1.61-23.75-9.32-27.86-13.49
	c-2.9-2.94-4.35-4.4-4.89-6.67c-2.43-10.26,15.04-16.67,14.68-28.71c-0.23-7.9-8.11-16.97-16.93-17.08v-0.01
	c-0.03,0-0.06,0.01-0.08,0.01c-0.03,0-0.06-0.01-0.08-0.01v0.01c-8.82,0.12-16.69,9.18-16.93,17.08
	c-0.36,12.05,17.12,18.45,14.68,28.71c-0.54,2.26-1.99,3.73-4.89,6.67c-4.11,4.16-14.92,15.1-27.86,13.49
	c-14.61-1.82-23.02-18.51-25.24-29.04c-2.21-10.49,0.65-21.01,1.07-22.48c3.31-11.75,6.13-13.61,6.09-18.74
	c-0.14-19.67-52.86-44.69-70.3-29.9c-6.34,5.38-8.86,16.74-5.39,20.04c3.2,3.04,9.07-3.07,15.87-2.02
	c8.35,1.3,17.6,13.34,35.54,87.15c4.71,19.37,7.67,33.59,20.15,41.22c2.82,1.73,13.4,7.58,24.25,4.17
	c21.39-6.74,22.15-42.74,32.88-42.78c0.06,0,0.12,0.02,0.19,0.02c0.06,0,0.12-0.02,0.19-0.02c10.72,0.03,11.49,36.04,32.88,42.78
	c10.84,3.42,21.42-2.44,24.25-4.17c12.48-7.63,15.44-21.85,20.15-41.22c17.93-73.8,27.19-85.85,35.54-87.15
	c6.8-1.06,12.67,5.06,15.87,2.02C-3326.48-432.62-3328.99-443.98-3335.34-449.36z M-3458.8-388.35c-5.26-0.05-9.51-4.32-9.51-9.59
	c0-5.27,4.25-9.55,9.51-9.59c5.26,0.05,9.51,4.32,9.51,9.59C-3449.29-392.67-3453.54-388.39-3458.8-388.35z"/>
<path class="st4" d="M-3674.23-619.63c-17.44-14.79-70.17,10.23-70.3,29.9c-0.04,5.14,2.78,6.99,6.09,18.74
	c0.42,1.47,3.27,11.99,1.07,22.48c-2.21,10.53-10.63,27.23-25.24,29.04c-12.95,1.61-23.75-9.32-27.86-13.49
	c-2.9-2.94-4.35-4.4-4.89-6.67c-2.43-10.26,15.04-16.67,14.68-28.71c-0.23-7.9-8.11-16.97-16.93-17.08v-0.01
	c-0.03,0-0.06,0.01-0.08,0.01c-0.03,0-0.06-0.01-0.08-0.01v0.01c-8.82,0.12-16.69,9.18-16.93,17.08
	c-0.36,12.05,17.12,18.45,14.68,28.71c-0.54,2.26-1.99,3.73-4.89,6.67c-4.11,4.16-14.92,15.1-27.86,13.49
	c-14.61-1.82-23.02-18.51-25.24-29.04c-2.21-10.49,0.65-21.01,1.07-22.48c3.31-11.75,6.13-13.61,6.09-18.74
	c-0.14-19.67-52.86-44.69-70.3-29.9c-6.34,5.38-8.86,16.74-5.39,20.04c3.2,3.04,9.07-3.07,15.87-2.02
	c8.35,1.3,17.6,13.34,35.54,87.15c4.71,19.37,7.67,33.59,20.15,41.22c2.82,1.73,13.4,7.58,24.25,4.17
	c21.39-6.74,22.15-42.74,32.88-42.78c0.06,0,0.12,0.02,0.19,0.02c0.06,0,0.12-0.02,0.19-0.02c10.72,0.03,11.49,36.04,32.88,42.78
	c10.84,3.42,21.42-2.44,24.25-4.17c12.48-7.63,15.44-21.85,20.15-41.22c17.93-73.8,27.19-85.85,35.54-87.15
	c6.8-1.06,12.67,5.06,15.87,2.02C-3665.37-602.89-3667.88-614.25-3674.23-619.63z M-3797.69-558.61c-5.26-0.05-9.51-4.32-9.51-9.59
	c0-5.27,4.25-9.55,9.51-9.59c5.26,0.05,9.51,4.32,9.51,9.59C-3788.18-562.93-3792.43-558.66-3797.69-558.61z"/>
<g>
	<g>
		<circle class="st0" cx="-4127.72" cy="552.45" r="3.42"/>
		<circle class="st0" cx="-4132.85" cy="572.97" r="1.71"/>
		<circle class="st0" cx="-4112.2" cy="570.39" r="2.59"/>
	</g>
	<g>
		<circle class="st0" cx="-4042.7" cy="552.45" r="3.42"/>
		<circle class="st0" cx="-4037.56" cy="572.97" r="1.71"/>
		<circle class="st0" cx="-4058.22" cy="570.39" r="2.59"/>
	</g>
</g>
<path class="st0" d="M-2170.56,495.09c-17.54-14.18-73.18,11.37-73.92,35.91c-0.07,2.42,0.46,2.46,1.66,8.07
	c1.47,6.87,8.17,38.09-7.56,53.33c-1.25,1.21-5.52,5.11-12.15,6.81c-16.17,4.16-36.03-7.39-36.44-17.48
	c-0.39-9.49,16.59-13.28,18.4-29.02c0.55-4.82-0.4-8.32-0.88-9.74c-2.31-6.88-9.37-15.63-19.95-15.58
	c-10.58-0.05-17.64,8.7-19.95,15.58c-0.48,1.42-1.43,4.92-0.88,9.74c1.81,15.74,18.79,19.53,18.4,29.02
	c-0.41,10.09-20.27,21.64-36.44,17.48c-6.63-1.71-10.9-5.6-12.15-6.81c-15.73-15.24-9.03-46.47-7.56-53.33
	c1.2-5.61,1.74-5.65,1.66-8.07c-0.74-24.54-56.38-50.09-73.92-35.91c-6.51,5.26-8.83,16.84-5.39,20.04
	c3.15,2.93,8.6-3.52,15.87-2.02c11.62,2.4,17.31,22.96,28.11,63.54c0.7,2.63,1.36,5.22,2.96,11.19
	c5.23,19.49,7.89,29.37,10.29,36.18c5.03,14.24,7.77,21.31,13.87,26.02c5.16,3.98,11.79,6,18.6,6c5.95,0,12.04-1.54,17.42-4.64
	c5.34-3.08,9.45-7.81,12.58-14.4c0.5-1.08,1-2.16,1.5-3.23l-0.13,0.04c1.41-3.54,2.51-7.22,3.48-10.84l0.01,0.02l0.61-2.39
	c0.2-0.79,0.4-1.57,0.6-2.36c0.91-4.31,2.43-10.63,4.9-18.17c3.12-9.51,4.47-10.93,5.56-10.92c1.09-0.01,2.45,1.4,5.56,10.92
	c2.47,7.54,3.99,13.86,4.9,18.17c0.2,0.79,0.4,1.57,0.6,2.36l0.61,2.39l0.01-0.02c0.96,3.62,2.07,7.3,3.48,10.84l-0.13-0.04
	c0.5,1.08,1,2.16,1.5,3.23c3.13,6.59,7.24,11.32,12.58,14.4c5.38,3.11,11.47,4.64,17.42,4.64c6.81,0,13.44-2.02,18.6-6
	c6.09-4.7,8.84-11.78,13.87-26.02c2.4-6.81,5.07-16.69,10.29-36.18c1.6-5.97,2.26-8.56,2.96-11.19
	c10.8-40.57,16.49-61.13,28.11-63.54c7.26-1.5,12.72,4.94,15.87,2.02C-2161.74,511.93-2164.05,500.35-2170.56,495.09z
	 M-2301.41,556.1c-5.6,0-10.15-4.54-10.15-10.15c0-5.6,4.54-10.15,10.15-10.15s10.15,4.54,10.15,10.15
	C-2291.26,551.56-2295.8,556.1-2301.41,556.1z"/>
<g>
	<g>
		<circle class="st0" cx="-2343.92" cy="559.53" r="3.42"/>
		<circle class="st0" cx="-2349.05" cy="580.05" r="1.71"/>
		<circle class="st0" cx="-2328.4" cy="577.46" r="2.59"/>
	</g>
	<g>
		<circle class="st0" cx="-2258.89" cy="559.53" r="3.42"/>
		<circle class="st0" cx="-2253.76" cy="580.05" r="1.71"/>
		<circle class="st0" cx="-2274.41" cy="577.46" r="2.59"/>
	</g>
</g>
<circle class="st1" cx="2185.13" cy="2364.41" r="101.67"/>
<rect x="1343.52" y="1344.26" class="st5" width="1300" height="1307.47"/>
<rect x="2683.68" y="1348" class="st5" width="1304.05" height="1300"/>
<g>
	<path class="st0" d="M1810.44,2023.18c-0.25,2.54-0.7,5.04-1.34,7.44c-2.43,9.06-6.6,17.81-12.38,26.04l0.02,0.02l-0.83,1.15
		l-0.78,1.07l-0.03-0.02c-3.44,4.61-7.33,8.91-11.59,12.82l0.02,0.03l-0.99,0.88l-1.06,0.95l-0.02-0.02
		c-15.29,13.21-33.12,20.19-50.55,20.19c-7.27,0-14.46-1.21-21.37-3.68c-7.07-2.53-13.61-6.28-19.44-11.17
		c-0.62-0.52-1.24-1.05-1.84-1.6c-19.25-17.47-25.22-47.55-14.85-74.86c8.49-22.35,26.17-39.88,47.42-47.14l0-0.03l1-0.33l1.7-0.55
		l0,0.07c5.34-1.58,10.82-2.49,16.34-2.72l-0.02-0.07l1.79-0.03l1.05-0.02l0.01,0.04c11.36,0.03,22.43,2.87,32.88,8.56
		c5.11,2.78,9.75,6.16,13.79,10.04c0.99,0.95,2.03,2.06,3.15,3.3l0.02,0l0.6,0.68l1.37,1.56l-0.06,0.02
		c6.01,7.26,10.7,15.97,13.44,24.92l0.05-0.04l0.55,2.01c0,0,0,0.01,0,0.01l0.24,0.87l-0.03,0.02
		C1810.44,2010.36,1811.05,2016.95,1810.44,2023.18z M1736.54,2050.82c6.36,0.8,12.11-1.74,16.24-7.15
		c8.37-10.98,14.84-32.07,2.99-44.58c-3.99-4.21-9.04-6.03-14.6-5.23c-7.89,1.12-16.18,7.37-20.62,15.54l-0.01,0.02
		c-1.08,1.98-1.86,3.96-2.34,5.87c-1.63,6.58-1.8,12.63-0.5,18c0.27,1.11,0.66,2.25,1.22,3.59l0.01,0.01
		C1722.1,2044.4,1729.01,2049.87,1736.54,2050.82z"/>
	<path class="st0" d="M1965.26,2023.18c-0.25,2.54-0.7,5.04-1.34,7.44c-2.43,9.06-6.6,17.81-12.38,26.04l0.02,0.02l-0.83,1.15
		l-0.78,1.07l-0.03-0.02c-3.44,4.61-7.33,8.91-11.59,12.82l0.02,0.03l-0.99,0.88l-1.06,0.95l-0.02-0.02
		c-15.29,13.21-33.12,20.19-50.55,20.19c-7.27,0-14.46-1.21-21.37-3.68c-7.07-2.53-13.61-6.28-19.44-11.17
		c-0.62-0.52-1.24-1.05-1.84-1.6c-19.25-17.47-25.22-47.55-14.85-74.86c8.49-22.35,26.17-39.88,47.42-47.14l0-0.03l1-0.33l1.7-0.55
		l0,0.07c5.34-1.58,10.82-2.49,16.34-2.72l-0.02-0.07l1.79-0.03l1.05-0.02l0.01,0.04c11.36,0.03,22.43,2.87,32.88,8.56
		c5.11,2.78,9.75,6.16,13.79,10.04c0.99,0.95,2.03,2.06,3.15,3.3l0.02,0l0.6,0.68l1.37,1.56l-0.06,0.02
		c6.01,7.26,10.7,15.97,13.44,24.92l0.05-0.04l0.55,2.01c0,0,0,0.01,0,0.01l0.24,0.87l-0.03,0.02
		C1965.26,2010.36,1965.87,2016.95,1965.26,2023.18z M1891.35,2050.82c6.36,0.8,12.11-1.74,16.24-7.15
		c8.37-10.98,14.84-32.07,2.99-44.58c-3.99-4.21-9.04-6.03-14.6-5.23c-7.89,1.12-16.18,7.37-20.62,15.54l-0.01,0.02
		c-1.08,1.98-1.86,3.96-2.34,5.87c-1.63,6.58-1.8,12.63-0.5,18c0.27,1.11,0.66,2.25,1.22,3.59l0.01,0.01
		C1876.92,2044.4,1883.83,2049.87,1891.35,2050.82z"/>
	<path class="st0" d="M2089.87,1936.3c-3.05,11.36-15.25,13.92-25.97,11.41c-1.83-0.43-3.79-0.98-5.81-1.55
		c-10.44-2.96-22.28-6.3-28,4.62c-2.75,5.25-1.74,11.06,2.58,14.81c1.11,0.96,2.4,1.75,3.83,2.33c4.69,1.91,10.42,1.55,15.96,1.21
		c1.74-0.11,3.45-0.21,5.08-0.25c8.15-0.18,18.16,0.39,22.88,6.16c2.65,3.25,3.35,7.79,2.07,13.5c-1.26,5.62-4.62,10.44-9.23,13.36
		l-0.01,0.04l-0.48,0.29c0,0-0.01,0.01-0.01,0.01l-2.83,1.67l0.08-0.33c-1.07,0.43-2.16,0.78-3.27,1.01
		c-2.45,0.51-4.94,0.68-7.47,0.68c-0.94,0-1.9-0.06-2.85-0.1l0.03,0.05l-2.55-0.14c-0.01,0-0.02,0-0.03,0l-0.68-0.04l-0.07,0
		c-9.8-0.54-17.54-0.97-21.33,10.95c-2.44,7.67-2.12,15.9-1.82,23.87c0.07,1.93,0.15,3.86,0.18,5.78c0.05,2.38,0.04,4.76,0.02,7.14
		l0.01,0.01l-0.01,1.11c0,0.01,0,0.02,0,0.02l-0.01,1.66c-0.05,5.8-0.09,11.79,0.29,17.67l0.08,1.17l-0.03,0
		c0.46,7.22-2.08,13.93-7.02,18.42c-3.81,3.46-8.63,5.28-13.88,5.28c-1.31,0-2.65-0.12-4.01-0.34
		c-22.14-3.74-21.01-26.9-20.27-42.23c0.49-10.22,0.61-20.86,0.34-31.63c-0.14-5.67-0.64-11.39-1.06-15.75
		c-0.23-2.39-0.48-4.78-0.72-7.17c-0.3-2.9-0.58-5.81-0.85-8.71l-0.02,0.01l-0.19-2.14l-0.08-0.87l0.01,0
		c-1.08-12.67-1.49-26.2,2.28-39.65c5.68-20.22,20.1-35.51,38.57-40.88c3.58-1.04,7.42-1.83,11.37-2.41l0-0.04l1.25-0.17l1.48-0.2
		l0,0.03c10.19-1.19,20.56-0.68,29.56,1.47l0.01-0.04l1.48,0.39l1.19,0.31l0,0.02c1.6,0.45,3.1,0.91,4.48,1.42
		C2087.32,1914.29,2093.1,1924.3,2089.87,1936.3z"/>
	<path class="st0" d="M2208.89,2049.25c0,13.94-5.26,24.97-15.65,32.81c-10.27,7.75-25.51,11.67-45.3,11.67
		c-7.73,0-14.87-0.56-21.24-1.67c-2.57-0.45-5.08-1.03-7.49-1.7l-0.02,0.02l-0.78-0.23c-0.01,0-0.01,0-0.02-0.01l-2.21-0.64
		l0.04-0.04c-5.33-1.76-9.79-4.03-13.29-6.76l-0.02,0.13l-1.86-1.72l-0.55-0.51l0.01-0.05c-1.31-1.29-2.47-2.63-3.37-4.04
		c-3.65-5.66-3.46-12.62,0.49-18.16c3.96-5.55,10.53-7.99,17.13-6.36c3.6,0.89,7.25,2.14,10.78,3.35
		c10.87,3.73,21.14,7.25,31.86,1.99c1.36-0.67,2.65-1.53,3.74-2.49l0.01-0.01c2.11-1.85,3.31-3.96,3.39-5.93
		c0.06-1.58-0.61-3.12-1.95-4.59l-0.66-0.62c-0.01,0-0.01-0.01-0.02-0.01l-0.01,0c-4.59-4.29-12.22-5.48-18.96-6.53
		c-1.61-0.25-3.17-0.49-4.62-0.77c-14.27-2.69-24.98-7.36-32.76-14.25c-4.14-3.67-7.17-8.3-9.07-13.71l-0.05-0.02l-0.18-0.55
		c0,0,0,0,0-0.01l-1.01-3.05l0.17,0.08c-0.85-3.46-1.29-7.17-1.29-11.08c0-0.03,0-0.06,0-0.09l-0.08,0.07l0.21-3.12v0l0.04-0.6
		l0.03-0.03c1.79-22.1,20.01-37.05,48.95-40.14l0.02-0.02l0.55-0.05l3.4-0.34l-0.12,0.14c2.8-0.19,5.62-0.25,8.45-0.19l-0.12-0.13
		l3.4,0.18c0.02,0,0.04,0,0.05,0l0.5,0.03l0.01,0.01c6.29,0.38,12.48,1.35,17.92,2.86c7.92,2.18,21.14,8.8,25.11,18.11
		c1.76,4.1,1.53,8.25-0.66,12.33c-2.7,5.02-7.21,7.34-13.69,7.15v0.06l-1.49-0.11l-1.26-0.11v-0.06c-3.5-0.43-7.05-1.37-10.22-2.24
		c-1.03-0.28-2.02-0.55-2.96-0.79c-1.11-0.28-2.8-0.6-4.65-0.89c-10.81-1.65-24.82-1.84-28.77,3.06c-1.27,1.57-1.39,3.64-0.36,6.32
		c2.81,7.36,14.49,9.31,22.21,10.6c1.02,0.17,1.98,0.33,2.87,0.49c11.48,2.1,24.53,5.53,34.31,15.06
		C2205.16,2028.55,2208.9,2037.93,2208.89,2049.25z"/>
	<path class="st0" d="M2312.52,2069.74l0.07-0.01l-0.01,1.6l-0.01,1.18l-0.1,0.01c-0.26,3.9-1.58,7.64-3.91,10.61
		c-6.56,8.39-18.28,9.99-26.53,10.47c-1.49,0.09-3.18,0.15-5.01,0.15c-10.45,0-25.59-1.9-36.38-11.33l-3.11-2.71l0.37,0.03
		c-1.31-1.42-2.5-2.92-3.52-4.51c-0.46-0.72-0.9-1.49-1.33-2.31l-0.07,0.27l-1.52-3.73c0-0.01-0.01-0.02-0.01-0.02l-0.18-0.43
		l0.01-0.04c-3.6-9.17-3.63-19.23-3.64-28.97c-0.01-9.1-0.01-18.19,0-27.28l0-14.88c0-3.68,0.01-7.37,0.02-11.05
		c0.02-5.73,0.04-11.45,0.01-17.18c-0.02-4.94-0.08-9.88-0.2-14.81l-0.08-3.09l0.01,0.01c-0.28-10.07-0.38-23.39,9.88-29.77
		c4.81-2.98,10.73-3.99,16.34-2.83l0.04-0.01l0.38,0.08c0,0,0.01,0,0.01,0l4.73,1.08l-0.74,0.25c0.97,0.42,1.92,0.87,2.79,1.42
		c1.92,1.21,3.5,2.62,4.82,4.23l0.06-1.12l2.33,4.76l0.16,0.32l0,0.07c1.86,4.01,2.42,8.54,2.98,13.33l0.08,0.71
		c1.31,11.15,9.05,12.02,18.02,13.03c4.8,0.54,9.78,1.1,13.97,3.33c6.33,3.37,10.48,12.42,9.25,20.16
		c-1.76,11.1-11.38,11.96-18.92,12.25v0l-2,0.07c-3.26,0.11-6.35,0.21-8.98,0.81c-5.31,1.21-8.82,4.56-10.73,10.24l0,0.01
		c-2.74,8.15-1.64,19.49-0.75,28.6c0.31,3.17,0.6,6.17,0.69,8.66c0.19,5.36,1.97,9.47,5.28,12.21c4.61,3.81,11.2,4.18,15.89,3.8
		c1.18-0.09,2.38-0.22,3.58-0.42c4.43-0.74,8.3,0.17,11.18,2.62C2310.5,2061.93,2312.19,2065.57,2312.52,2069.74z"/>
	<path class="st0" d="M2452.81,2079.09l-1.83,2.43c0,0.01-0.01,0.01-0.01,0.02l-0.37,0.47l-0.06,0.01
		c-6.01,7.26-16.51,11.8-23.84,13.49c-7.66,1.76-15.44,2.63-23.1,2.63c-17.16,0-33.69-4.33-46.81-12.59
		c-14.76-9.3-24.58-23.19-28.39-40.19c-0.64-2.83-1.13-5.96-1.52-9.23l-0.05,0.03l-0.2-1.95l-0.1-0.96l0.02-0.01
		c-0.5-5.43-0.53-10.89-0.09-16.26l-0.02-0.01l0.09-0.96l0.18-1.95l0.06,0.03c0.87-7.51,2.59-14.41,5.2-20.46
		c4.35-10.06,11.07-18.5,19.95-25.12l0-0.03l0.48-0.35l2.54-1.86l-0.01,0.11c6.08-4.02,12.85-7.04,20.2-9.01l-0.08-0.05l2.98-0.67
		l0.6-0.13l0.02,0.02c12.9-2.8,26.33-2.24,38.87,1.69c25.63,8.01,37.55,26.15,34.49,52.47c-2.61,22.38-32.2,26.4-43.33,27.92
		c-2.59,0.35-5.23,0.61-7.88,0.86c-6.65,0.64-13.52,1.31-19.73,3.63c-2.37,0.88-4.05,2.33-4.85,4.17c-0.74,1.7-0.71,3.68,0.09,5.72
		l0,0.01c0.6,1.52,1.55,2.91,2.83,4.14c2.31,2.22,5.29,3.95,8.87,5.17c13.09,4.44,31.35,0.68,42.78-4.69
		c0.77-0.36,1.63-0.66,2.5-0.95l0.02-0.05l0.58-0.18l2.96-0.91l-0.11,0.24c5.73-0.98,12.45,0.1,15.77,6.1
		c3.27,5.9,3.28,11.82,0.09,17.26L2452.81,2079.09z M2412.21,1991.75c-3.96-2.12-9.18-3.24-14.6-3.2
		c-8.13,0.09-15.86,2.79-21.22,7.4c-2.96,2.55-4.4,5.93-3.93,9.27c0.44,3.18,2.63,5.9,5.99,7.45c8.83,4.08,23.88,0.29,31.84-3.26
		c1.62-0.72,3.2-1.73,4.58-2.94l0.01-0.01c2.39-2.08,3.76-4.41,3.87-6.56c0.08-1.65-0.58-3.25-1.97-4.74
		C2415.57,1993.87,2414.07,1992.75,2412.21,1991.75L2412.21,1991.75z"/>
	<path class="st0" d="M2568.25,1971.27l-0.26,1.57l-0.2,1.17l-0.08,0c-0.58,2.38-1.65,4.58-3.25,6.53
		c-5.51,6.73-12.92,6.74-20.07,6.74c-3.86,0-7.85,0.01-11.44,1.11c-13.4,4.1-13.68,20.72-13.88,32.85l-0.02,1.26
		c-0.1,5.61,0.21,11.33,0.51,16.86c0.33,6.05,0.67,12.31,0.48,18.51l-0.06,2.14c-0.22,8.28-0.47,17.67-5.1,24.81
		c-0.91,1.4-1.96,2.67-3.14,3.79c-3.54,3.35-8.41,5.13-13.81,5.13c-1.29,0-2.61-0.13-3.94-0.33l-0.02,0.04l-0.9-0.17
		c-0.01,0-0.01,0-0.02,0l-2.02-0.38l0.08-0.12c-1.86-0.48-3.65-1.08-5.27-1.89c-9.16-4.59-10.77-13.13-10.97-21.8l-0.01,0l-0.03-1.7
		c-0.13-8.01-0.54-16.19-0.93-24.09c-0.33-6.65-0.66-13.52-0.84-20.31l-0.01,0l-0.02-0.73l-0.06-2.59l0.04,0.02
		c-0.07-3.97-0.06-7.87,0.04-11.68l-0.04,0.02l0.09-2.59l0.02-0.73l0.01,0c0.19-5.57,0.51-10.21,1-14.47
		c2.26-19.86,17.39-29.6,29.68-34.27c23.07-8.77,41.54-9.16,54.97-1.21l0.02-0.03l1.2,0.74c0.03,0.02,0.06,0.05,0.09,0.07l1.05,0.67
		l-0.06,0.07c4.82,3.63,7.47,9.26,7.06,15L2568.25,1971.27z"/>
	<path class="st0" d="M1687.45,1936c-17.54-14.18-73.18,11.37-73.92,35.91c-0.07,2.42,0.46,2.46,1.66,8.07
		c1.47,6.87,8.17,38.09-7.56,53.33c-1.25,1.21-5.52,5.11-12.15,6.81c-16.17,4.16-36.03-7.39-36.44-17.48
		c-0.39-9.49,16.59-13.28,18.4-29.02c0.55-4.82-0.4-8.32-0.88-9.74c-2.31-6.88-9.37-15.63-19.95-15.58
		c-10.58-0.05-17.64,8.7-19.95,15.58c-0.48,1.42-1.43,4.92-0.88,9.74c1.81,15.74,18.79,19.53,18.4,29.02
		c-0.41,10.09-20.27,21.64-36.44,17.48c-6.63-1.71-10.9-5.6-12.15-6.81c-15.73-15.24-9.03-46.47-7.56-53.33
		c1.2-5.61,1.74-5.65,1.66-8.07c-0.74-24.54-56.38-50.09-73.92-35.91c-6.51,5.26-8.83,16.84-5.39,20.04
		c3.15,2.93,8.6-3.52,15.87-2.02c11.62,2.4,17.31,22.96,28.11,63.54c0.7,2.63,1.36,5.22,2.96,11.19
		c5.23,19.49,7.89,29.37,10.29,36.18c5.03,14.24,7.77,21.31,13.87,26.02c5.16,3.98,11.79,6,18.6,6c5.95,0,12.04-1.54,17.42-4.64
		c5.34-3.08,9.45-7.81,12.58-14.4c0.5-1.08,1-2.16,1.5-3.23l-0.13,0.04c1.41-3.54,2.51-7.22,3.48-10.84l0.01,0.02l0.61-2.39
		c0.2-0.79,0.4-1.57,0.6-2.36c0.91-4.31,2.43-10.63,4.9-18.17c3.12-9.51,4.47-10.93,5.56-10.92c1.09-0.01,2.45,1.4,5.56,10.92
		c2.47,7.54,3.99,13.86,4.9,18.17c0.2,0.79,0.4,1.57,0.6,2.36l0.61,2.39l0.01-0.02c0.96,3.62,2.07,7.3,3.48,10.84l-0.13-0.04
		c0.5,1.08,1,2.16,1.5,3.23c3.13,6.59,7.24,11.32,12.58,14.4c5.38,3.11,11.47,4.64,17.42,4.64c6.81,0,13.44-2.02,18.6-6
		c6.09-4.7,8.84-11.78,13.87-26.02c2.4-6.81,5.07-16.69,10.29-36.18c1.6-5.97,2.26-8.56,2.96-11.19
		c10.8-40.57,16.49-61.13,28.11-63.54c7.26-1.5,12.72,4.94,15.87,2.02C1696.27,1952.84,1693.96,1941.26,1687.45,1936z
		 M1556.6,1997.01c-5.6,0-10.15-4.54-10.15-10.15c0-5.6,4.54-10.15,10.15-10.15s10.15,4.54,10.15,10.15
		C1566.75,1992.47,1562.21,1997.01,1556.6,1997.01z"/>
</g>
<path class="st0" d="M3468.58,1919.56c-17.54-14.18-73.18,11.37-73.92,35.91c-0.07,2.42,0.46,2.46,1.66,8.07
	c1.47,6.87,8.17,38.09-7.56,53.33c-1.25,1.21-5.52,5.11-12.15,6.81c-16.17,4.16-36.03-7.39-36.44-17.48
	c-0.39-9.49,16.59-13.28,18.4-29.02c0.55-4.82-0.4-8.32-0.88-9.74c-2.31-6.88-9.37-15.63-19.95-15.58
	c-10.58-0.05-17.64,8.7-19.95,15.58c-0.48,1.42-1.43,4.92-0.88,9.74c1.81,15.74,18.79,19.53,18.4,29.02
	c-0.41,10.09-20.27,21.64-36.44,17.48c-6.63-1.71-10.9-5.6-12.15-6.81c-15.73-15.24-9.03-46.47-7.56-53.33
	c1.2-5.61,1.74-5.65,1.66-8.07c-0.74-24.54-56.38-50.09-73.92-35.91c-6.51,5.26-8.83,16.84-5.39,20.04
	c3.15,2.93,8.6-3.52,15.87-2.02c11.62,2.4,17.31,22.96,28.11,63.54c0.7,2.63,1.36,5.22,2.96,11.19
	c5.23,19.49,7.89,29.37,10.29,36.18c5.03,14.24,7.77,21.31,13.87,26.02c5.16,3.98,11.79,6,18.6,6c5.95,0,12.04-1.54,17.42-4.64
	c5.34-3.08,9.45-7.81,12.58-14.4c0.5-1.08,1-2.16,1.5-3.23l-0.13,0.04c1.41-3.54,2.51-7.22,3.48-10.84l0.01,0.02l0.61-2.39
	c0.2-0.79,0.4-1.57,0.6-2.36c0.91-4.31,2.43-10.63,4.9-18.17c3.12-9.51,4.47-10.93,5.56-10.92c1.09-0.01,2.45,1.4,5.56,10.92
	c2.47,7.54,3.99,13.86,4.9,18.17c0.2,0.79,0.4,1.57,0.6,2.36l0.61,2.39l0.01-0.02c0.96,3.62,2.07,7.3,3.48,10.84l-0.13-0.04
	c0.5,1.08,1,2.16,1.5,3.23c3.13,6.59,7.24,11.32,12.58,14.4c5.38,3.11,11.47,4.64,17.42,4.64c6.81,0,13.44-2.02,18.6-6
	c6.09-4.7,8.84-11.78,13.87-26.02c2.4-6.81,5.07-16.69,10.29-36.18c1.6-5.97,2.26-8.56,2.96-11.19
	c10.8-40.57,16.49-61.13,28.11-63.54c7.26-1.5,12.72,4.94,15.87,2.02C3477.4,1936.4,3475.09,1924.82,3468.58,1919.56z
	 M3337.73,1980.57c-5.6,0-10.15-4.54-10.15-10.15c0-5.6,4.54-10.15,10.15-10.15s10.15,4.54,10.15,10.15
	C3347.88,1976.03,3343.34,1980.57,3337.73,1980.57z"/>
<path d="M882.99,510.33c-31.24-25.24-130.31,20.24-131.64,63.94c-0.13,4.31,0.82,4.38,2.96,14.37
	c2.62,12.23,14.55,67.83-13.45,94.97c-2.23,2.16-9.83,9.1-21.63,12.14c-28.8,7.41-64.16-13.16-64.9-31.13
	c-0.69-16.89,29.54-23.64,32.77-51.68c0.99-8.58-0.72-14.82-1.57-17.34c-4.12-12.24-16.69-27.83-35.53-27.73
	c-18.84-0.09-31.41,15.49-35.53,27.73c-0.85,2.52-2.55,8.76-1.57,17.34c3.22,28.03,33.46,34.78,32.77,51.68
	c-0.74,17.97-36.1,38.54-64.9,31.13c-11.8-3.04-19.4-9.98-21.63-12.14c-28.01-27.14-16.08-82.74-13.45-94.97
	c2.14-9.99,3.09-10.06,2.96-14.37c-1.32-43.7-100.39-89.19-131.64-63.94c-11.59,9.37-15.72,29.99-9.6,35.68
	c5.6,5.21,15.32-6.27,28.25-3.59c20.69,4.28,30.83,40.89,50.06,113.14c1.24,4.68,2.42,9.29,5.28,19.92
	c9.31,34.7,14.05,52.3,18.33,64.43c8.95,25.36,13.84,37.95,24.69,46.33c9.19,7.09,21,10.69,33.13,10.69
	c10.59,0,21.44-2.74,31.02-8.27c9.5-5.49,16.83-13.91,22.4-25.64c0.89-1.92,1.78-3.84,2.67-5.76l-0.24,0.06
	c2.51-6.31,4.47-12.85,6.19-19.31l0.02,0.03l1.09-4.25c0.36-1.4,0.71-2.8,1.07-4.19c1.63-7.67,4.33-18.92,8.73-32.35
	c5.55-16.94,7.96-19.46,9.91-19.44c1.95-0.02,4.35,2.5,9.91,19.44c4.4,13.42,7.1,24.68,8.73,32.35c0.36,1.4,0.71,2.8,1.07,4.19
	l1.09,4.25l0.02-0.03c1.72,6.45,3.68,13,6.19,19.31l-0.24-0.06c0.89,1.92,1.78,3.84,2.67,5.76c5.57,11.73,12.9,20.15,22.4,25.64
	c9.58,5.53,20.42,8.27,31.02,8.27c12.13,0,23.94-3.59,33.13-10.69c10.85-8.37,15.74-20.97,24.69-46.33
	c4.28-12.12,9.02-29.72,18.33-64.43c2.85-10.63,4.03-15.24,5.28-19.92c19.23-72.25,29.37-108.86,50.06-113.14
	c12.93-2.68,22.65,8.8,28.25,3.59C898.71,540.31,894.58,519.69,882.99,510.33z M650,618.98c-9.98,0-18.07-8.09-18.07-18.07
	c0-9.98,8.09-18.07,18.07-18.07s18.07,8.09,18.07,18.07C668.07,610.89,659.98,618.98,650,618.98z"/>
<rect x="1340.16" y="2687.59" class="st1" width="1306.72" height="1300"/>
<rect x="2677.59" y="2687.86" class="st1" width="1300" height="1308.36"/>
<g>
	<path class="st6" d="M1814.83,3359.04c-0.25,2.54-0.7,5.04-1.34,7.44c-2.43,9.06-6.6,17.81-12.38,26.04l0.02,0.02l-0.83,1.15
		l-0.78,1.07l-0.03-0.02c-3.44,4.61-7.33,8.91-11.59,12.82l0.02,0.03l-0.99,0.88l-1.06,0.95l-0.02-0.02
		c-15.29,13.21-33.12,20.19-50.55,20.19c-7.27,0-14.46-1.21-21.37-3.68c-7.07-2.53-13.61-6.28-19.44-11.17
		c-0.62-0.52-1.24-1.05-1.84-1.6c-19.25-17.47-25.22-47.55-14.85-74.86c8.49-22.35,26.17-39.88,47.42-47.14l0-0.03l1-0.33l1.7-0.55
		l0,0.07c5.34-1.58,10.82-2.49,16.34-2.72l-0.02-0.07l1.79-0.03l1.05-0.02l0.01,0.04c11.36,0.03,22.43,2.87,32.88,8.56
		c5.11,2.78,9.75,6.16,13.79,10.04c0.99,0.95,2.03,2.06,3.15,3.3l0.02,0l0.6,0.68l1.37,1.56l-0.06,0.02
		c6.01,7.26,10.7,15.97,13.44,24.92l0.05-0.04l0.55,2.01c0,0,0,0.01,0,0.01l0.24,0.87l-0.03,0.02
		C1814.83,3346.21,1815.44,3352.8,1814.83,3359.04z M1740.92,3386.68c6.36,0.8,12.11-1.74,16.24-7.15
		c8.37-10.98,14.84-32.07,2.99-44.58c-3.99-4.21-9.04-6.03-14.6-5.23c-7.89,1.12-16.18,7.37-20.62,15.54l-0.01,0.02
		c-1.08,1.98-1.86,3.96-2.34,5.87c-1.63,6.58-1.8,12.63-0.5,18c0.27,1.11,0.66,2.25,1.22,3.59l0.01,0.01
		C1726.49,3380.26,1733.4,3385.72,1740.92,3386.68z"/>
	<path class="st6" d="M1969.64,3359.04c-0.25,2.54-0.7,5.04-1.34,7.44c-2.43,9.06-6.6,17.81-12.38,26.04l0.02,0.02l-0.83,1.15
		l-0.78,1.07l-0.03-0.02c-3.44,4.61-7.33,8.91-11.59,12.82l0.02,0.03l-0.99,0.88l-1.06,0.95l-0.02-0.02
		c-15.29,13.21-33.12,20.19-50.55,20.19c-7.27,0-14.46-1.21-21.37-3.68c-7.07-2.53-13.61-6.28-19.44-11.17
		c-0.62-0.52-1.24-1.05-1.84-1.6c-19.25-17.47-25.22-47.55-14.85-74.86c8.49-22.35,26.17-39.88,47.42-47.14l0-0.03l1-0.33l1.7-0.55
		l0,0.07c5.34-1.58,10.82-2.49,16.34-2.72l-0.02-0.07l1.79-0.03l1.05-0.02l0.01,0.04c11.36,0.03,22.43,2.87,32.88,8.56
		c5.11,2.78,9.75,6.16,13.79,10.04c0.99,0.95,2.03,2.06,3.15,3.3l0.02,0l0.6,0.68l1.37,1.56l-0.06,0.02
		c6.01,7.26,10.7,15.97,13.44,24.92l0.05-0.04l0.55,2.01c0,0,0,0.01,0,0.01l0.24,0.87l-0.03,0.02
		C1969.64,3346.21,1970.25,3352.8,1969.64,3359.04z M1895.74,3386.68c6.36,0.8,12.11-1.74,16.24-7.15
		c8.37-10.98,14.84-32.07,2.99-44.58c-3.99-4.21-9.04-6.03-14.6-5.23c-7.89,1.12-16.18,7.37-20.62,15.54l-0.01,0.02
		c-1.08,1.98-1.86,3.96-2.34,5.87c-1.63,6.58-1.8,12.63-0.5,18c0.27,1.11,0.66,2.25,1.22,3.59l0.01,0.01
		C1881.3,3380.26,1888.21,3385.72,1895.74,3386.68z"/>
	<path class="st6" d="M2094.25,3272.16c-3.05,11.36-15.25,13.92-25.97,11.41c-1.83-0.43-3.79-0.98-5.81-1.55
		c-10.44-2.96-22.28-6.3-28,4.62c-2.75,5.25-1.74,11.06,2.58,14.81c1.11,0.96,2.4,1.75,3.83,2.33c4.69,1.91,10.42,1.55,15.96,1.21
		c1.74-0.11,3.45-0.21,5.08-0.25c8.15-0.18,18.16,0.39,22.88,6.16c2.65,3.25,3.35,7.79,2.07,13.5c-1.26,5.62-4.62,10.44-9.23,13.36
		l-0.01,0.04l-0.48,0.29c0,0-0.01,0.01-0.01,0.01l-2.83,1.67l0.08-0.33c-1.07,0.43-2.16,0.78-3.27,1.01
		c-2.45,0.51-4.94,0.68-7.47,0.68c-0.94,0-1.9-0.06-2.85-0.1l0.03,0.05l-2.55-0.14c-0.01,0-0.02,0-0.03,0l-0.68-0.04l-0.07,0
		c-9.8-0.54-17.54-0.97-21.33,10.95c-2.44,7.67-2.12,15.9-1.82,23.87c0.07,1.93,0.15,3.86,0.18,5.78c0.05,2.38,0.04,4.76,0.02,7.14
		l0.01,0.01l-0.01,1.11c0,0.01,0,0.02,0,0.02l-0.01,1.66c-0.05,5.8-0.09,11.79,0.29,17.67l0.08,1.17l-0.03,0
		c0.46,7.22-2.08,13.93-7.02,18.42c-3.81,3.46-8.63,5.28-13.88,5.28c-1.31,0-2.65-0.12-4.01-0.34
		c-22.14-3.74-21.01-26.9-20.27-42.23c0.49-10.22,0.61-20.86,0.34-31.63c-0.14-5.67-0.64-11.39-1.06-15.75
		c-0.23-2.39-0.48-4.78-0.72-7.17c-0.3-2.9-0.58-5.81-0.85-8.71l-0.02,0.01l-0.19-2.14l-0.08-0.87l0.01,0
		c-1.08-12.67-1.49-26.2,2.28-39.65c5.68-20.22,20.1-35.51,38.57-40.88c3.58-1.04,7.42-1.83,11.37-2.41l0-0.04l1.25-0.17l1.48-0.2
		l0,0.03c10.19-1.19,20.56-0.68,29.56,1.47l0.01-0.04l1.48,0.39l1.19,0.31l0,0.02c1.6,0.45,3.1,0.91,4.48,1.42
		C2091.71,3250.14,2097.48,3260.15,2094.25,3272.16z"/>
	<path class="st6" d="M2213.27,3385.11c0,13.94-5.26,24.97-15.65,32.81c-10.27,7.75-25.51,11.67-45.3,11.67
		c-7.73,0-14.87-0.56-21.24-1.67c-2.57-0.45-5.08-1.03-7.49-1.7l-0.02,0.02l-0.78-0.23c-0.01,0-0.01,0-0.02-0.01l-2.21-0.64
		l0.04-0.04c-5.33-1.76-9.79-4.03-13.29-6.76l-0.02,0.13l-1.86-1.72l-0.55-0.51l0.01-0.05c-1.31-1.29-2.47-2.63-3.37-4.04
		c-3.65-5.66-3.46-12.62,0.49-18.16c3.96-5.55,10.53-7.99,17.13-6.36c3.6,0.89,7.25,2.14,10.78,3.35
		c10.87,3.73,21.14,7.25,31.86,1.99c1.36-0.67,2.65-1.53,3.74-2.49l0.01-0.01c2.11-1.85,3.31-3.96,3.39-5.93
		c0.06-1.58-0.61-3.12-1.95-4.59l-0.66-0.62c-0.01,0-0.01-0.01-0.02-0.01l-0.01,0c-4.59-4.29-12.22-5.48-18.96-6.53
		c-1.61-0.25-3.17-0.49-4.62-0.77c-14.27-2.69-24.98-7.36-32.76-14.25c-4.14-3.67-7.17-8.3-9.07-13.71l-0.05-0.02l-0.18-0.55
		c0,0,0,0,0-0.01l-1.01-3.05l0.17,0.08c-0.85-3.46-1.29-7.17-1.29-11.08c0-0.03,0-0.06,0-0.09l-0.08,0.07l0.21-3.12v0l0.04-0.6
		l0.03-0.03c1.79-22.1,20.01-37.05,48.95-40.14l0.02-0.02l0.55-0.05l3.4-0.34l-0.12,0.14c2.8-0.19,5.62-0.25,8.45-0.19l-0.12-0.13
		l3.4,0.18c0.02,0,0.04,0,0.05,0l0.5,0.03l0.01,0.01c6.29,0.38,12.48,1.35,17.92,2.86c7.92,2.18,21.14,8.8,25.11,18.11
		c1.76,4.1,1.53,8.25-0.66,12.33c-2.7,5.02-7.21,7.34-13.69,7.15v0.06l-1.49-0.11l-1.26-0.11v-0.06c-3.5-0.43-7.05-1.37-10.22-2.24
		c-1.03-0.28-2.02-0.55-2.96-0.79c-1.11-0.28-2.8-0.6-4.65-0.89c-10.81-1.65-24.82-1.84-28.77,3.06c-1.27,1.57-1.39,3.64-0.36,6.32
		c2.81,7.36,14.49,9.31,22.21,10.6c1.02,0.17,1.98,0.33,2.87,0.49c11.48,2.1,24.53,5.53,34.31,15.06
		C2209.54,3364.4,2213.28,3373.79,2213.27,3385.11z"/>
	<path class="st6" d="M2316.9,3405.59l0.07-0.01l-0.01,1.6l-0.01,1.18l-0.1,0.01c-0.26,3.9-1.58,7.64-3.91,10.61
		c-6.56,8.39-18.28,9.99-26.53,10.47c-1.49,0.09-3.18,0.15-5.01,0.15c-10.45,0-25.59-1.9-36.38-11.33l-3.11-2.71l0.37,0.03
		c-1.31-1.42-2.5-2.92-3.52-4.51c-0.46-0.72-0.9-1.49-1.33-2.31l-0.07,0.27l-1.52-3.73c0-0.01-0.01-0.02-0.01-0.02l-0.18-0.43
		l0.01-0.04c-3.6-9.17-3.63-19.23-3.64-28.97c-0.01-9.1-0.01-18.19,0-27.28l0-14.88c0-3.68,0.01-7.37,0.02-11.05
		c0.02-5.73,0.04-11.45,0.01-17.18c-0.02-4.94-0.08-9.88-0.2-14.81l-0.08-3.09l0.01,0.01c-0.28-10.07-0.38-23.39,9.88-29.77
		c4.81-2.98,10.73-3.99,16.34-2.83l0.04-0.01l0.38,0.08c0,0,0.01,0,0.01,0l4.73,1.08l-0.74,0.25c0.97,0.42,1.92,0.87,2.79,1.42
		c1.92,1.21,3.5,2.62,4.82,4.23l0.06-1.12l2.33,4.76l0.16,0.32l0,0.07c1.86,4.01,2.42,8.54,2.98,13.33l0.08,0.71
		c1.31,11.15,9.05,12.02,18.02,13.03c4.8,0.54,9.78,1.1,13.97,3.33c6.33,3.37,10.48,12.42,9.25,20.16
		c-1.76,11.1-11.38,11.96-18.92,12.25v0l-2,0.07c-3.26,0.11-6.35,0.21-8.98,0.81c-5.31,1.21-8.82,4.56-10.73,10.24l0,0.01
		c-2.74,8.15-1.64,19.49-0.75,28.6c0.31,3.17,0.6,6.17,0.69,8.66c0.19,5.36,1.97,9.47,5.28,12.21c4.61,3.81,11.2,4.18,15.89,3.8
		c1.18-0.09,2.38-0.22,3.58-0.42c4.43-0.74,8.3,0.17,11.18,2.62C2314.89,3397.79,2316.58,3401.43,2316.9,3405.59z"/>
	<path class="st6" d="M2457.2,3414.95l-1.83,2.43c0,0.01-0.01,0.01-0.01,0.02l-0.37,0.47l-0.06,0.01
		c-6.01,7.26-16.51,11.8-23.84,13.49c-7.66,1.76-15.44,2.63-23.1,2.63c-17.16,0-33.69-4.33-46.81-12.59
		c-14.76-9.3-24.58-23.19-28.39-40.19c-0.64-2.83-1.13-5.96-1.52-9.23l-0.05,0.03l-0.2-1.95l-0.1-0.96l0.02-0.01
		c-0.5-5.43-0.53-10.89-0.09-16.26l-0.02-0.01l0.09-0.96l0.18-1.95l0.06,0.03c0.87-7.51,2.59-14.41,5.2-20.46
		c4.35-10.06,11.07-18.5,19.95-25.12l0-0.03l0.48-0.35l2.54-1.86l-0.01,0.11c6.08-4.02,12.85-7.04,20.2-9.01l-0.08-0.05l2.98-0.67
		l0.6-0.13l0.02,0.02c12.9-2.8,26.33-2.24,38.87,1.69c25.63,8.01,37.55,26.15,34.49,52.47c-2.61,22.38-32.2,26.4-43.33,27.92
		c-2.59,0.35-5.23,0.61-7.88,0.86c-6.65,0.64-13.52,1.31-19.73,3.63c-2.37,0.88-4.05,2.33-4.85,4.17c-0.74,1.7-0.71,3.68,0.09,5.72
		l0,0.01c0.6,1.52,1.55,2.91,2.83,4.14c2.31,2.22,5.29,3.95,8.87,5.17c13.09,4.44,31.35,0.68,42.78-4.69
		c0.77-0.36,1.63-0.66,2.5-0.95l0.02-0.05l0.58-0.18l2.96-0.91l-0.11,0.24c5.73-0.98,12.45,0.1,15.77,6.1
		c3.27,5.9,3.28,11.82,0.09,17.26L2457.2,3414.95z M2416.59,3327.6c-3.96-2.12-9.18-3.24-14.6-3.2c-8.13,0.09-15.86,2.79-21.22,7.4
		c-2.96,2.55-4.4,5.93-3.93,9.27c0.44,3.18,2.63,5.9,5.99,7.45c8.83,4.08,23.88,0.29,31.84-3.26c1.62-0.72,3.2-1.73,4.58-2.94
		l0.01-0.01c2.39-2.08,3.76-4.41,3.87-6.56c0.08-1.65-0.58-3.25-1.97-4.74C2419.96,3329.72,2418.46,3328.6,2416.59,3327.6
		L2416.59,3327.6z"/>
	<path class="st6" d="M2572.64,3307.13l-0.26,1.57l-0.2,1.17l-0.08,0c-0.58,2.38-1.65,4.58-3.25,6.53
		c-5.51,6.73-12.92,6.74-20.07,6.74c-3.86,0-7.85,0.01-11.44,1.11c-13.4,4.1-13.68,20.72-13.88,32.85l-0.02,1.26
		c-0.1,5.61,0.21,11.33,0.51,16.86c0.33,6.05,0.67,12.31,0.48,18.51l-0.06,2.14c-0.22,8.28-0.47,17.67-5.1,24.81
		c-0.91,1.4-1.96,2.67-3.14,3.79c-3.54,3.35-8.41,5.13-13.81,5.13c-1.29,0-2.61-0.13-3.94-0.33l-0.02,0.04l-0.9-0.17
		c-0.01,0-0.01,0-0.02,0l-2.02-0.38l0.08-0.12c-1.86-0.48-3.65-1.08-5.27-1.89c-9.16-4.59-10.77-13.13-10.97-21.8l-0.01,0l-0.03-1.7
		c-0.13-8.01-0.54-16.19-0.93-24.09c-0.33-6.65-0.66-13.52-0.84-20.31l-0.01,0l-0.02-0.73l-0.06-2.59l0.04,0.02
		c-0.07-3.97-0.06-7.87,0.04-11.68l-0.04,0.02l0.09-2.59l0.02-0.73l0.01,0c0.19-5.57,0.51-10.21,1-14.47
		c2.26-19.86,17.39-29.6,29.68-34.27c23.07-8.77,41.54-9.16,54.97-1.21l0.02-0.03l1.2,0.74c0.03,0.02,0.06,0.05,0.09,0.07l1.05,0.67
		l-0.06,0.07c4.82,3.63,7.47,9.26,7.06,15L2572.64,3307.13z"/>
	<path class="st6" d="M1691.83,3271.85c-17.54-14.18-73.18,11.37-73.92,35.91c-0.07,2.42,0.46,2.46,1.66,8.07
		c1.47,6.87,8.17,38.09-7.56,53.33c-1.25,1.21-5.52,5.11-12.15,6.81c-16.17,4.16-36.03-7.39-36.44-17.48
		c-0.39-9.49,16.59-13.28,18.4-29.02c0.55-4.82-0.4-8.32-0.88-9.74c-2.31-6.88-9.37-15.63-19.95-15.58
		c-10.58-0.05-17.64,8.7-19.95,15.58c-0.48,1.42-1.43,4.92-0.88,9.74c1.81,15.74,18.79,19.53,18.4,29.02
		c-0.41,10.09-20.27,21.64-36.44,17.48c-6.63-1.71-10.9-5.6-12.15-6.81c-15.73-15.24-9.03-46.47-7.56-53.33
		c1.2-5.61,1.74-5.65,1.66-8.07c-0.74-24.54-56.38-50.09-73.92-35.91c-6.51,5.26-8.83,16.84-5.39,20.04
		c3.15,2.93,8.6-3.52,15.87-2.02c11.62,2.4,17.31,22.96,28.11,63.54c0.7,2.63,1.36,5.22,2.96,11.19
		c5.23,19.49,7.89,29.37,10.29,36.18c5.03,14.24,7.77,21.31,13.87,26.02c5.16,3.98,11.79,6,18.6,6c5.95,0,12.04-1.54,17.42-4.64
		c5.34-3.08,9.45-7.81,12.58-14.4c0.5-1.08,1-2.16,1.5-3.23l-0.13,0.04c1.41-3.54,2.51-7.22,3.48-10.84l0.01,0.02l0.61-2.39
		c0.2-0.79,0.4-1.57,0.6-2.36c0.91-4.31,2.43-10.63,4.9-18.17c3.12-9.51,4.47-10.93,5.56-10.92c1.09-0.01,2.45,1.4,5.56,10.92
		c2.47,7.54,3.99,13.86,4.9,18.17c0.2,0.79,0.4,1.57,0.6,2.36l0.61,2.39l0.01-0.02c0.96,3.62,2.07,7.3,3.48,10.84l-0.13-0.04
		c0.5,1.08,1,2.16,1.5,3.23c3.13,6.59,7.24,11.32,12.58,14.4c5.38,3.11,11.47,4.64,17.42,4.64c6.81,0,13.44-2.02,18.6-6
		c6.09-4.7,8.84-11.78,13.87-26.02c2.4-6.81,5.07-16.69,10.29-36.18c1.6-5.97,2.26-8.56,2.96-11.19
		c10.8-40.57,16.49-61.13,28.11-63.54c7.26-1.5,12.72,4.94,15.87,2.02C1700.66,3288.69,1698.34,3277.11,1691.83,3271.85z
		 M1560.99,3332.87c-5.6,0-10.15-4.54-10.15-10.15c0-5.6,4.54-10.15,10.15-10.15s10.15,4.54,10.15,10.15
		C1571.14,3328.33,1566.59,3332.87,1560.99,3332.87z"/>
</g>
<path class="st6" d="M3458.43,3261.75c-17.54-14.18-73.18,11.37-73.92,35.91c-0.07,2.42,0.46,2.46,1.66,8.07
	c1.47,6.87,8.17,38.09-7.56,53.33c-1.25,1.21-5.52,5.11-12.15,6.81c-16.17,4.16-36.03-7.39-36.44-17.48
	c-0.39-9.49,16.59-13.28,18.4-29.02c0.55-4.82-0.4-8.32-0.88-9.74c-2.31-6.88-9.37-15.63-19.95-15.58
	c-10.58-0.05-17.64,8.7-19.95,15.58c-0.48,1.42-1.43,4.92-0.88,9.74c1.81,15.74,18.79,19.53,18.4,29.02
	c-0.41,10.09-20.27,21.64-36.44,17.48c-6.63-1.71-10.9-5.6-12.15-6.81c-15.73-15.24-9.03-46.47-7.56-53.33
	c1.2-5.61,1.74-5.65,1.66-8.07c-0.74-24.54-56.38-50.09-73.92-35.91c-6.51,5.26-8.83,16.84-5.39,20.04
	c3.15,2.93,8.6-3.52,15.87-2.02c11.62,2.4,17.31,22.96,28.11,63.54c0.7,2.63,1.36,5.22,2.96,11.19
	c5.23,19.49,7.89,29.37,10.29,36.18c5.03,14.24,7.77,21.31,13.87,26.02c5.16,3.98,11.79,6,18.6,6c5.95,0,12.04-1.54,17.42-4.64
	c5.34-3.08,9.45-7.81,12.58-14.4c0.5-1.08,1-2.16,1.5-3.23l-0.13,0.04c1.41-3.54,2.51-7.22,3.48-10.84l0.01,0.02l0.61-2.39
	c0.2-0.79,0.4-1.57,0.6-2.36c0.91-4.31,2.43-10.63,4.9-18.17c3.12-9.51,4.47-10.93,5.56-10.92c1.09-0.01,2.45,1.4,5.56,10.92
	c2.47,7.54,3.99,13.86,4.9,18.17c0.2,0.79,0.4,1.57,0.6,2.36l0.61,2.39l0.01-0.02c0.96,3.62,2.07,7.3,3.48,10.84l-0.13-0.04
	c0.5,1.08,1,2.16,1.5,3.23c3.13,6.59,7.24,11.32,12.58,14.4c5.38,3.11,11.47,4.64,17.42,4.64c6.81,0,13.44-2.02,18.6-6
	c6.09-4.7,8.84-11.78,13.87-26.02c2.4-6.81,5.07-16.69,10.29-36.18c1.6-5.97,2.26-8.56,2.96-11.19
	c10.8-40.57,16.49-61.13,28.11-63.54c7.26-1.5,12.72,4.94,15.87,2.02C3467.26,3278.59,3464.94,3267.01,3458.43,3261.75z
	 M3327.59,3322.77c-5.6,0-10.15-4.54-10.15-10.15c0-5.6,4.54-10.15,10.15-10.15s10.15,4.54,10.15,10.15
	C3337.73,3318.23,3333.19,3322.77,3327.59,3322.77z"/>
<g>
	<rect x="1340.61" y="14.83" class="st7" width="1305.83" height="1300"/>
	<path class="st2" d="M1810.44,678.03c-0.25,2.54-0.7,5.04-1.34,7.44c-2.43,9.06-6.6,17.81-12.38,26.04l0.02,0.02l-0.83,1.15
		l-0.78,1.07l-0.03-0.02c-3.44,4.61-7.33,8.91-11.59,12.82l0.02,0.03l-0.99,0.88l-1.06,0.95l-0.02-0.02
		c-15.29,13.21-33.12,20.19-50.55,20.19c-7.27,0-14.46-1.21-21.37-3.68c-7.07-2.53-13.61-6.28-19.44-11.17
		c-0.62-0.52-1.24-1.05-1.84-1.6c-19.25-17.47-25.22-47.55-14.85-74.86c8.49-22.35,26.17-39.88,47.42-47.14l0-0.03l1-0.33l1.7-0.55
		l0,0.07c5.34-1.58,10.82-2.49,16.34-2.72l-0.02-0.07l1.79-0.03l1.05-0.02l0.01,0.04c11.36,0.03,22.43,2.87,32.88,8.56
		c5.11,2.78,9.75,6.16,13.79,10.04c0.99,0.95,2.03,2.06,3.15,3.3l0.02,0l0.6,0.68l1.37,1.56l-0.06,0.02
		c6.01,7.26,10.7,15.97,13.44,24.92l0.05-0.04l0.55,2.01c0,0,0,0.01,0,0.01l0.24,0.87l-0.03,0.02
		C1810.44,665.2,1811.05,671.79,1810.44,678.03z M1736.54,705.67c6.36,0.8,12.11-1.74,16.24-7.15c8.37-10.98,14.84-32.07,2.99-44.58
		c-3.99-4.21-9.04-6.03-14.6-5.23c-7.89,1.12-16.18,7.37-20.62,15.54l-0.01,0.02c-1.08,1.98-1.86,3.96-2.34,5.87
		c-1.63,6.58-1.8,12.63-0.5,18c0.27,1.11,0.66,2.25,1.22,3.59l0.01,0.01C1722.1,699.25,1729.01,704.71,1736.54,705.67z"/>
	<path class="st2" d="M1965.26,678.03c-0.25,2.54-0.7,5.04-1.34,7.44c-2.43,9.06-6.6,17.81-12.38,26.04l0.02,0.02l-0.83,1.15
		l-0.78,1.07l-0.03-0.02c-3.44,4.61-7.33,8.91-11.59,12.82l0.02,0.03l-0.99,0.88l-1.06,0.95l-0.02-0.02
		c-15.29,13.21-33.12,20.19-50.55,20.19c-7.27,0-14.46-1.21-21.37-3.68c-7.07-2.53-13.61-6.28-19.44-11.17
		c-0.62-0.52-1.24-1.05-1.84-1.6c-19.25-17.47-25.22-47.55-14.85-74.86c8.49-22.35,26.17-39.88,47.42-47.14l0-0.03l1-0.33l1.7-0.55
		l0,0.07c5.34-1.58,10.82-2.49,16.34-2.72l-0.02-0.07l1.79-0.03l1.05-0.02l0.01,0.04c11.36,0.03,22.43,2.87,32.88,8.56
		c5.11,2.78,9.75,6.16,13.79,10.04c0.99,0.95,2.03,2.06,3.15,3.3l0.02,0l0.6,0.68l1.37,1.56l-0.06,0.02
		c6.01,7.26,10.7,15.97,13.44,24.92l0.05-0.04l0.55,2.01c0,0,0,0.01,0,0.01l0.24,0.87l-0.03,0.02
		C1965.26,665.2,1965.87,671.79,1965.26,678.03z M1891.35,705.67c6.36,0.8,12.11-1.74,16.24-7.15c8.37-10.98,14.84-32.07,2.99-44.58
		c-3.99-4.21-9.04-6.03-14.6-5.23c-7.89,1.12-16.18,7.37-20.62,15.54l-0.01,0.02c-1.08,1.98-1.86,3.96-2.34,5.87
		c-1.63,6.58-1.8,12.63-0.5,18c0.27,1.11,0.66,2.25,1.22,3.59l0.01,0.01C1876.92,699.25,1883.83,704.71,1891.35,705.67z"/>
	<path class="st2" d="M2089.87,591.15c-3.05,11.36-15.25,13.92-25.97,11.41c-1.83-0.43-3.79-0.98-5.81-1.55
		c-10.44-2.96-22.28-6.3-28,4.62c-2.75,5.25-1.74,11.06,2.58,14.81c1.11,0.96,2.4,1.75,3.83,2.33c4.69,1.91,10.42,1.55,15.96,1.21
		c1.74-0.11,3.45-0.21,5.08-0.25c8.15-0.18,18.16,0.39,22.88,6.16c2.65,3.25,3.35,7.79,2.07,13.5c-1.26,5.62-4.62,10.44-9.23,13.36
		l-0.01,0.04l-0.48,0.29c0,0-0.01,0.01-0.01,0.01l-2.83,1.67l0.08-0.33c-1.07,0.43-2.16,0.78-3.27,1.01
		c-2.45,0.51-4.94,0.68-7.47,0.68c-0.94,0-1.9-0.06-2.85-0.1l0.03,0.05l-2.55-0.14c-0.01,0-0.02,0-0.03,0l-0.68-0.04l-0.07,0
		c-9.8-0.54-17.54-0.97-21.33,10.95c-2.44,7.67-2.12,15.9-1.82,23.87c0.07,1.93,0.15,3.86,0.18,5.78c0.05,2.38,0.04,4.76,0.02,7.14
		l0.01,0.01l-0.01,1.11c0,0.01,0,0.02,0,0.02l-0.01,1.66c-0.05,5.8-0.09,11.79,0.29,17.67l0.08,1.17l-0.03,0
		c0.46,7.22-2.08,13.93-7.02,18.42c-3.81,3.46-8.63,5.28-13.88,5.28c-1.31,0-2.65-0.12-4.01-0.34
		c-22.14-3.74-21.01-26.9-20.27-42.23c0.49-10.22,0.61-20.86,0.34-31.63c-0.14-5.67-0.64-11.39-1.06-15.75
		c-0.23-2.39-0.48-4.78-0.72-7.17c-0.3-2.9-0.58-5.81-0.85-8.71l-0.02,0.01l-0.19-2.14l-0.08-0.87l0.01,0
		c-1.08-12.67-1.49-26.2,2.28-39.65c5.68-20.22,20.1-35.51,38.57-40.88c3.58-1.04,7.42-1.83,11.37-2.41l0-0.04l1.25-0.17l1.48-0.2
		l0,0.03c10.19-1.19,20.56-0.68,29.56,1.47l0.01-0.04l1.48,0.39l1.19,0.31l0,0.02c1.6,0.45,3.1,0.91,4.48,1.42
		C2087.32,569.13,2093.1,579.14,2089.87,591.15z"/>
	<path class="st2" d="M2208.89,704.1c0,13.94-5.26,24.97-15.65,32.81c-10.27,7.75-25.51,11.67-45.3,11.67
		c-7.73,0-14.87-0.56-21.24-1.67c-2.57-0.45-5.08-1.03-7.49-1.7l-0.02,0.02l-0.78-0.23c-0.01,0-0.01,0-0.02-0.01l-2.21-0.64
		l0.04-0.04c-5.33-1.76-9.79-4.03-13.29-6.76l-0.02,0.13l-1.86-1.72l-0.55-0.51l0.01-0.05c-1.31-1.29-2.47-2.63-3.37-4.04
		c-3.65-5.66-3.46-12.62,0.49-18.16c3.96-5.55,10.53-7.99,17.13-6.36c3.6,0.89,7.25,2.14,10.78,3.35
		c10.87,3.73,21.14,7.25,31.86,1.99c1.36-0.67,2.65-1.53,3.74-2.49l0.01-0.01c2.11-1.85,3.31-3.96,3.39-5.93
		c0.06-1.58-0.61-3.12-1.95-4.59l-0.66-0.62c-0.01,0-0.01-0.01-0.02-0.01l-0.01,0c-4.59-4.29-12.22-5.48-18.96-6.53
		c-1.61-0.25-3.17-0.49-4.62-0.77c-14.27-2.69-24.98-7.36-32.76-14.25c-4.14-3.67-7.17-8.3-9.07-13.71l-0.05-0.02l-0.18-0.55
		c0,0,0,0,0-0.01l-1.01-3.05l0.17,0.08c-0.85-3.46-1.29-7.17-1.29-11.08c0-0.03,0-0.06,0-0.09l-0.08,0.07l0.21-3.12v0l0.04-0.6
		l0.03-0.03c1.79-22.1,20.01-37.05,48.95-40.14l0.02-0.02l0.55-0.05l3.4-0.34l-0.12,0.14c2.8-0.19,5.62-0.25,8.45-0.19l-0.12-0.13
		l3.4,0.18c0.02,0,0.04,0,0.05,0l0.5,0.03l0.01,0.01c6.29,0.38,12.48,1.35,17.92,2.86c7.92,2.18,21.14,8.8,25.11,18.11
		c1.76,4.1,1.53,8.25-0.66,12.33c-2.7,5.02-7.21,7.34-13.69,7.15v0.06l-1.49-0.11l-1.26-0.11v-0.06c-3.5-0.43-7.05-1.37-10.22-2.24
		c-1.03-0.28-2.02-0.55-2.96-0.79c-1.11-0.28-2.8-0.6-4.65-0.89c-10.81-1.65-24.82-1.84-28.77,3.06c-1.27,1.57-1.39,3.64-0.36,6.32
		c2.81,7.36,14.49,9.31,22.21,10.6c1.02,0.17,1.98,0.33,2.87,0.49c11.48,2.1,24.53,5.53,34.31,15.06
		C2205.16,683.39,2208.9,692.78,2208.89,704.1z"/>
	<path class="st2" d="M2312.52,724.58l0.07-0.01l-0.01,1.6l-0.01,1.18l-0.1,0.01c-0.26,3.9-1.58,7.64-3.91,10.61
		c-6.56,8.39-18.28,9.99-26.53,10.47c-1.49,0.09-3.18,0.15-5.01,0.15c-10.45,0-25.59-1.9-36.38-11.33l-3.11-2.71l0.37,0.03
		c-1.31-1.42-2.5-2.92-3.52-4.51c-0.46-0.72-0.9-1.49-1.33-2.31l-0.07,0.27l-1.52-3.73c0-0.01-0.01-0.02-0.01-0.02l-0.18-0.43
		l0.01-0.04c-3.6-9.17-3.63-19.23-3.64-28.97c-0.01-9.1-0.01-18.19,0-27.28l0-14.88c0-3.68,0.01-7.37,0.02-11.05
		c0.02-5.73,0.04-11.45,0.01-17.18c-0.02-4.94-0.08-9.88-0.2-14.81l-0.08-3.09l0.01,0.01c-0.28-10.07-0.38-23.39,9.88-29.77
		c4.81-2.98,10.73-3.99,16.34-2.83l0.04-0.01l0.38,0.08c0,0,0.01,0,0.01,0l4.73,1.08l-0.74,0.25c0.97,0.42,1.92,0.87,2.79,1.42
		c1.92,1.21,3.5,2.62,4.82,4.23l0.06-1.12l2.33,4.76l0.16,0.32l0,0.07c1.86,4.01,2.42,8.54,2.98,13.33l0.08,0.71
		c1.31,11.15,9.05,12.02,18.02,13.03c4.8,0.54,9.78,1.1,13.97,3.33c6.33,3.37,10.48,12.42,9.25,20.16
		c-1.76,11.1-11.38,11.96-18.92,12.25v0l-2,0.07c-3.26,0.11-6.35,0.21-8.98,0.81c-5.31,1.21-8.82,4.56-10.73,10.24l0,0.01
		c-2.74,8.15-1.64,19.49-0.75,28.6c0.31,3.17,0.6,6.17,0.69,8.66c0.19,5.36,1.97,9.47,5.28,12.21c4.61,3.81,11.2,4.18,15.89,3.8
		c1.18-0.09,2.38-0.22,3.58-0.42c4.43-0.74,8.3,0.17,11.18,2.62C2310.5,716.78,2312.19,720.42,2312.52,724.58z"/>
	<path class="st2" d="M2452.81,733.94l-1.83,2.43c0,0.01-0.01,0.01-0.01,0.02l-0.37,0.47l-0.06,0.01
		c-6.01,7.26-16.51,11.8-23.84,13.49c-7.66,1.76-15.44,2.63-23.1,2.63c-17.16,0-33.69-4.33-46.81-12.59
		c-14.76-9.3-24.58-23.19-28.39-40.19c-0.64-2.83-1.13-5.96-1.52-9.23l-0.05,0.03l-0.2-1.95l-0.1-0.96l0.02-0.01
		c-0.5-5.43-0.53-10.89-0.09-16.26l-0.02-0.01l0.09-0.96l0.18-1.95l0.06,0.03c0.87-7.51,2.59-14.41,5.2-20.46
		c4.35-10.06,11.07-18.5,19.95-25.12l0-0.03l0.48-0.35l2.54-1.86l-0.01,0.11c6.08-4.02,12.85-7.04,20.2-9.01l-0.08-0.05l2.98-0.67
		l0.6-0.13l0.02,0.02c12.9-2.8,26.33-2.24,38.87,1.69c25.63,8.01,37.55,26.15,34.49,52.47c-2.61,22.38-32.2,26.4-43.33,27.92
		c-2.59,0.35-5.23,0.61-7.88,0.86c-6.65,0.64-13.52,1.31-19.73,3.63c-2.37,0.88-4.05,2.33-4.85,4.17c-0.74,1.7-0.71,3.68,0.09,5.72
		l0,0.01c0.6,1.52,1.55,2.91,2.83,4.14c2.31,2.22,5.29,3.95,8.87,5.17c13.09,4.44,31.35,0.68,42.78-4.69
		c0.77-0.36,1.63-0.66,2.5-0.95l0.02-0.05l0.58-0.18l2.96-0.91l-0.11,0.24c5.73-0.98,12.45,0.1,15.77,6.1
		c3.27,5.9,3.28,11.82,0.09,17.26L2452.81,733.94z M2412.21,646.59c-3.96-2.12-9.18-3.24-14.6-3.2c-8.13,0.09-15.86,2.79-21.22,7.4
		c-2.96,2.55-4.4,5.93-3.93,9.27c0.44,3.18,2.63,5.9,5.99,7.45c8.83,4.08,23.88,0.29,31.84-3.26c1.62-0.72,3.2-1.73,4.58-2.94
		l0.01-0.01c2.39-2.08,3.76-4.41,3.87-6.56c0.08-1.65-0.58-3.25-1.97-4.74C2415.57,648.71,2414.07,647.59,2412.21,646.59
		L2412.21,646.59z"/>
	<path class="st2" d="M2568.25,626.12l-0.26,1.57l-0.2,1.17l-0.08,0c-0.58,2.38-1.65,4.58-3.25,6.53
		c-5.51,6.73-12.92,6.74-20.07,6.74c-3.86,0-7.85,0.01-11.44,1.11c-13.4,4.1-13.68,20.72-13.88,32.85l-0.02,1.26
		c-0.1,5.61,0.21,11.33,0.51,16.86c0.33,6.05,0.67,12.31,0.48,18.51l-0.06,2.14c-0.22,8.28-0.47,17.67-5.1,24.81
		c-0.91,1.4-1.96,2.67-3.14,3.79c-3.54,3.35-8.41,5.13-13.81,5.13c-1.29,0-2.61-0.13-3.94-0.33l-0.02,0.04l-0.9-0.17
		c-0.01,0-0.01,0-0.02,0l-2.02-0.38l0.08-0.12c-1.86-0.48-3.65-1.08-5.27-1.89c-9.16-4.59-10.77-13.13-10.97-21.8l-0.01,0l-0.03-1.7
		c-0.13-8.01-0.54-16.19-0.93-24.09c-0.33-6.65-0.66-13.52-0.84-20.31l-0.01,0l-0.02-0.73l-0.06-2.59l0.04,0.02
		c-0.07-3.97-0.06-7.87,0.04-11.68l-0.04,0.02l0.09-2.59l0.02-0.73l0.01,0c0.19-5.57,0.51-10.21,1-14.47
		c2.26-19.86,17.39-29.6,29.68-34.27c23.07-8.77,41.54-9.16,54.97-1.21l0.02-0.03l1.2,0.74c0.03,0.02,0.06,0.05,0.09,0.07l1.05,0.67
		l-0.06,0.07c4.82,3.63,7.47,9.26,7.06,15L2568.25,626.12z"/>
	<path class="st2" d="M1687.45,590.84c-17.54-14.18-73.18,11.37-73.92,35.91c-0.07,2.42,0.46,2.46,1.66,8.07
		c1.47,6.87,8.17,38.09-7.56,53.33c-1.25,1.21-5.52,5.11-12.15,6.81c-16.17,4.16-36.03-7.39-36.44-17.48
		c-0.39-9.49,16.59-13.28,18.4-29.02c0.55-4.82-0.4-8.32-0.88-9.74c-2.31-6.88-9.37-15.63-19.95-15.58
		c-10.58-0.05-17.64,8.7-19.95,15.58c-0.48,1.42-1.43,4.92-0.88,9.74c1.81,15.74,18.79,19.53,18.4,29.02
		c-0.41,10.09-20.27,21.64-36.44,17.48c-6.63-1.71-10.9-5.6-12.15-6.81c-15.73-15.24-9.03-46.47-7.56-53.33
		c1.2-5.61,1.74-5.65,1.66-8.07c-0.74-24.54-56.38-50.09-73.92-35.91c-6.51,5.26-8.83,16.84-5.39,20.04
		c3.15,2.93,8.6-3.52,15.87-2.02c11.62,2.4,17.31,22.96,28.11,63.54c0.7,2.63,1.36,5.22,2.96,11.19
		c5.23,19.49,7.89,29.37,10.29,36.18c5.03,14.24,7.77,21.31,13.87,26.02c5.16,3.98,11.79,6,18.6,6c5.95,0,12.04-1.54,17.42-4.64
		c5.34-3.08,9.45-7.81,12.58-14.4c0.5-1.08,1-2.16,1.5-3.23l-0.13,0.04c1.41-3.54,2.51-7.22,3.48-10.84l0.01,0.02l0.61-2.39
		c0.2-0.79,0.4-1.57,0.6-2.36c0.91-4.31,2.43-10.63,4.9-18.17c3.12-9.51,4.47-10.93,5.56-10.92c1.09-0.01,2.45,1.4,5.56,10.92
		c2.47,7.54,3.99,13.86,4.9,18.17c0.2,0.79,0.4,1.57,0.6,2.36l0.61,2.39l0.01-0.02c0.96,3.62,2.07,7.3,3.48,10.84l-0.13-0.04
		c0.5,1.08,1,2.16,1.5,3.23c3.13,6.59,7.24,11.32,12.58,14.4c5.38,3.11,11.47,4.64,17.42,4.64c6.81,0,13.44-2.02,18.6-6
		c6.09-4.7,8.84-11.78,13.87-26.02c2.4-6.81,5.07-16.69,10.29-36.18c1.6-5.97,2.26-8.56,2.96-11.19
		c10.8-40.57,16.49-61.13,28.11-63.54c7.26-1.5,12.72,4.94,15.87,2.02C1696.27,607.68,1693.96,596.1,1687.45,590.84z M1556.6,651.86
		c-5.6,0-10.15-4.54-10.15-10.15c0-5.6,4.54-10.15,10.15-10.15s10.15,4.54,10.15,10.15C1566.75,647.32,1562.21,651.86,1556.6,651.86
		z"/>
</g>
<path d="M-860.89,672.52c-0.25,2.54-0.7,5.04-1.34,7.44c-2.43,9.06-6.6,17.81-12.38,26.04l0.02,0.02l-0.83,1.15l-0.78,1.07
	l-0.03-0.02c-3.44,4.61-7.33,8.91-11.59,12.82l0.02,0.03l-0.99,0.88l-1.06,0.95l-0.02-0.02c-15.29,13.21-33.12,20.19-50.55,20.19
	c-7.27,0-14.46-1.21-21.37-3.68c-7.07-2.53-13.61-6.28-19.44-11.17c-0.62-0.52-1.24-1.05-1.84-1.6
	c-19.25-17.47-25.22-47.55-14.85-74.86c8.49-22.35,26.17-39.88,47.42-47.14l0-0.03l1-0.33l1.7-0.55l0,0.07
	c5.34-1.58,10.82-2.49,16.34-2.72l-0.02-0.07l1.79-0.03l1.05-0.02l0.01,0.04c11.36,0.03,22.43,2.87,32.88,8.56
	c5.11,2.78,9.75,6.16,13.79,10.04c0.99,0.95,2.03,2.06,3.15,3.3l0.02,0l0.6,0.68l1.37,1.56l-0.06,0.02
	c6.01,7.26,10.7,15.97,13.44,24.92l0.05-0.04l0.55,2.01c0,0,0,0.01,0,0.01l0.24,0.87l-0.03,0.02
	C-860.89,659.7-860.28,666.29-860.89,672.52z M-934.8,700.16c6.36,0.8,12.11-1.74,16.24-7.15c8.37-10.98,14.84-32.07,2.99-44.58
	c-3.99-4.21-9.04-6.03-14.6-5.23c-7.89,1.12-16.18,7.37-20.62,15.54l-0.01,0.02c-1.08,1.98-1.86,3.96-2.34,5.87
	c-1.63,6.58-1.8,12.63-0.5,18c0.27,1.11,0.66,2.25,1.22,3.59l0.01,0.01C-949.23,693.75-942.32,699.21-934.8,700.16z"/>
<path d="M-706.08,672.52c-0.25,2.54-0.7,5.04-1.34,7.44c-2.43,9.06-6.6,17.81-12.38,26.04l0.02,0.02l-0.83,1.15l-0.78,1.07
	l-0.03-0.02c-3.44,4.61-7.33,8.91-11.59,12.82l0.02,0.03l-0.99,0.88l-1.06,0.95l-0.02-0.02c-15.29,13.21-33.12,20.19-50.55,20.19
	c-7.27,0-14.46-1.21-21.37-3.68c-7.07-2.53-13.61-6.28-19.44-11.17c-0.62-0.52-1.24-1.05-1.84-1.6
	c-19.25-17.47-25.22-47.55-14.85-74.86c8.49-22.35,26.17-39.88,47.42-47.14l0-0.03l1-0.33l1.7-0.55l0,0.07
	c5.34-1.58,10.82-2.49,16.34-2.72l-0.02-0.07l1.79-0.03l1.05-0.02l0.01,0.04c11.36,0.03,22.43,2.87,32.88,8.56
	c5.11,2.78,9.75,6.16,13.79,10.04c0.99,0.95,2.03,2.06,3.15,3.3l0.02,0l0.6,0.68l1.37,1.56l-0.06,0.02
	c6.01,7.26,10.7,15.97,13.44,24.92l0.05-0.04l0.55,2.01c0,0,0,0.01,0,0.01l0.24,0.87l-0.03,0.02
	C-706.08,659.7-705.47,666.29-706.08,672.52z M-779.98,700.16c6.36,0.8,12.11-1.74,16.24-7.15c8.37-10.98,14.84-32.07,2.99-44.58
	c-3.99-4.21-9.04-6.03-14.6-5.23c-7.89,1.12-16.18,7.37-20.62,15.54l-0.01,0.02c-1.08,1.98-1.86,3.96-2.34,5.87
	c-1.63,6.58-1.8,12.63-0.5,18c0.27,1.11,0.66,2.25,1.22,3.59l0.01,0.01C-794.42,693.75-787.5,699.21-779.98,700.16z"/>
<path d="M-581.46,585.64c-3.05,11.36-15.25,13.92-25.97,11.41c-1.83-0.43-3.79-0.98-5.81-1.55c-10.44-2.96-22.28-6.3-28,4.62
	c-2.75,5.25-1.74,11.06,2.58,14.81c1.11,0.96,2.4,1.75,3.83,2.33c4.69,1.91,10.42,1.55,15.96,1.21c1.74-0.11,3.45-0.21,5.08-0.25
	c8.15-0.18,18.16,0.39,22.88,6.16c2.65,3.25,3.35,7.79,2.07,13.5c-1.26,5.62-4.62,10.44-9.23,13.36l-0.01,0.04l-0.48,0.29
	c0,0-0.01,0.01-0.01,0.01l-2.83,1.67l0.08-0.33c-1.07,0.43-2.16,0.78-3.27,1.01c-2.45,0.51-4.94,0.68-7.47,0.68
	c-0.94,0-1.9-0.06-2.85-0.1l0.03,0.05l-2.55-0.14c-0.01,0-0.02,0-0.03,0l-0.68-0.04l-0.07,0c-9.8-0.54-17.54-0.97-21.33,10.95
	c-2.44,7.67-2.12,15.9-1.82,23.87c0.07,1.93,0.15,3.86,0.18,5.78c0.05,2.38,0.04,4.76,0.02,7.14l0.01,0.01l-0.01,1.11
	c0,0.01,0,0.02,0,0.02l-0.01,1.66c-0.05,5.8-0.09,11.79,0.29,17.67l0.08,1.17l-0.03,0c0.46,7.22-2.08,13.93-7.02,18.42
	c-3.81,3.46-8.63,5.28-13.88,5.28c-1.31,0-2.65-0.12-4.01-0.34c-22.14-3.74-21.01-26.9-20.27-42.23
	c0.49-10.22,0.61-20.86,0.34-31.63c-0.14-5.67-0.64-11.39-1.06-15.75c-0.23-2.39-0.48-4.78-0.72-7.17c-0.3-2.9-0.58-5.81-0.85-8.71
	l-0.02,0.01l-0.19-2.14l-0.08-0.87l0.01,0c-1.08-12.67-1.49-26.2,2.28-39.65c5.68-20.22,20.1-35.51,38.57-40.88
	c3.58-1.04,7.42-1.83,11.37-2.41l0-0.04l1.25-0.17l1.48-0.2l0,0.03c10.19-1.19,20.56-0.68,29.56,1.47l0.01-0.04l1.48,0.39l1.19,0.31
	l0,0.02c1.6,0.45,3.1,0.91,4.48,1.42C-584.01,563.63-578.24,573.64-581.46,585.64z"/>
<path d="M-462.45,698.6c0,13.94-5.26,24.97-15.65,32.81c-10.27,7.75-25.51,11.67-45.3,11.67c-7.73,0-14.87-0.56-21.24-1.67
	c-2.57-0.45-5.08-1.03-7.49-1.7l-0.02,0.02l-0.78-0.23c-0.01,0-0.01,0-0.02-0.01l-2.21-0.64l0.04-0.04
	c-5.33-1.76-9.79-4.03-13.29-6.76l-0.02,0.13l-1.86-1.72l-0.55-0.51l0.01-0.05c-1.31-1.29-2.47-2.63-3.37-4.04
	c-3.65-5.66-3.46-12.62,0.49-18.16c3.96-5.55,10.53-7.99,17.13-6.36c3.6,0.89,7.25,2.14,10.78,3.35
	c10.87,3.73,21.14,7.25,31.86,1.99c1.36-0.67,2.65-1.53,3.74-2.49l0.01-0.01c2.11-1.85,3.31-3.96,3.39-5.93
	c0.06-1.58-0.61-3.12-1.95-4.59l-0.66-0.62c-0.01,0-0.01-0.01-0.02-0.01l-0.01,0c-4.59-4.29-12.22-5.48-18.96-6.53
	c-1.61-0.25-3.17-0.49-4.62-0.77c-14.27-2.69-24.98-7.36-32.76-14.25c-4.14-3.67-7.17-8.3-9.07-13.71l-0.05-0.02l-0.18-0.55
	c0,0,0,0,0-0.01l-1.01-3.05l0.17,0.08c-0.85-3.46-1.29-7.17-1.29-11.08c0-0.03,0-0.06,0-0.09l-0.08,0.07l0.21-3.12v0l0.04-0.6
	l0.03-0.03c1.79-22.1,20.01-37.05,48.95-40.14l0.02-0.02l0.55-0.05l3.4-0.34l-0.12,0.14c2.8-0.19,5.62-0.25,8.45-0.19l-0.12-0.13
	l3.4,0.18c0.02,0,0.04,0,0.05,0l0.5,0.03l0.01,0.01c6.29,0.38,12.48,1.35,17.92,2.86c7.92,2.18,21.14,8.8,25.11,18.11
	c1.76,4.1,1.53,8.25-0.66,12.33c-2.7,5.02-7.21,7.34-13.69,7.15v0.06l-1.49-0.11l-1.26-0.11v-0.06c-3.5-0.43-7.05-1.37-10.22-2.24
	c-1.03-0.28-2.02-0.55-2.96-0.79c-1.11-0.28-2.8-0.6-4.65-0.89c-10.81-1.65-24.82-1.84-28.77,3.06c-1.27,1.57-1.39,3.64-0.36,6.32
	c2.81,7.36,14.49,9.31,22.21,10.6c1.02,0.17,1.98,0.33,2.87,0.49c11.48,2.1,24.53,5.53,34.31,15.06
	C-466.18,677.89-462.44,687.28-462.45,698.6z"/>
<path d="M-358.82,719.08l0.07-0.01l-0.01,1.6l-0.01,1.18l-0.1,0.01c-0.26,3.9-1.58,7.64-3.91,10.61
	c-6.56,8.39-18.28,9.99-26.53,10.47c-1.49,0.09-3.18,0.15-5.01,0.15c-10.45,0-25.59-1.9-36.38-11.33l-3.11-2.71l0.37,0.03
	c-1.31-1.42-2.5-2.92-3.52-4.51c-0.46-0.72-0.9-1.49-1.33-2.31l-0.07,0.27l-1.52-3.73c0-0.01-0.01-0.02-0.01-0.02l-0.18-0.43
	l0.01-0.04c-3.6-9.17-3.63-19.23-3.64-28.97c-0.01-9.1-0.01-18.19,0-27.28l0-14.88c0-3.68,0.01-7.37,0.02-11.05
	c0.02-5.73,0.04-11.45,0.01-17.18c-0.02-4.94-0.08-9.88-0.2-14.81l-0.08-3.09l0.01,0.01c-0.28-10.07-0.38-23.39,9.88-29.77
	c4.81-2.98,10.73-3.99,16.34-2.83l0.04-0.01l0.38,0.08c0,0,0.01,0,0.01,0l4.73,1.08l-0.74,0.25c0.97,0.42,1.92,0.87,2.79,1.42
	c1.92,1.21,3.5,2.62,4.82,4.23l0.06-1.12l2.33,4.76l0.16,0.32l0,0.07c1.86,4.01,2.42,8.54,2.98,13.33l0.08,0.71
	c1.31,11.15,9.05,12.02,18.02,13.03c4.8,0.54,9.78,1.1,13.97,3.33c6.33,3.37,10.48,12.42,9.25,20.16
	c-1.76,11.1-11.38,11.96-18.92,12.25v0l-2,0.07c-3.26,0.11-6.35,0.21-8.98,0.81c-5.31,1.21-8.82,4.56-10.73,10.24l0,0.01
	c-2.74,8.15-1.64,19.49-0.75,28.6c0.31,3.17,0.6,6.17,0.69,8.66c0.19,5.36,1.97,9.47,5.28,12.21c4.61,3.81,11.2,4.18,15.89,3.8
	c1.18-0.09,2.38-0.22,3.58-0.42c4.43-0.74,8.3,0.17,11.18,2.62C-360.83,711.28-359.14,714.92-358.82,719.08z"/>
<path d="M-218.52,728.44l-1.83,2.43c0,0.01-0.01,0.01-0.01,0.02l-0.37,0.47l-0.06,0.01c-6.01,7.26-16.51,11.8-23.84,13.49
	c-7.66,1.76-15.44,2.63-23.1,2.63c-17.16,0-33.69-4.33-46.81-12.59c-14.76-9.3-24.58-23.19-28.39-40.19
	c-0.64-2.83-1.13-5.96-1.52-9.23l-0.05,0.03l-0.2-1.95l-0.1-0.96l0.02-0.01c-0.5-5.43-0.53-10.89-0.09-16.26l-0.02-0.01l0.09-0.96
	l0.18-1.95l0.06,0.03c0.87-7.51,2.59-14.41,5.2-20.46c4.35-10.06,11.07-18.5,19.95-25.12l0-0.03l0.48-0.35l2.54-1.86l-0.01,0.11
	c6.08-4.02,12.85-7.04,20.2-9.01l-0.08-0.05l2.98-0.67l0.6-0.13l0.02,0.02c12.9-2.8,26.33-2.24,38.87,1.69
	c25.63,8.01,37.55,26.15,34.49,52.47c-2.61,22.38-32.2,26.4-43.33,27.92c-2.59,0.35-5.23,0.61-7.88,0.86
	c-6.65,0.64-13.52,1.31-19.73,3.63c-2.37,0.88-4.05,2.33-4.85,4.17c-0.74,1.7-0.71,3.68,0.09,5.72l0,0.01
	c0.6,1.52,1.55,2.91,2.83,4.14c2.31,2.22,5.29,3.95,8.87,5.17c13.09,4.44,31.35,0.68,42.78-4.69c0.77-0.36,1.63-0.66,2.5-0.95
	l0.02-0.05l0.58-0.18l2.96-0.91l-0.11,0.24c5.73-0.98,12.45,0.1,15.77,6.1c3.27,5.9,3.28,11.82,0.09,17.26L-218.52,728.44z
	 M-259.13,641.09c-3.96-2.12-9.18-3.24-14.6-3.2c-8.13,0.09-15.86,2.79-21.22,7.4c-2.96,2.55-4.4,5.93-3.93,9.27
	c0.44,3.18,2.63,5.9,5.99,7.45c8.83,4.08,23.88,0.29,31.84-3.26c1.62-0.72,3.2-1.73,4.58-2.94l0.01-0.01
	c2.39-2.08,3.76-4.41,3.87-6.56c0.08-1.65-0.58-3.25-1.97-4.74C-255.76,643.21-257.26,642.09-259.13,641.09L-259.13,641.09z"/>
<path d="M-103.08,620.62l-0.26,1.57l-0.2,1.17l-0.08,0c-0.58,2.38-1.65,4.58-3.25,6.53c-5.51,6.73-12.92,6.74-20.07,6.74
	c-3.86,0-7.85,0.01-11.44,1.11c-13.4,4.1-13.68,20.72-13.88,32.85l-0.02,1.26c-0.1,5.61,0.21,11.33,0.51,16.86
	c0.33,6.05,0.67,12.31,0.48,18.51l-0.06,2.14c-0.22,8.28-0.47,17.67-5.1,24.81c-0.91,1.4-1.96,2.67-3.14,3.79
	c-3.54,3.35-8.41,5.13-13.81,5.13c-1.29,0-2.61-0.13-3.94-0.33l-0.02,0.04l-0.9-0.17c-0.01,0-0.01,0-0.02,0l-2.02-0.38l0.08-0.12
	c-1.86-0.48-3.65-1.08-5.27-1.89c-9.16-4.59-10.77-13.13-10.97-21.8l-0.01,0l-0.03-1.7c-0.13-8.01-0.54-16.19-0.93-24.09
	c-0.33-6.65-0.66-13.52-0.84-20.31l-0.01,0l-0.02-0.73l-0.06-2.59l0.04,0.02c-0.07-3.97-0.06-7.87,0.04-11.68l-0.04,0.02l0.09-2.59
	l0.02-0.73l0.01,0c0.19-5.57,0.51-10.21,1-14.47c2.26-19.86,17.39-29.6,29.68-34.27c23.07-8.77,41.54-9.16,54.97-1.21l0.02-0.03
	l1.2,0.74c0.03,0.02,0.06,0.05,0.09,0.07l1.05,0.67l-0.06,0.07c4.82,3.63,7.47,9.26,7.06,15L-103.08,620.62z"/>
<path d="M-983.89,585.34c-17.54-14.18-73.18,11.37-73.92,35.91c-0.07,2.42,0.46,2.46,1.66,8.07c1.47,6.87,8.17,38.09-7.56,53.33
	c-1.25,1.21-5.52,5.11-12.15,6.81c-16.17,4.16-36.03-7.39-36.44-17.48c-0.39-9.49,16.59-13.28,18.4-29.02
	c0.55-4.82-0.4-8.32-0.88-9.74c-2.31-6.88-9.37-15.63-19.95-15.58c-10.58-0.05-17.64,8.7-19.95,15.58
	c-0.48,1.42-1.43,4.92-0.88,9.74c1.81,15.74,18.79,19.53,18.4,29.02c-0.41,10.09-20.27,21.64-36.44,17.48
	c-6.63-1.71-10.9-5.6-12.15-6.81c-15.73-15.24-9.03-46.47-7.56-53.33c1.2-5.61,1.74-5.65,1.66-8.07
	c-0.74-24.54-56.38-50.09-73.92-35.91c-6.51,5.26-8.83,16.84-5.39,20.04c3.15,2.93,8.6-3.52,15.87-2.02
	c11.62,2.4,17.31,22.96,28.11,63.54c0.7,2.63,1.36,5.22,2.96,11.19c5.23,19.49,7.89,29.37,10.29,36.18
	c5.03,14.24,7.77,21.31,13.87,26.02c5.16,3.98,11.79,6,18.6,6c5.95,0,12.04-1.54,17.42-4.64c5.34-3.08,9.45-7.81,12.58-14.4
	c0.5-1.08,1-2.16,1.5-3.23l-0.13,0.04c1.41-3.54,2.51-7.22,3.48-10.84l0.01,0.02l0.61-2.39c0.2-0.79,0.4-1.57,0.6-2.36
	c0.91-4.31,2.43-10.63,4.9-18.17c3.12-9.51,4.47-10.93,5.56-10.92c1.09-0.01,2.45,1.4,5.56,10.92c2.47,7.54,3.99,13.86,4.9,18.17
	c0.2,0.79,0.4,1.57,0.6,2.36l0.61,2.39l0.01-0.02c0.96,3.62,2.07,7.3,3.48,10.84l-0.13-0.04c0.5,1.08,1,2.16,1.5,3.23
	c3.13,6.59,7.24,11.32,12.58,14.4c5.38,3.11,11.47,4.64,17.42,4.64c6.81,0,13.44-2.02,18.6-6c6.09-4.7,8.84-11.78,13.87-26.02
	c2.4-6.81,5.07-16.69,10.29-36.18c1.6-5.97,2.26-8.56,2.96-11.19c10.8-40.57,16.49-61.13,28.11-63.54
	c7.26-1.5,12.72,4.94,15.87,2.02C-975.06,602.18-977.38,590.6-983.89,585.34z M-1114.73,646.36c-5.6,0-10.15-4.54-10.15-10.15
	c0-5.6,4.54-10.15,10.15-10.15s10.15,4.54,10.15,10.15C-1104.58,641.81-1109.13,646.36-1114.73,646.36z"/>
<g>
	<rect x="2683.68" y="15.88" class="st7" width="1304.05" height="1300"/>
	<path class="st2" d="M3468.58,587.44c-17.54-14.18-73.18,11.37-73.92,35.91c-0.07,2.42,0.46,2.46,1.66,8.07
		c1.47,6.87,8.17,38.09-7.56,53.33c-1.25,1.21-5.52,5.11-12.15,6.81c-16.17,4.16-36.03-7.39-36.44-17.48
		c-0.39-9.49,16.59-13.28,18.4-29.02c0.55-4.82-0.4-8.32-0.88-9.74c-2.31-6.88-9.37-15.63-19.95-15.58
		c-10.58-0.05-17.64,8.7-19.95,15.58c-0.48,1.42-1.43,4.92-0.88,9.74c1.81,15.74,18.79,19.53,18.4,29.02
		c-0.41,10.09-20.27,21.64-36.44,17.48c-6.63-1.71-10.9-5.6-12.15-6.81c-15.73-15.24-9.03-46.47-7.56-53.33
		c1.2-5.61,1.74-5.65,1.66-8.07c-0.74-24.54-56.38-50.09-73.92-35.91c-6.51,5.26-8.83,16.84-5.39,20.04
		c3.15,2.93,8.6-3.52,15.87-2.02c11.62,2.4,17.31,22.96,28.11,63.54c0.7,2.63,1.36,5.22,2.96,11.19
		c5.23,19.49,7.89,29.37,10.29,36.18c5.03,14.24,7.77,21.31,13.87,26.02c5.16,3.98,11.79,6,18.6,6c5.95,0,12.04-1.54,17.42-4.64
		c5.34-3.08,9.45-7.81,12.58-14.4c0.5-1.08,1-2.16,1.5-3.23l-0.13,0.04c1.41-3.54,2.51-7.22,3.48-10.84l0.01,0.02l0.61-2.39
		c0.2-0.79,0.4-1.57,0.6-2.36c0.91-4.31,2.43-10.63,4.9-18.17c3.12-9.51,4.47-10.93,5.56-10.92c1.09-0.01,2.45,1.4,5.56,10.92
		c2.47,7.54,3.99,13.86,4.9,18.17c0.2,0.79,0.4,1.57,0.6,2.36l0.61,2.39l0.01-0.02c0.96,3.62,2.07,7.3,3.48,10.84l-0.13-0.04
		c0.5,1.08,1,2.16,1.5,3.23c3.13,6.59,7.24,11.32,12.58,14.4c5.38,3.11,11.47,4.64,17.42,4.64c6.81,0,13.44-2.02,18.6-6
		c6.09-4.7,8.84-11.78,13.87-26.02c2.4-6.81,5.07-16.69,10.29-36.18c1.6-5.97,2.26-8.56,2.96-11.19
		c10.8-40.57,16.49-61.13,28.11-63.54c7.26-1.5,12.72,4.94,15.87,2.02C3477.4,604.28,3475.09,592.7,3468.58,587.44z M3337.73,648.46
		c-5.6,0-10.15-4.54-10.15-10.15c0-5.6,4.54-10.15,10.15-10.15s10.15,4.54,10.15,10.15
		C3347.88,643.91,3343.34,648.46,3337.73,648.46z"/>
</g>
<circle class="st7" cx="1325.48" cy="-321.44" r="167.11"/>
<circle class="st2" cx="868.64" cy="-321.44" r="167.11"/>
<circle class="st5" cx="410.15" cy="-321.44" r="167.11"/>
<circle class="st1" cx="1773.89" cy="-321.44" r="167.11"/>
<circle class="st6" cx="2230.72" cy="-321.44" r="167.11"/>
</svg>
