<?xml version="1.0" encoding="utf-8"?>
<!-- Generator: Adobe Illustrator 27.9.0, SVG Export Plug-In . SVG Version: 6.00 Build 0)  -->
<svg version="1.1" id="Layer_1" xmlns="http://www.w3.org/2000/svg" xmlns:xlink="http://www.w3.org/1999/xlink" x="0px" y="0px"
	 viewBox="0 0 1400 1400" style="enable-background:new 0 0 1400 1400;" xml:space="preserve">
<path d="M484.38,708.07c-0.29,2.99-0.82,5.94-1.58,8.76c-2.86,10.67-7.78,20.98-14.58,30.68l0.03,0.02l-0.98,1.36l-0.92,1.27
	l-0.04-0.02c-4.05,5.43-8.63,10.49-13.66,15.1l0.03,0.03l-1.16,1.04l-1.25,1.12l-0.02-0.03c-18.01,15.56-39.01,23.78-59.55,23.78
	c-8.56,0-17.03-1.42-25.17-4.33c-8.32-2.98-16.03-7.4-22.9-13.15c-0.73-0.61-1.46-1.24-2.16-1.89
	c-22.68-20.58-29.71-56.01-17.5-88.17c10-26.32,30.83-46.98,55.86-55.53l0-0.04l1.18-0.39l2.01-0.65l0,0.08
	c6.29-1.86,12.75-2.94,19.24-3.21l-0.02-0.08l2.11-0.03l1.24-0.02l0.01,0.04c13.38,0.04,26.41,3.38,38.72,10.09
	c6.02,3.28,11.49,7.26,16.24,11.82c1.16,1.12,2.4,2.42,3.71,3.88l0.02-0.01l0.71,0.8l1.62,1.84l-0.07,0.02
	c7.08,8.56,12.61,18.81,15.83,29.35l0.06-0.05l0.65,2.36c0,0,0,0.01,0,0.01l0.28,1.02l-0.04,0.03
	C484.38,692.96,485.1,700.72,484.38,708.07z M397.33,740.62c7.49,0.94,14.27-2.05,19.13-8.42c9.86-12.93,17.48-37.78,3.52-52.51
	c-4.7-4.96-10.65-7.1-17.19-6.16c-9.29,1.32-19.06,8.68-24.29,18.31l-0.01,0.02c-1.27,2.34-2.2,4.66-2.75,6.91
	c-1.92,7.75-2.12,14.88-0.59,21.2c0.32,1.31,0.78,2.65,1.44,4.23l0.01,0.02C380.32,733.06,388.47,739.5,397.33,740.62z"/>
<path d="M666.73,708.07c-0.29,2.99-0.82,5.94-1.58,8.76c-2.86,10.67-7.78,20.98-14.58,30.68l0.03,0.02l-0.98,1.36l-0.92,1.27
	l-0.04-0.02c-4.05,5.43-8.63,10.49-13.66,15.1l0.03,0.03l-1.16,1.04l-1.25,1.12l-0.02-0.03c-18.01,15.56-39.01,23.78-59.55,23.78
	c-8.56,0-17.03-1.42-25.17-4.33c-8.32-2.98-16.03-7.4-22.9-13.15c-0.73-0.61-1.46-1.24-2.16-1.89
	c-22.68-20.58-29.71-56.01-17.5-88.17c10-26.32,30.83-46.98,55.86-55.53l0-0.04l1.18-0.39l2.01-0.65l0,0.08
	c6.29-1.86,12.75-2.94,19.24-3.21l-0.02-0.08l2.11-0.03l1.24-0.02l0.01,0.04c13.38,0.04,26.41,3.38,38.72,10.09
	c6.02,3.28,11.49,7.26,16.24,11.82c1.16,1.12,2.4,2.42,3.71,3.88l0.02-0.01l0.71,0.8l1.62,1.84l-0.07,0.02
	c7.08,8.56,12.61,18.81,15.83,29.35l0.06-0.05l0.65,2.36c0,0,0,0.01,0,0.01l0.28,1.02l-0.04,0.03
	C666.73,692.96,667.45,700.72,666.73,708.07z M579.68,740.62c7.49,0.94,14.27-2.05,19.13-8.42c9.86-12.93,17.48-37.78,3.52-52.51
	c-4.7-4.96-10.65-7.1-17.19-6.16c-9.29,1.32-19.06,8.68-24.29,18.31l-0.01,0.02c-1.27,2.34-2.2,4.66-2.75,6.91
	c-1.92,7.75-2.12,14.88-0.59,21.2c0.32,1.31,0.78,2.65,1.44,4.23l0.01,0.02C562.68,733.06,570.82,739.5,579.68,740.62z"/>
<path d="M813.51,605.73c-3.59,13.38-17.96,16.39-30.59,13.44c-2.16-0.5-4.46-1.15-6.84-1.82c-12.3-3.48-26.25-7.42-32.98,5.44
	c-3.23,6.18-2.04,13.03,3.03,17.45c1.31,1.14,2.82,2.06,4.51,2.74c5.53,2.25,12.28,1.83,18.8,1.43c2.05-0.13,4.07-0.25,5.99-0.29
	c9.6-0.21,21.4,0.46,26.94,7.25c3.12,3.83,3.95,9.18,2.44,15.9c-1.48,6.62-5.44,12.3-10.87,15.74l-0.01,0.05l-0.57,0.34
	c0,0-0.01,0.01-0.01,0.01l-3.33,1.97l0.1-0.39c-1.26,0.51-2.54,0.92-3.85,1.19c-2.89,0.61-5.82,0.8-8.8,0.8
	c-1.11,0-2.24-0.07-3.36-0.11l0.04,0.06l-3-0.16c-0.01,0-0.02,0-0.03,0l-0.8-0.05l-0.09,0c-11.54-0.64-20.66-1.14-25.12,12.9
	c-2.87,9.03-2.5,18.73-2.14,28.11c0.09,2.27,0.17,4.54,0.22,6.8c0.06,2.8,0.04,5.6,0.03,8.41l0.01,0.01l-0.01,1.31
	c0,0.01,0,0.02,0,0.03l-0.01,1.95c-0.06,6.83-0.11,13.89,0.34,20.81l0.09,1.37l-0.04,0.01c0.54,8.51-2.45,16.41-8.27,21.7
	c-4.48,4.08-10.17,6.22-16.35,6.22c-1.55,0-3.12-0.14-4.72-0.4c-26.07-4.41-24.75-31.69-23.87-49.74
	c0.58-12.03,0.72-24.57,0.4-37.26c-0.17-6.68-0.75-13.42-1.25-18.55c-0.27-2.81-0.56-5.63-0.85-8.44c-0.35-3.42-0.69-6.84-1-10.26
	l-0.02,0.01l-0.22-2.52l-0.09-1.03l0.01,0c-1.27-14.92-1.76-30.86,2.69-46.7c6.69-23.82,23.67-41.82,45.43-48.15
	c4.22-1.23,8.73-2.15,13.4-2.84l0-0.05l1.47-0.2l1.74-0.23l0,0.04c12-1.41,24.21-0.8,34.82,1.73l0.01-0.05l1.74,0.46l1.41,0.37
	l0,0.03c1.88,0.53,3.65,1.07,5.28,1.68C810.52,579.8,817.31,591.59,813.51,605.73z"/>
<path d="M953.7,738.78c0,16.42-6.2,29.42-18.43,38.64c-12.09,9.12-30.05,13.75-53.36,13.75c-9.1,0-17.52-0.66-25.01-1.96
	c-3.03-0.53-5.98-1.21-8.82-2l-0.02,0.02l-0.92-0.27c-0.01,0-0.01,0-0.02-0.01l-2.6-0.76l0.05-0.05
	c-6.28-2.07-11.53-4.74-15.65-7.97l-0.03,0.16l-2.19-2.02l-0.64-0.6l0.01-0.06c-1.55-1.51-2.91-3.1-3.97-4.76
	c-4.3-6.67-4.08-14.87,0.57-21.39c4.67-6.54,12.4-9.41,20.18-7.49c4.24,1.05,8.54,2.52,12.7,3.95c12.8,4.39,24.9,8.54,37.52,2.34
	c1.6-0.79,3.12-1.8,4.41-2.93l0.01-0.01c2.49-2.18,3.9-4.66,3.99-6.99c0.07-1.86-0.72-3.67-2.3-5.4l-0.78-0.74
	c-0.01-0.01-0.01-0.01-0.02-0.02l-0.01-0.01c-5.41-5.06-14.4-6.46-22.33-7.69c-1.9-0.29-3.73-0.58-5.44-0.9
	c-16.8-3.17-29.42-8.66-38.58-16.79c-4.88-4.33-8.45-9.77-10.69-16.15l-0.06-0.03l-0.22-0.65c0,0,0-0.01,0-0.01l-1.19-3.59l0.2,0.09
	c-1-4.08-1.52-8.44-1.52-13.05c0-0.04,0-0.07,0-0.1l-0.1,0.08l0.25-3.67v0l0.05-0.71l0.04-0.03c2.11-26.03,23.58-43.65,57.66-47.28
	l0.02-0.02l0.65-0.06l4-0.4l-0.14,0.17c3.3-0.22,6.62-0.29,9.95-0.22l-0.15-0.16l4,0.22c0.02,0,0.04,0,0.06,0l0.59,0.03l0.02,0.02
	c7.41,0.45,14.7,1.59,21.11,3.36c9.32,2.57,24.89,10.37,29.57,21.33c2.07,4.83,1.8,9.72-0.78,14.52c-3.19,5.91-8.5,8.65-16.13,8.42
	V669l-1.75-0.13l-1.48-0.13v-0.07c-4.12-0.51-8.3-1.61-12.04-2.64c-1.21-0.33-2.38-0.65-3.49-0.93c-1.3-0.33-3.3-0.71-5.48-1.05
	c-12.73-1.94-29.23-2.17-33.89,3.6c-1.49,1.85-1.63,4.29-0.43,7.45c3.31,8.66,17.07,10.96,26.17,12.49c1.2,0.2,2.34,0.39,3.38,0.58
	c13.52,2.47,28.89,6.52,40.42,17.74C949.31,714.39,953.72,725.44,953.7,738.78z"/>
<path d="M1075.77,762.9l0.09-0.01l-0.01,1.88l-0.01,1.39l-0.11,0.02c-0.3,4.6-1.87,8.99-4.61,12.49
	c-7.73,9.88-21.53,11.77-31.25,12.33c-1.76,0.1-3.74,0.17-5.9,0.17c-12.31,0-30.14-2.24-42.86-13.34l-3.66-3.2l0.44,0.04
	c-1.55-1.67-2.95-3.44-4.15-5.31c-0.55-0.85-1.06-1.76-1.56-2.73l-0.09,0.32l-1.79-4.39c0-0.01-0.01-0.02-0.01-0.03l-0.21-0.51
	l0.01-0.04c-4.24-10.8-4.28-22.65-4.29-34.12c-0.01-10.71-0.01-21.43,0-32.14l0-17.52c0-4.34,0.01-8.68,0.03-13.02
	c0.02-6.75,0.04-13.49,0.01-20.24c-0.03-5.82-0.09-11.63-0.24-17.45l-0.09-3.65l0.01,0.01c-0.33-11.86-0.45-27.55,11.64-35.06
	c5.66-3.52,12.64-4.7,19.25-3.33l0.05-0.02l0.45,0.1c0,0,0.01,0,0.01,0l5.57,1.27l-0.87,0.29c1.14,0.49,2.26,1.03,3.29,1.67
	c2.26,1.42,4.12,3.09,5.68,4.98l0.07-1.32l2.75,5.61l0.18,0.38l0,0.08c2.19,4.72,2.85,10.06,3.51,15.7l0.09,0.83
	c1.54,13.14,10.66,14.16,21.23,15.34c5.66,0.63,11.52,1.29,16.46,3.93c7.45,3.97,12.34,14.62,10.9,23.74
	c-2.07,13.07-13.4,14.08-22.29,14.42v0l-2.36,0.09c-3.85,0.13-7.47,0.25-10.58,0.96c-6.25,1.42-10.39,5.37-12.64,12.06l0,0.01
	c-3.23,9.6-1.93,22.96-0.89,33.69c0.36,3.73,0.71,7.27,0.81,10.2c0.22,6.32,2.32,11.16,6.22,14.38c5.43,4.49,13.19,4.92,18.71,4.48
	c1.39-0.11,2.8-0.26,4.21-0.5c5.22-0.87,9.77,0.19,13.17,3.09C1073.4,753.71,1075.39,758,1075.77,762.9z"/>
<path d="M1241.02,773.93l-2.15,2.86c0,0.01-0.01,0.01-0.01,0.02l-0.44,0.56l-0.07,0.01c-7.08,8.55-19.45,13.9-28.08,15.89
	c-9.02,2.08-18.19,3.1-27.21,3.1c-20.21,0-39.68-5.1-55.13-14.83c-17.39-10.95-28.95-27.32-33.44-47.34
	c-0.75-3.34-1.33-7.02-1.79-10.87l-0.06,0.03l-0.24-2.3l-0.12-1.13l0.03-0.01c-0.59-6.4-0.63-12.83-0.11-19.15l-0.03-0.01l0.1-1.13
	l0.21-2.29l0.07,0.04c1.02-8.85,3.05-16.97,6.13-24.1c5.12-11.85,13.04-21.79,23.5-29.59l0-0.03l0.57-0.42l2.99-2.19l-0.02,0.13
	c7.16-4.74,15.14-8.3,23.8-10.62l-0.09-0.06l3.52-0.79l0.71-0.16l0.03,0.02c15.2-3.3,31.01-2.63,45.79,1.99
	c30.19,9.43,44.23,30.8,40.62,61.8c-3.07,26.36-37.92,31.1-51.04,32.89c-3.06,0.41-6.16,0.71-9.28,1.02
	c-7.83,0.76-15.93,1.54-23.24,4.27c-2.79,1.04-4.77,2.74-5.71,4.91c-0.88,2-0.84,4.34,0.1,6.74l0,0.01c0.7,1.79,1.82,3.43,3.33,4.88
	c2.72,2.61,6.23,4.66,10.45,6.09c15.42,5.23,36.93,0.81,50.39-5.52c0.9-0.42,1.92-0.78,2.94-1.12l0.03-0.06l0.68-0.21l3.49-1.07
	l-0.13,0.28c6.75-1.15,14.66,0.12,18.58,7.18c3.85,6.95,3.87,13.92,0.11,20.33L1241.02,773.93z M1193.19,671.04
	c-4.67-2.5-10.81-3.81-17.19-3.76c-9.58,0.11-18.68,3.29-24.99,8.72c-3.49,3-5.18,6.98-4.63,10.92c0.52,3.75,3.09,6.95,7.05,8.78
	c10.4,4.8,28.13,0.34,37.51-3.84c1.9-0.84,3.77-2.04,5.4-3.46l0.01-0.01c2.81-2.45,4.43-5.19,4.56-7.72
	c0.1-1.95-0.68-3.83-2.32-5.58C1197.16,673.53,1195.39,672.21,1193.19,671.04L1193.19,671.04z"/>
<path d="M1377,646.92l-0.31,1.84l-0.24,1.38l-0.09,0c-0.69,2.8-1.95,5.39-3.83,7.69c-6.49,7.93-15.21,7.94-23.64,7.94
	c-4.55,0.01-9.25,0.01-13.48,1.3c-15.78,4.83-16.11,24.41-16.35,38.7l-0.03,1.48c-0.12,6.61,0.25,13.34,0.6,19.86
	c0.39,7.13,0.79,14.5,0.57,21.8l-0.07,2.53c-0.26,9.75-0.55,20.81-6,29.23c-1.07,1.65-2.31,3.15-3.7,4.46
	c-4.17,3.95-9.91,6.04-16.27,6.04c-1.51,0-3.07-0.15-4.64-0.39l-0.03,0.05l-1.05-0.2c-0.01,0-0.01,0-0.02,0l-2.38-0.45l0.09-0.14
	c-2.19-0.57-4.3-1.27-6.2-2.22c-10.79-5.41-12.68-15.47-12.92-25.68l-0.02,0l-0.03-2c-0.16-9.44-0.63-19.07-1.1-28.38
	c-0.39-7.84-0.78-15.93-0.99-23.92l-0.01-0.01l-0.02-0.86l-0.07-3.05l0.04,0.03c-0.08-4.68-0.06-9.27,0.04-13.75l-0.05,0.03
	l0.1-3.06l0.03-0.85l0.01-0.01c0.23-6.56,0.6-12.02,1.17-17.05c2.66-23.39,20.48-34.86,34.96-40.37
	c27.18-10.33,48.93-10.79,64.75-1.42l0.03-0.04l1.41,0.88c0.04,0.03,0.07,0.06,0.11,0.08l1.23,0.79l-0.07,0.08
	c5.68,4.27,8.8,10.9,8.32,17.66L1377,646.92z"/>
<path d="M339.51,605.37c-20.67-16.7-86.2,13.39-87.07,42.3c-0.09,2.85,0.54,2.9,1.96,9.51c1.73,8.09,9.63,44.87-8.9,62.82
	c-1.47,1.43-6.5,6.02-14.31,8.03c-19.05,4.9-42.44-8.71-42.93-20.59c-0.46-11.17,19.54-15.64,21.67-34.18
	c0.65-5.68-0.48-9.8-1.04-11.47c-2.73-8.1-11.04-18.41-23.5-18.35c-12.46-0.06-20.78,10.25-23.5,18.35
	c-0.56,1.67-1.69,5.8-1.04,11.47c2.13,18.54,22.13,23.01,21.67,34.18c-0.49,11.89-23.88,25.49-42.93,20.59
	c-7.81-2.01-12.84-6.6-14.31-8.03c-18.53-17.95-10.63-54.73-8.9-62.82c1.42-6.61,2.04-6.66,1.96-9.51
	c-0.88-28.91-66.41-59-87.07-42.3c-7.67,6.2-10.4,19.84-6.35,23.6c3.71,3.45,10.13-4.15,18.69-2.38
	c13.69,2.83,20.39,27.05,33.11,74.84c0.82,3.09,1.6,6.14,3.49,13.18c6.16,22.96,9.29,34.6,12.12,42.62
	c5.92,16.77,9.16,25.11,16.33,30.64c6.08,4.69,13.89,7.07,21.91,7.07c7.01,0,14.18-1.81,20.52-5.47c6.29-3.63,11.13-9.2,14.82-16.96
	c0.59-1.27,1.18-2.54,1.77-3.81l-0.16,0.04c1.66-4.17,2.96-8.5,4.09-12.77l0.02,0.02l0.72-2.81c0.24-0.92,0.47-1.85,0.71-2.77
	c1.08-5.07,2.86-12.52,5.78-21.4c3.67-11.2,5.27-12.87,6.55-12.86c1.29-0.01,2.88,1.65,6.55,12.86c2.91,8.88,4.7,16.33,5.78,21.4
	c0.24,0.92,0.47,1.85,0.71,2.77l0.72,2.81l0.02-0.02c1.13,4.27,2.44,8.6,4.09,12.77l-0.16-0.04c0.59,1.27,1.18,2.54,1.77,3.81
	c3.68,7.76,8.53,13.33,14.82,16.96c6.34,3.66,13.51,5.47,20.52,5.47c8.02,0,15.83-2.38,21.91-7.07
	c7.18-5.54,10.41-13.87,16.33-30.64c2.83-8.02,5.97-19.66,12.12-42.62c1.89-7.03,2.67-10.08,3.49-13.18
	c12.72-47.79,19.43-72.01,33.11-74.84c8.56-1.77,14.98,5.82,18.69,2.38C349.9,625.21,347.18,611.57,339.51,605.37z M185.39,677.24
	c-6.6,0-11.95-5.35-11.95-11.95c0-6.6,5.35-11.95,11.95-11.95s11.95,5.35,11.95,11.95C197.34,671.89,191.99,677.24,185.39,677.24z"
	/>
</svg>
