<?xml version="1.0" encoding="utf-8"?>
<!-- Generator: Adobe Illustrator 27.9.0, SVG Export Plug-In . SVG Version: 6.00 Build 0)  -->
<svg version="1.1" id="Layer_1" xmlns="http://www.w3.org/2000/svg" xmlns:xlink="http://www.w3.org/1999/xlink" x="0px" y="0px"
	 viewBox="0 0 1400 1400" style="enable-background:new 0 0 1400 1400;" xml:space="preserve">
<path d="M1145.94,432.67c-59.8-48.31-249.41,38.74-251.95,122.39c-0.25,8.25,1.56,8.39,5.66,27.51
	c5.02,23.4,27.85,129.83-25.75,181.77c-4.26,4.13-18.81,17.41-41.4,23.23c-55.11,14.18-122.8-25.19-124.21-59.58
	c-1.32-32.33,56.55-45.25,62.71-98.91c1.89-16.42-1.38-28.37-3-33.19c-7.89-23.43-31.95-53.26-68.01-53.08
	c-36.06-0.18-60.12,29.65-68.01,53.08c-1.62,4.82-4.89,16.77-3,33.19c6.17,53.66,64.04,66.58,62.71,98.91
	c-1.41,34.39-69.1,73.76-124.21,59.58c-22.59-5.81-37.14-19.1-41.4-23.23c-53.6-51.94-30.77-158.37-25.75-181.77
	c4.1-19.12,5.91-19.26,5.66-27.51c-2.53-83.65-192.15-170.7-251.95-122.39c-22.19,17.93-30.08,57.4-18.37,68.29
	c10.73,9.97,29.31-12,54.07-6.88c39.6,8.19,59.01,78.27,95.81,216.55c2.38,8.95,4.64,17.77,10.1,38.12
	c17.81,66.42,26.89,100.11,35.08,123.32c17.13,48.53,26.49,72.64,47.26,88.67c17.59,13.58,40.19,20.46,63.4,20.46
	c20.28,0,41.03-5.24,59.36-15.82c18.19-10.51,32.22-26.62,42.88-49.08c1.71-3.67,3.41-7.35,5.12-11.02l-0.46,0.12
	c4.8-12.07,8.56-24.6,11.85-36.95l0.05,0.06l2.08-8.13c0.68-2.68,1.37-5.35,2.05-8.03c3.12-14.67,8.28-36.22,16.71-61.92
	c10.63-32.42,15.23-37.24,18.97-37.2c3.73-0.03,8.33,4.79,18.97,37.2c8.43,25.69,13.59,47.24,16.71,61.92
	c0.68,2.68,1.37,5.35,2.05,8.03l2.08,8.13l0.05-0.06c3.28,12.35,7.05,24.88,11.85,36.95l-0.46-0.12c1.71,3.67,3.41,7.35,5.12,11.02
	c10.66,22.46,24.68,38.57,42.88,49.08c18.33,10.58,39.09,15.82,59.36,15.82c23.21,0,45.81-6.88,63.4-20.46
	c20.76-16.03,30.12-40.13,47.26-88.67c8.19-23.21,17.27-56.89,35.08-123.32c5.46-20.35,7.71-29.17,10.1-38.12
	c36.8-138.28,56.21-208.35,95.81-216.55c24.76-5.12,43.34,16.85,54.07,6.88C1176.02,490.07,1168.13,450.6,1145.94,432.67z
	 M700,640.63c-19.1,0-34.59-15.48-34.59-34.59c0-19.1,15.48-34.59,34.59-34.59s34.59,15.48,34.59,34.59
	C734.59,625.14,719.1,640.63,700,640.63z"/>
</svg>
